SplineFontDB: 3.0
FontName: boon-300
FullName: Boon Light
FamilyName: Boon
Weight: 300
Copyright: Copyright (C) 2013 Sungsit Sawaiwan <http://sungsit.com/>
UComments: "Created with FontForge 2.0 <http://fontforge.org/>" 
FontLog: "##  Boon v0.6, 2013-09-24+AAoA  - Redesigned Long S, Small Ezh & Small German Eszett+AAoA  - Improved some Latin diacritics compositions+AAoA  - Added **boon-300**, **boon-300-oblique**, **boon-500** & **boon-500-oblique**+AAoACgAA##  Boon v0.5, 2013-09-17+AAoA  - Redraw all glyphs+AAoA  - Match Latin x-height with Thai +DhoA--height+AAoA  - Reduce Latin cap-height+AAoA  - Add more character spacing+AAoA  - Complete **Basic Latin**, **Latin-1 supplement** & **Thai**+AAoA  - Rename all font files+AAoA      1. Boon-Book +AD0A> **boon-400**+AAoA      2. Boon-Book-Italic +AD0A> **boon-400-oblique**+AAoA      3. Boon-Bold +AD0A> **boon-700**+AAoA      4. Boon-Bold-italic +AD0A> **boon-700-oblique**+AAoA  - Move source files to **boon-dev** repository <https://github.com/sungsit/boon-dev>+AAoACgAA##  Boon v0.4, 2013-07-15+AAoA  - Improve kerning+AAoACgAA##  Boon v0.3.1, 2013-07-01+AAoA  - Corrected font version+AAoACgAA##  Boon v0.3, 2013-07-01+AAoA  - Improved Latin kerning+AAoA  - Added HTML/CSS and project page+AAoACgAA##  Boon v0.2, 2013-06-30+AAoA  - Included Boon-Bold and Boon-Bold-Italic (auto-generated)+AAoA  - Renamed Boon-Italic to Boon-Book-Italic+AAoACgAA##  Boon v0.1, 2013-06-27+AAoA  - Released Boon-Book and Boon-Italic (auto-generated)" 
Version: 0.6
ItalicAngle: 0
UnderlinePosition: -60
UnderlineWidth: 20
Ascent: 840
Descent: 360
woffMajor: 0
woffMinor: 6
LayerCount: 2
Layer: 0 0 "Back"  1
Layer: 1 0 "Fore"  0
FSType: 8
OS2Version: 0
OS2_WeightWidthSlopeOnly: 0
OS2_UseTypoMetrics: 1
CreationTime: 1369324892
ModificationTime: 1379950265
PfmFamily: 33
TTFWeight: 300
TTFWidth: 5
LineGap: 108
VLineGap: 0
OS2TypoAscent: 0
OS2TypoAOffset: 1
OS2TypoDescent: 0
OS2TypoDOffset: 1
OS2TypoLinegap: 108
OS2WinAscent: 0
OS2WinAOffset: 1

StartChar: uni0E04
Encoding: 3588 3588 0
Width: 670
VWidth: 0
Flags: W
HStem: 0 21G<500 570> 240 40<289.901 369.664> 380 40<289.956 369.664> 560 60<229.778 430.222>
VStem: 90 70<261.392 492.584> 100 90<14.1313 137.15> 120 70<-3.5 269.213> 380 40<290.336 369.664> 500 70<0 492.172>
LayerCount: 2
Fore
SplineSet
330 420 m 0xf980
 380 420 420 380 420 330 c 0
 420 280 380 240 330 240 c 0
 284 240 246 275 241 319 c 1
 206 268 190 186 190 100 c 2xf580
 190 -10 l 1xf380
 190 -10 101 -6 100 30 c 1xf580
 100 30 120 79 120 140 c 0xf380
 120 242 90 265 90 400 c 0
 90 537 194 620 330 620 c 0
 466 620 570 537 570 400 c 2
 570 0 l 1
 500 0 l 1
 500 400 l 2
 500 482 451 560 330 560 c 0
 209 560 160 482 160 400 c 0
 160 341 166 299 173 260 c 1
 197 340 247 420 330 420 c 0xf980
330 380 m 0
 302 380 280 358 280 330 c 0
 280 302 302 280 330 280 c 0
 358 280 380 302 380 330 c 0
 380 358 358 380 330 380 c 0
EndSplineSet
EndChar

StartChar: uni0E05
Encoding: 3589 3589 2
Width: 670
VWidth: 0
Flags: W
HStem: 0 21G<500 570> 240 40<289.901 369.664> 380 40<290.349 369.664> 600 20G<208.5 267.667 392.333 451.5>
VStem: 90 70<266.869 519.432> 100 90<14.1313 137.15> 120 70<-3.5 269.213> 380 40<290.336 369.664> 500 70<0 518.674>
LayerCount: 2
Fore
SplineSet
330 420 m 0xf980
 380 420 420 380 420 330 c 0
 420 280 380 240 330 240 c 0
 284 240 246 275 241 319 c 1
 206 268 190 186 190 100 c 2xf580
 190 -10 l 1xf380
 190 -10 101 -6 100 30 c 1xf580
 100 30 120 79 120 140 c 0xf380
 120 242 90 285 90 420 c 0
 90 538 172 620 245 620 c 1
 330 545 l 1
 415 620 l 1
 488 620 570 538 570 420 c 2
 570 0 l 1
 500 0 l 1
 500 420 l 2
 500 501 466 543 430 560 c 1
 330 480 l 1
 230 560 l 1
 194 543 160 501 160 420 c 0
 160 358 167 309 174 264 c 1
 198 343 249 420 330 420 c 0xf980
330 380 m 0
 302 380 280 358 280 330 c 0
 280 302 302 280 330 280 c 0
 358 280 380 302 380 330 c 0
 380 358 358 380 330 380 c 0
EndSplineSet
EndChar

StartChar: uni0E14
Encoding: 3604 3604 3
Width: 670
VWidth: 0
Flags: W
HStem: 0 21G<500 570> 240 40<290.336 344.295> 380 40<290.336 369.664> 560 60<229.778 430.222>
VStem: 90 70<197.942 492.584> 100 90<14.1313 56.3715> 120 70<-3.5 56.3715 98 321.076> 240 40<290.336 369.664> 380 40<292.51 369.664> 500 70<0 492.172>
LayerCount: 2
Fore
SplineSet
330 420 m 0xf3c0
 380 420 420 380 420 330 c 0
 420 175 190 107 190 -10 c 1xf3c0
 190 -10 101 -6 100 30 c 1xf5c0
 100 30 120 79 120 140 c 0xf3c0
 120 242 90 265 90 400 c 0
 90 537 194 620 330 620 c 0
 466 620 570 537 570 400 c 2
 570 0 l 1
 500 0 l 1
 500 400 l 2
 500 482 451 560 330 560 c 0
 209 560 160 482 160 400 c 0xf9c0
 160 269 190 217 190 110 c 2
 190 98 l 1
 231 152 304 187 345 241 c 1
 340 240 335 240 330 240 c 0
 280 240 240 280 240 330 c 0
 240 380 280 420 330 420 c 0xf3c0
330 380 m 0
 302 380 280 358 280 330 c 0
 280 302 302 280 330 280 c 0
 358 280 380 302 380 330 c 0
 380 358 358 380 330 380 c 0
EndSplineSet
EndChar

StartChar: uni0E15
Encoding: 3605 3605 4
Width: 670
VWidth: 0
Flags: W
HStem: 0 21G<500 570> 240 40<290.336 344.295> 380 40<290.336 369.664> 600 20G<208.5 267.667 392.333 451.5>
VStem: 90 70<201.488 519.432> 100 90<14.1313 56.3715> 120 70<-3.5 56.3715 98 338.295> 240 40<290.336 369.664> 380 40<292.51 369.664> 500 70<0 518.674>
LayerCount: 2
Fore
SplineSet
330 420 m 0xf3c0
 380 420 420 380 420 330 c 0
 420 175 190 107 190 -10 c 1xf3c0
 190 -10 101 -6 100 30 c 1xf5c0
 100 30 120 79 120 140 c 0xf3c0
 120 242 90 285 90 420 c 0
 90 538 172 620 245 620 c 1
 330 545 l 1
 415 620 l 1
 488 620 570 538 570 420 c 2
 570 0 l 1
 500 0 l 1
 500 420 l 2
 500 501 466 543 430 560 c 1
 330 480 l 1
 230 560 l 1
 194 543 160 501 160 420 c 0xf9c0
 160 289 190 217 190 110 c 2
 190 98 l 1
 231 152 304 187 345 241 c 1
 340 240 335 240 330 240 c 0
 280 240 240 280 240 330 c 0
 240 380 280 420 330 420 c 0xf3c0
330 380 m 0
 302 380 280 358 280 330 c 0
 280 302 302 280 330 280 c 0
 358 280 380 302 380 330 c 0
 380 358 358 380 330 380 c 0
EndSplineSet
EndChar

StartChar: uni0E01
Encoding: 3585 3585 5
Width: 670
VWidth: 0
Flags: W
HStem: 0 21G<140 210 500 570> 400 10<278.34 300> 560 60<242.438 433.177>
VStem: 140 70<0 368.047> 500 70<0 491.328>
LayerCount: 2
Fore
SplineSet
210 0 m 1
 140 0 l 1
 140 290 l 2
 140 350 165 380 189 395 c 1
 90 420 l 1
 98 474 173 620 340 620 c 0
 475 620 570 535 570 400 c 2
 570 0 l 1
 500 0 l 1
 500 400 l 2
 500 482 452 560 340 560 c 0
 246 560 183 503 162 440 c 1
 300 410 l 1
 300 400 l 1
 299 400 l 1
 287 399 210 389 210 290 c 2
 210 0 l 1
EndSplineSet
EndChar

StartChar: uni0E16
Encoding: 3606 3606 6
Width: 670
VWidth: 0
Flags: W
HStem: -10 50<196.643 283.357> 0 21G<500 570> 140 50<210.656 283.357> 410 10<281.679 300> 560 60<234.877 438.962>
VStem: 140 70<185 371.211> 140 50<46.7455 133.459> 290 50<46.6431 133.357> 500 70<0 499.385>
LayerCount: 2
Fore
SplineSet
240 190 m 0x7d80
 295 190 340 145 340 90 c 0
 340 35 295 -10 240 -10 c 0
 185 -10 140 35 140 90 c 2xbb80
 140 290 l 2
 140 350 165 390 189 405 c 1
 90 430 l 1
 98 484 173 620 340 620 c 0
 475 620 570 545 570 410 c 2
 570 0 l 1
 500 0 l 1
 500 410 l 2
 500 492 452 560 340 560 c 0
 246 560 183 513 162 450 c 1
 300 420 l 1
 300 410 l 1
 299 410 l 1
 287 409 210 389 210 290 c 2
 210 185 l 1
 219 188 230 190 240 190 c 0x7d80
240 140 m 0
 212 140 190 118 190 90 c 0
 190 62 212 40 240 40 c 0
 268 40 290 62 290 90 c 0
 290 118 268 140 240 140 c 0
EndSplineSet
EndChar

StartChar: uni0E28
Encoding: 3624 3624 7
Width: 680
VWidth: 0
Flags: W
HStem: 0 21G<500 570> 240 40<289.901 369.664> 380 40<289.956 369.664> 560 60<229.778 430.804>
VStem: 90 70<261.392 492.584> 100 90<14.1313 137.15> 120 70<-3.5 269.213> 380 40<290.336 369.664> 500 70<0 492.996> 550 60<579.973 720>
LayerCount: 2
Fore
SplineSet
330 420 m 0xf980
 380 420 420 380 420 330 c 0
 420 280 380 240 330 240 c 0
 284 240 246 275 241 319 c 1
 206 268 190 186 190 100 c 2xf5
 190 -10 l 1xf3
 190 -10 101 -6 100 30 c 1xf5
 100 30 120 79 120 140 c 0xf3
 120 242 90 265 90 400 c 0
 90 537 194 620 330 620 c 0
 401 620 463 597 507 556 c 1
 538 587 550 628 550 720 c 1
 610 720 l 1xf940
 610 612 577 552 539 517 c 1
 559 485 570 445 570 400 c 2
 570 0 l 1
 500 0 l 1
 500 400 l 2
 500 482 451 560 330 560 c 0
 209 560 160 482 160 400 c 0
 160 341 166 299 173 260 c 1
 197 340 247 420 330 420 c 0xf980
330 380 m 0
 302 380 280 358 280 330 c 0
 280 302 302 280 330 280 c 0
 358 280 380 302 380 330 c 0
 380 358 358 380 330 380 c 0
EndSplineSet
Substitution2: "Ascent Substitute" uni0E28.alt
EndChar

StartChar: uni0E20
Encoding: 3616 3616 8
Width: 690
VWidth: 0
Flags: W
HStem: -10 50<136.643 223.357> 0 21G<520 590> 140 50<136.643 193.795> 410 10<316.065 330> 560 60<256.382 458.962>
VStem: 80 50<46.6431 133.357> 180 70<189.711 375.674> 230 50<46.6431 132.928> 520 70<0 499.385>
LayerCount: 2
Fore
SplineSet
360 620 m 0xbe80
 495 620 590 545 590 410 c 2
 590 0 l 1
 520 0 l 1
 520 410 l 2
 520 492 472 560 360 560 c 0
 266 560 203 511 182 450 c 1
 330 420 l 1
 330 410 l 1
 330 410 250 393 250 300 c 2
 250 260 l 2x7e80
 250 199 280 176 280 90 c 0x7d80
 280 35 235 -10 180 -10 c 0
 125 -10 80 35 80 90 c 0
 80 145 125 190 180 190 c 0
 185 190 189 190 194 189 c 1
 188 204 180 230 180 260 c 2
 180 300 l 2
 180 362 210 389 233 401 c 1
 110 430 l 1
 118 484 193 620 360 620 c 0xbe80
180 140 m 0
 152 140 130 118 130 90 c 0
 130 62 152 40 180 40 c 0xbe80
 208 40 230 62 230 90 c 0xbd80
 230 118 208 140 180 140 c 0
EndSplineSet
EndChar

StartChar: uni0E48
Encoding: 3656 3656 9
Width: 0
VWidth: 0
Flags: W
HStem: 1000 230
VStem: -170 60<1040 1230>
LayerCount: 2
Fore
SplineSet
-170 1230 m 1
 -110 1230 l 1
 -110 1000 l 1
 -170 1040 l 1
 -170 1230 l 1
EndSplineSet
Position2: "Nikhahit & Tone High-Left" dx=-240 dy=0 dh=0 dv=0
Position2: "Mai Han-Akat & Tone High-Left" dx=-300 dy=0 dh=0 dv=0
Position2: "Tone High-Left" dx=-180 dy=0 dh=0 dv=0
MultipleSubs2: "Tone High-Low" uni0E48.low
EndChar

StartChar: uni0E34
Encoding: 3636 3636 10
Width: 0
VWidth: 0
Flags: W
HStem: 800 26<-466 -368.608> 905 55<-434.659 -261.699>
AnchorPoint: "thai_above" 187.82 630 mark 0
LayerCount: 2
Fore
SplineSet
-466 826 m 1
 -379 826 -282 809 -159 750 c 1
 -188 830 -252 905 -360 905 c 0
 -426 905 -457 863 -466 826 c 1
-540 800 m 1
 -540 847 -492 960 -360 960 c 0
 -179 960 -110 783 -110 700 c 1
 -296 790 -419 800 -540 800 c 1
EndSplineSet
Substitution2: "Thai Tone & Vowel Above-Narrow" uni0E34.narrow
Position2: "Vowel Above-Left" dx=-140 dy=0 dh=0 dv=0
EndChar

StartChar: uni0E38
Encoding: 3640 3640 11
Width: 0
VWidth: 0
Flags: W
HStem: -240 40<-222.114 -165.354> -110 40<-222.114 -147.886>
VStem: -270 40<-192.114 -117.886> -165 65<-340 -238> -140 40<-192.354 -118.125>
LayerCount: 2
Fore
SplineSet
-165 -238 m 1xf0
 -171 -239 -178 -240 -185 -240 c 0
 -232 -240 -270 -202 -270 -155 c 0
 -270 -108 -232 -70 -185 -70 c 0
 -138 -70 -100 -108 -100 -155 c 2xe8
 -100 -340 l 1
 -165 -340 l 1
 -165 -238 l 1xf0
-185 -110 m 0
 -210 -110 -230 -130 -230 -155 c 0
 -230 -180 -210 -200 -185 -200 c 0
 -160 -200 -140 -180 -140 -155 c 0
 -140 -130 -160 -110 -185 -110 c 0
EndSplineSet
Position2: "Vowel Below-Low" dx=0 dy=-200 dh=0 dv=0
EndChar

StartChar: uni0E35
Encoding: 3637 3637 12
Width: 0
VWidth: 0
Flags: W
HStem: 780 26<-466 -368.608> 885 55<-434.659 -260.543>
VStem: -170 60<812.313 950>
AnchorPoint: "thai_above" 187.82 630 mark 0
LayerCount: 2
Fore
SplineSet
-466 806 m 1
 -379 806 -282 789 -159 730 c 1
 -188 810 -252 885 -360 885 c 0
 -426 885 -457 843 -466 806 c 1
-170 980 m 1
 -110 950 l 1
 -110 680 l 1
 -296 770 -419 780 -540 780 c 1
 -540 827 -492 940 -360 940 c 0
 -264 940 -197 879 -161 811 c 1
 -166 839 -170 868 -170 890 c 2
 -170 980 l 1
EndSplineSet
Substitution2: "Thai Tone & Vowel Above-Narrow" uni0E35.narrow
Position2: "Vowel Above-Left" dx=-140 dy=0 dh=0 dv=0
EndChar

StartChar: uni0E48.low
Encoding: 63237 63237 13
Width: 0
VWidth: 0
Flags: W
HStem: 700 240<-190 -120>
VStem: -190 70<700 940>
AnchorPoint: "thai_above" 187.82 630 mark 0
LayerCount: 2
Fore
SplineSet
-190 940 m 1
 -120 940 l 1
 -120 700 l 1
 -190 700 l 1
 -190 940 l 1
EndSplineSet
Position2: "Tone Low-Left" dx=-220 dy=0 dh=0 dv=0
Substitution2: "Tone Low-High" uni0E48
EndChar

StartChar: uni0E49.low
Encoding: 63238 63238 14
Width: 0
VWidth: 0
Flags: W
HStem: 700 45<-449.169 -361.811 -330 -212.479> 780 35<-382.336 -352> 895 35<-382.463 -317.537>
VStem: -425 35<822.622 887.463> -310 35<823.071 887.463> -135 65<816.103 920>
AnchorPoint: "thai_above" 187.82 630 mark 0
LayerCount: 2
Fore
SplineSet
-350 930 m 0
 -309 930 -275 896 -275 855 c 0
 -275 791 -330 745 -330 745 c 1
 -310 745 l 2
 -202 745 -135 800 -135 920 c 1
 -70 920 l 1
 -70 790 -140 700 -310 700 c 2
 -425 700 l 2
 -463 700 -470 745 -470 745 c 1
 -400 745 l 2
 -385 745 -366 758 -352 780 c 1
 -393 781 -425 814 -425 855 c 0
 -425 896 -391 930 -350 930 c 0
-350 895 m 0
 -372 895 -390 877 -390 855 c 0
 -390 833 -372 815 -350 815 c 0
 -328 815 -310 833 -310 855 c 0
 -310 877 -328 895 -350 895 c 0
EndSplineSet
Substitution2: "Thai Tone & Vowel Above-Narrow" uni0E49.narrow
Substitution2: "Thai Special Tone for Asc" uni0E49
Position2: "Tone Low-Left" dx=-220 dy=0 dh=0 dv=0
Substitution2: "Tone Low-High" uni0E49
EndChar

StartChar: uni0E4A.low
Encoding: 63239 63239 15
Width: 0
VWidth: 0
Flags: W
HStem: 695 35<-442.63 -377.537 -290 -268.985> 810 35<-442.744 -377.537> 900 40<-439.694 -374.129 -290 -260.438>
VStem: -500 50<733.657 856.27> -370 35<737.537 802.463> -240 45<753.304 883.597> -135 55<792.095 930>
AnchorPoint: "thai_above" 187.82 630 mark 0
LayerCount: 2
Fore
SplineSet
-290 900 m 1
 -325 855 l 1
 -365 855 l 1
 -369 872 -378 900 -405 900 c 0
 -436 900 -452 867 -455 830 c 1
 -442 840 -427 845 -410 845 c 0
 -369 845 -335 811 -335 770 c 0
 -335 729 -369 695 -410 695 c 0
 -464 695 -500 752 -500 820 c 0
 -500 888 -452 940 -405 940 c 0
 -369 940 -347 912 -338 893 c 1
 -305 940 l 1
 -290 940 l 2
 -234 940 -195 889 -195 820 c 0
 -195 793 -201 768 -212 749 c 1
 -172 761 -135 804 -135 930 c 1
 -80 930 l 1
 -80 761 -136 700 -290 700 c 1
 -290 735 l 1
 -268 735 -240 777 -240 820 c 0
 -240 863 -268 900 -290 900 c 1
-410 810 m 0
 -432 810 -450 792 -450 770 c 0
 -450 748 -432 730 -410 730 c 0
 -388 730 -370 748 -370 770 c 0
 -370 792 -388 810 -410 810 c 0
EndSplineSet
Substitution2: "Thai Tone & Vowel Above-Narrow" uni0E4A.narrow
Substitution2: "Thai Special Tone for Asc" uni0E4A
Position2: "Tone Low-Left" dx=-200 dy=0 dh=0 dv=0
Substitution2: "Tone Low-High" uni0E4A
EndChar

StartChar: uni0E4B.low
Encoding: 63240 63240 16
Width: 0
VWidth: 0
Flags: W
HStem: 805 50<-330 -220 -160 -50>
VStem: -220 60<700 805 855 960>
AnchorPoint: "thai_above" 187.82 630 mark 0
LayerCount: 2
Fore
SplineSet
-220 960 m 1
 -160 960 l 1
 -160 855 l 1
 -50 855 l 1
 -50 805 l 1
 -160 805 l 1
 -160 700 l 1
 -220 700 l 1
 -220 805 l 1
 -330 805 l 1
 -330 855 l 1
 -220 855 l 1
 -220 960 l 1
EndSplineSet
Position2: "Tone Low-Left" dx=-230 dy=0 dh=0 dv=0
Substitution2: "Tone Low-High" uni0E4B
EndChar

StartChar: uni0E4C.low
Encoding: 63241 63241 17
Width: 0
VWidth: 0
Flags: W
HStem: 700 35<-278.827 -219.344>
VStem: -320 36<739.397 799.794> -214 34<740.821 799.239> -184 64<895.537 940>
AnchorPoint: "thai_above" 187.82 630 mark 0
LayerCount: 2
Fore
SplineSet
-250 805 m 0xe0
 -269 805 -284 789 -284 770 c 0
 -284 751 -269 735 -250 735 c 0
 -230 735 -214 751 -214 770 c 0
 -214 789 -230 805 -250 805 c 0xe0
-184 940 m 1xd0
 -120 940 l 1xd0
 -120 880 -175 858 -219 833 c 1
 -195 821 -180 798 -180 770 c 0xe0
 -180 731 -211 700 -250 700 c 0
 -288 700 -320 731 -320 770 c 0
 -320 854 -184 878 -184 940 c 1xd0
EndSplineSet
Position2: "Tone Low-Left" dx=-140 dy=0 dh=0 dv=0
Substitution2: "Tone Low-High" uni0E4C
EndChar

StartChar: uni0E10.descless
Encoding: 63232 63232 18
Width: 600
VWidth: 0
Flags: W
HStem: 140 45<162.158 238.445> 275 45<162.158 238.181> 400 45<160 333.875> 550 60<488.177 530> 565 55<219.965 406.086>
VStem: 110 45<192.158 267.842> 245 45<191.481 227> 400 70<80 372.231>
LayerCount: 2
Fore
SplineSet
90 400 m 1xef
 90 531 180 620 310 620 c 0xef
 383 620 434 580 465 550 c 1
 473 568 503 610 530 610 c 1
 530 550 l 1xf7
 507 550 477 515 465 495 c 1
 427 533 373 565 310 565 c 0
 216 565 163 498 160 445 c 1
 363 445 470 440 470 320 c 2
 470 60 l 2
 470 15 424 -10 380 -10 c 1
 368 97 332 178 290 227 c 1
 288 179 249 140 200 140 c 0
 150 140 110 180 110 230 c 0
 110 280 150 320 200 320 c 0
 280 320 368 215 400 80 c 1
 400 320 l 2
 400 396 327 400 90 400 c 1xef
200 275 m 0
 175 275 155 255 155 230 c 0
 155 205 175 185 200 185 c 0
 225 185 245 205 245 230 c 0
 245 255 225 275 200 275 c 0
EndSplineSet
EndChar

StartChar: uni0E0D.descless
Encoding: 63247 63247 19
Width: 930
VWidth: 0
Flags: W
HStem: -20 60<593.627 736.373> -10 50<196.643 283.357> 140 50<210.656 283.357> 410 10<281.679 300> 560 60<234.877 438.962> 580 20G<760 830>
VStem: 140 70<185 371.211> 140 50<46.7455 133.459> 290 50<46.6431 133.357> 500 70<65.8398 499.385> 760 70<65.8398 600>
LayerCount: 2
Fore
SplineSet
240 140 m 0x71e0
 212 140 190 118 190 90 c 0
 190 62 212 40 240 40 c 0
 268 40 290 62 290 90 c 0
 290 118 268 140 240 140 c 0x71e0
240 190 m 0
 295 190 340 145 340 90 c 0
 340 35 295 -10 240 -10 c 0
 185 -10 140 35 140 90 c 2x79e0
 140 290 l 2
 140 350 165 390 189 405 c 1
 90 430 l 1
 98 484 173 620 340 620 c 0x7ae0
 475 620 570 545 570 410 c 2
 570 130 l 2
 570 97 586 40 665 40 c 0
 744 40 760 97 760 130 c 2
 760 600 l 1
 830 600 l 1xb6e0
 830 130 l 2
 830 92 816 -20 665 -20 c 0
 514 -20 500 92 500 130 c 2
 500 410 l 2
 500 492 452 560 340 560 c 0
 246 560 183 513 162 450 c 1
 300 420 l 1
 300 410 l 1
 299 410 l 1
 287 409 210 389 210 290 c 2
 210 185 l 1xbae0
 219 188 230 190 240 190 c 0
EndSplineSet
EndChar

StartChar: uni0E36
Encoding: 3638 3638 20
Width: 0
VWidth: 0
Flags: W
HStem: 780 26<-466 -368.608> 885 55<-434.659 -259.778> 945 35<-215.14 -144.974>
VStem: -135 35<865.062 935.026>
AnchorPoint: "thai_above" 187.82 630 mark 0
LayerCount: 2
Fore
SplineSet
-466 806 m 1
 -379 806 -282 789 -159 730 c 1
 -188 810 -252 885 -360 885 c 0
 -426 885 -457 843 -466 806 c 1
-180 980 m 0
 -136 980 -100 944 -100 900 c 0
 -100 864 -123 834 -155 824 c 1
 -124 773 -110 717 -110 680 c 1
 -296 770 -419 780 -540 780 c 1
 -540 827 -492 940 -360 940 c 0
 -321 940 -287 932 -258 918 c 1
 -250 953 -218 980 -180 980 c 0
-180 945 m 0
 -205 945 -225 925 -225 900 c 0
 -225 875 -205 855 -180 855 c 0
 -155 855 -135 875 -135 900 c 0
 -135 925 -155 945 -180 945 c 0
EndSplineSet
Substitution2: "Thai Tone & Vowel Above-Narrow" uni0E36.narrow
Position2: "Vowel Above-Left" dx=-140 dy=0 dh=0 dv=0
EndChar

StartChar: uni0E37
Encoding: 3639 3639 21
Width: 0
VWidth: 0
Flags: W
HStem: 770 26<-466 -368.608> 875 55<-432.171 -311.603>
VStem: -310 60<924 980> -170 60<798.548 940>
AnchorPoint: "thai_above" 187.82 630 mark 0
LayerCount: 2
Fore
SplineSet
-466 796 m 1
 -379 795 -281 779 -159 719 c 1
 -187 799 -252 875 -360 875 c 0
 -426 875 -456 832 -466 796 c 1
-170 970 m 1
 -110 940 l 1
 -110 670 l 1
 -296 760 -419 770 -540 770 c 1
 -540 817 -492 930 -360 930 c 0
 -342 930 -325 927 -310 924 c 1
 -310 1010 l 1
 -250 980 l 1
 -250 899 l 1
 -209 874 -178 836 -158 797 c 1
 -165 830 -170 864 -170 890 c 2
 -170 970 l 1
EndSplineSet
Substitution2: "Thai Tone & Vowel Above-Narrow" uni0E37.narrow
Position2: "Vowel Above-Left" dx=-140 dy=0 dh=0 dv=0
EndChar

StartChar: uni0E2D
Encoding: 3629 3629 22
Width: 650
VWidth: 0
Flags: W
HStem: -20 65<213.481 431.452> 180 50<170.656 243.357> 330 50<156.643 243.357> 560 60<210.985 419.015>
VStem: 80 70<420 499.531> 100 70<88.1104 185> 100 50<236.541 323.255> 250 50<236.643 323.357> 480 70<92.2284 499.531>
LayerCount: 2
Fore
SplineSet
200 380 m 0xf380
 255 380 300 335 300 280 c 0
 300 225 255 180 200 180 c 0
 190 180 179 182 170 185 c 1
 170 160 l 2xf580
 170 95 207 45 325 45 c 0
 443 45 480 105 480 170 c 2
 480 420 l 2
 480 481 440 560 315 560 c 0
 190 560 150 481 150 420 c 1
 80 420 l 1xf980
 80 535 168 620 315 620 c 0
 462 620 550 535 550 420 c 2
 550 170 l 2
 550 34 447 -20 325 -20 c 0
 203 -20 100 24 100 160 c 2xf580
 100 280 l 2
 100 335 145 380 200 380 c 0xf380
200 330 m 0
 172 330 150 308 150 280 c 0xf380
 150 252 172 230 200 230 c 0
 228 230 250 252 250 280 c 0
 250 308 228 330 200 330 c 0
EndSplineSet
EndChar

StartChar: uni0E4D
Encoding: 3661 3661 23
Width: 0
VWidth: 0
Flags: W
HStem: 710 50<-239.773 -130.227> 910 50<-239.773 -130.227>
VStem: -310 50<780.227 889.773> -110 50<780.227 889.773>
AnchorPoint: "thai_above" 187.82 630 mark 0
LayerCount: 2
Fore
SplineSet
-185 910 m 0
 -226 910 -260 876 -260 835 c 0
 -260 794 -226 760 -185 760 c 0
 -144 760 -110 794 -110 835 c 0
 -110 876 -144 910 -185 910 c 0
-185 960 m 0
 -116 960 -60 904 -60 835 c 0
 -60 766 -116 710 -185 710 c 0
 -254 710 -310 766 -310 835 c 0
 -310 904 -254 960 -185 960 c 0
EndSplineSet
Position2: "Vowel Above-Left" dx=-220 dy=0 dh=0 dv=0
EndChar

StartChar: uni0E33
Encoding: 3635 3635 24
Width: 550
VWidth: 0
Flags: W
HStem: 0 21G<380 450> 560 60<166.05 323.95> 710 50<-239.773 -130.227> 910 50<-239.773 -130.227>
VStem: -310 50<780.227 889.773> -110 50<780.227 889.773> 40 70<410 500.299> 380 70<0 500.299>
LayerCount: 2
Fore
SplineSet
450 410 m 2
 450 0 l 1
 380 0 l 1
 380 410 l 2
 380 481 341 560 245 560 c 0
 149 560 110 481 110 410 c 1
 40 410 l 1
 40 535 124 620 245 620 c 0
 366 620 450 535 450 410 c 2
-185 910 m 0
 -226 910 -260 876 -260 835 c 0
 -260 794 -226 760 -185 760 c 0
 -144 760 -110 794 -110 835 c 0
 -110 876 -144 910 -185 910 c 0
-185 960 m 0
 -116 960 -60 904 -60 835 c 0
 -60 766 -116 710 -185 710 c 0
 -254 710 -310 766 -310 835 c 0
 -310 904 -254 960 -185 960 c 0
EndSplineSet
MultipleSubs2: "Sara Am Decomposite" uni0E4D uni0E32
EndChar

StartChar: uni0E32
Encoding: 3634 3634 25
Width: 550
VWidth: 0
Flags: W
HStem: 0 21G<380 450> 560 60<166.05 323.95>
VStem: 40 70<410 500.299> 380 70<0 500.299>
LayerCount: 2
Fore
SplineSet
450 410 m 2
 450 0 l 1
 380 0 l 1
 380 410 l 2
 380 481 341 560 245 560 c 0
 149 560 110 481 110 410 c 1
 40 410 l 1
 40 535 124 620 245 620 c 0
 366 620 450 535 450 410 c 2
EndSplineSet
Substitution2: "Sara AA Substitute" uni0E45
EndChar

StartChar: uni0E25
Encoding: 3621 3621 26
Width: 650
VWidth: 0
Flags: W
HStem: -20 50<177.143 263.357> 130 50<176.65 263.357> 325 55<202.345 379.615> 560 60<219.8 420.2>
VStem: 80 70<104.506 273.816> 90 70<420 502.276> 270 50<36.6431 123.357> 475 75<11.7888 238.441 268 508.688>
LayerCount: 2
Fore
SplineSet
550 420 m 2xf7
 550 30 l 2
 550 -6 475 -10 475 -10 c 1
 475 170 l 2
 475 236 387 325 290 325 c 0
 213 325 150 284 150 180 c 0
 150 171 150 161 151 152 c 1
 169 169 193 180 220 180 c 0
 275 180 320 135 320 80 c 0
 320 25 275 -20 220 -20 c 0
 141 -20 80 52 80 180 c 0xfb
 80 316 173 380 280 380 c 0
 376 380 444 328 480 268 c 1
 480 420 l 2
 480 481 445 560 320 560 c 0
 195 560 160 481 160 420 c 1
 90 420 l 1
 90 535 173 620 320 620 c 0
 467 620 550 535 550 420 c 2xf7
220 130 m 0
 192 130 170 108 170 80 c 0
 170 52 192 30 220 30 c 0
 248 30 270 52 270 80 c 0
 270 108 248 130 220 130 c 0
EndSplineSet
EndChar

StartChar: uni0E40
Encoding: 3648 3648 27
Width: 340
VWidth: 0
Flags: W
HStem: -10 50<156.643 243.357> 140 50<170.656 243.357> 580 20G<100 170>
VStem: 100 70<185 600> 100 50<46.7455 133.459> 250 50<46.6431 133.357>
LayerCount: 2
Fore
SplineSet
200 140 m 0xec
 172 140 150 118 150 90 c 0
 150 62 172 40 200 40 c 0
 228 40 250 62 250 90 c 0
 250 118 228 140 200 140 c 0xec
100 600 m 1xf4
 170 600 l 1
 170 185 l 1xf4
 179 188 190 190 200 190 c 0
 255 190 300 145 300 90 c 0
 300 35 255 -10 200 -10 c 0
 145 -10 100 35 100 90 c 2xec
 100 600 l 1xf4
EndSplineSet
EndChar

StartChar: uni0E41
Encoding: 3649 3649 28
Width: 630
VWidth: 0
Flags: W
HStem: -10 50<156.643 243.357 446.643 533.357> 140 50<170.656 243.357 460.656 533.357> 580 20G<100 170 390 460>
VStem: 100 70<185 600> 100 50<46.7455 133.459> 250 50<46.6431 133.357> 390 70<185 600> 390 50<46.7455 133.459> 540 50<46.6431 133.357>
LayerCount: 2
Fore
SplineSet
490 140 m 0xe580
 462 140 440 118 440 90 c 0
 440 62 462 40 490 40 c 0
 518 40 540 62 540 90 c 0
 540 118 518 140 490 140 c 0xe580
390 600 m 1xe680
 460 600 l 1
 460 185 l 1xe680
 469 188 480 190 490 190 c 0
 545 190 590 145 590 90 c 0
 590 35 545 -10 490 -10 c 0
 435 -10 390 35 390 90 c 2xe580
 390 600 l 1xe680
200 140 m 0
 172 140 150 118 150 90 c 0xec80
 150 62 172 40 200 40 c 0
 228 40 250 62 250 90 c 0
 250 118 228 140 200 140 c 0
100 600 m 1xf480
 170 600 l 1
 170 185 l 1xf480
 179 188 190 190 200 190 c 0
 255 190 300 145 300 90 c 0
 300 35 255 -10 200 -10 c 0
 145 -10 100 35 100 90 c 2xec80
 100 600 l 1xf480
EndSplineSet
EndChar

StartChar: uni0E2A
Encoding: 3626 3626 29
Width: 660
VWidth: 0
Flags: W
HStem: -20 50<177.143 263.357> 130 50<176.65 263.357> 325 55<202.345 379.615> 560 60<219.8 422.315>
VStem: 80 70<104.506 273.816> 90 70<420 502.276> 270 50<36.6431 123.357> 475 75<11.7888 238.441 268 510.287> 530 60<581.42 720>
LayerCount: 2
Fore
SplineSet
550 420 m 2xf3
 550 30 l 2
 550 -6 475 -10 475 -10 c 1
 475 170 l 2
 475 236 387 325 290 325 c 0
 213 325 150 284 150 180 c 0
 150 171 150 161 151 152 c 1
 169 169 193 180 220 180 c 0
 275 180 320 135 320 80 c 0
 320 25 275 -20 220 -20 c 0
 141 -20 80 52 80 180 c 0xfb
 80 316 173 380 280 380 c 0
 376 380 444 328 480 268 c 1
 480 420 l 2
 480 481 445 560 320 560 c 0
 195 560 160 481 160 420 c 1
 90 420 l 1
 90 535 173 620 320 620 c 0
 395 620 453 598 492 562 c 1
 519 592 530 633 530 720 c 1
 590 720 l 1xf680
 590 617 560 558 524 522 c 1
 541 493 550 458 550 420 c 2xf3
220 130 m 0
 192 130 170 108 170 80 c 0
 170 52 192 30 220 30 c 0
 248 30 270 52 270 80 c 0
 270 108 248 130 220 130 c 0
EndSplineSet
Substitution2: "Ascent Substitute" uni0E2A.alt
EndChar

StartChar: uni0E2E
Encoding: 3630 3630 30
Width: 660
VWidth: 0
Flags: W
HStem: -20 65<213.481 431.452> 180 50<170.656 243.357> 330 50<156.643 243.357> 560 60<210.985 418.712>
VStem: 80 70<420 499.531> 100 70<88.1104 185> 100 50<236.541 323.255> 250 50<236.643 323.357> 480 70<92.2284 499.531> 530 60<580.495 720>
LayerCount: 2
Fore
SplineSet
200 380 m 0xf3
 255 380 300 335 300 280 c 0
 300 225 255 180 200 180 c 0
 190 180 179 182 170 185 c 1
 170 160 l 2
 170 95 207 45 325 45 c 0
 443 45 480 105 480 170 c 2
 480 420 l 2xf580
 480 481 440 560 315 560 c 0
 190 560 150 481 150 420 c 1
 80 420 l 1
 80 535 168 620 315 620 c 0
 390 620 450 598 491 560 c 1
 519 591 530 632 530 720 c 1
 590 720 l 1xf940
 590 616 559 557 523 521 c 1
 541 492 550 458 550 420 c 2
 550 170 l 2
 550 34 447 -20 325 -20 c 0
 203 -20 100 24 100 160 c 2xf580
 100 280 l 2
 100 335 145 380 200 380 c 0xf3
200 330 m 0
 172 330 150 308 150 280 c 0xf3
 150 252 172 230 200 230 c 0
 228 230 250 252 250 280 c 0
 250 308 228 330 200 330 c 0
EndSplineSet
Substitution2: "Ascent Substitute" uni0E2E.alt
EndChar

StartChar: uni0E1D
Encoding: 3613 3613 31
Width: 740
VWidth: 0
Flags: W
HStem: 410 45<183.429 266.273> 555 55<181.941 268.525>
VStem: 90 70<53.3472 436> 275 45<463.727 545.652> 560 70<53.3472 840>
LayerCount: 2
Fore
SplineSet
560 840 m 1
 630 840 l 1
 630 600 l 1
 630 110 l 2
 630 70 627 40 604 20 c 0
 582 0 569 -10 490 -10 c 1
 360 250 l 1
 230 -10 l 1
 151 -10 138 0 116 20 c 0
 93 40 90 70 90 110 c 2
 90 440 l 2
 90 549 144 610 220 610 c 0
 276 610 320 566 320 505 c 0
 320 453 277 410 225 410 c 0
 200 410 177 420 160 436 c 1
 160 100 l 2
 160 63 169 54 198 51 c 1
 330 310 l 1
 390 310 l 1
 522 51 l 1
 551 54 560 63 560 100 c 2
 560 600 l 1
 560 840 l 1
225 555 m 0
 197 555 175 533 175 505 c 0
 175 477 197 455 225 455 c 0
 253 455 275 477 275 505 c 0
 275 533 253 555 225 555 c 0
EndSplineSet
EndChar

StartChar: uni0E1A
Encoding: 3610 3610 32
Width: 720
VWidth: 0
Flags: W
HStem: -20 65<297.8 502.2> 410 50<106.643 179.344> 560 50<106.643 193.357> 580 20G<550 620>
VStem: 50 50<466.643 553.357> 180 70<92.2284 415> 200 50<466.541 553.255> 550 70<92.2284 600>
LayerCount: 2
Fore
SplineSet
150 560 m 0xeb
 122 560 100 538 100 510 c 0
 100 482 122 460 150 460 c 0
 178 460 200 482 200 510 c 0
 200 538 178 560 150 560 c 0xeb
550 600 m 1xdd
 620 600 l 1
 620 170 l 2
 620 34 525 -20 400 -20 c 0
 275 -20 180 34 180 170 c 2
 180 415 l 1xdd
 171 412 160 410 150 410 c 0
 95 410 50 455 50 510 c 0
 50 565 95 610 150 610 c 0
 205 610 250 565 250 510 c 2xeb
 250 170 l 2
 250 105 287 45 400 45 c 0
 513 45 550 105 550 170 c 2
 550 600 l 1xdd
EndSplineSet
EndChar

StartChar: uni0E1B
Encoding: 3611 3611 33
Width: 730
VWidth: 0
Flags: W
HStem: -20 65<297.8 502.2> 410 50<106.643 179.344> 560 50<106.643 193.357>
VStem: 50 50<466.643 553.357> 180 70<92.2284 415> 200 50<466.541 553.255> 550 70<92.2284 840>
LayerCount: 2
Fore
SplineSet
550 840 m 1xfa
 620 840 l 1
 620 600 l 1
 620 170 l 2
 620 34 525 -20 400 -20 c 0
 275 -20 180 34 180 170 c 2
 180 415 l 1xfa
 171 412 160 410 150 410 c 0
 95 410 50 455 50 510 c 0
 50 565 95 610 150 610 c 0
 205 610 250 565 250 510 c 2xf6
 250 170 l 2
 250 105 287 45 400 45 c 0
 513 45 550 105 550 170 c 2
 550 600 l 1
 550 840 l 1xfa
150 560 m 0
 122 560 100 538 100 510 c 0
 100 482 122 460 150 460 c 0
 178 460 200 482 200 510 c 0xf6
 200 538 178 560 150 560 c 0
EndSplineSet
EndChar

StartChar: uni0E49
Encoding: 3657 3657 34
Width: 0
VWidth: 0
Flags: W
HStem: 1020 40<-316.204 -239.479 -209 -123.465> 1195 35<-254.656 -195.173>
VStem: -294 34<1130.66 1189.18> -190 36<1129.87 1190.6> -60 60<1112.47 1210>
LayerCount: 2
Fore
SplineSet
-224 1230 m 0
 -186 1230 -154 1199 -154 1160 c 0
 -154 1098 -206 1063 -209 1060 c 1
 -107 1063 -60 1109 -60 1210 c 1
 0 1210 l 1
 0 1080 -60 1020 -220 1020 c 2
 -290 1020 l 2
 -328 1020 -340 1060 -340 1060 c 1
 -284 1060 l 2
 -269 1060 -246 1071 -228 1090 c 1
 -265 1092 -294 1123 -294 1160 c 0
 -294 1199 -263 1230 -224 1230 c 0
-224 1195 m 0
 -244 1195 -260 1179 -260 1160 c 0
 -260 1141 -244 1125 -224 1125 c 0
 -205 1125 -190 1141 -190 1160 c 0
 -190 1179 -205 1195 -224 1195 c 0
EndSplineSet
Substitution2: "Thai Tone & Vowel Above-Narrow" uni0E49.narrow
Position2: "Nikhahit & Tone High-Left" dx=-210 dy=0 dh=0 dv=0
Position2: "Mai Han-Akat & Tone High-Left" dx=-260 dy=0 dh=0 dv=0
Position2: "Tone High-Left" dx=-180 dy=0 dh=0 dv=0
MultipleSubs2: "Tone High-Low" uni0E49.low
EndChar

StartChar: uni0E1C
Encoding: 3612 3612 35
Width: 730
VWidth: 0
Flags: W
HStem: 410 45<183.429 266.273> 555 55<181.941 268.525> 580 20G<560 630>
VStem: 90 70<53.3472 436> 275 45<463.727 545.652> 560 70<53.3472 600>
LayerCount: 2
Fore
SplineSet
220 610 m 0xdc
 276 610 320 566 320 505 c 0
 320 453 277 410 225 410 c 0
 200 410 177 420 160 436 c 1
 160 100 l 2
 160 63 169 54 198 51 c 1
 330 310 l 1
 390 310 l 1
 522 51 l 1
 551 54 560 63 560 100 c 2
 560 600 l 1
 630 600 l 1xbc
 630 110 l 2
 630 70 627 40 604 20 c 0
 582 -0 569 -10 490 -10 c 1
 360 250 l 1
 230 -10 l 1
 151 -10 138 -0 116 20 c 0
 93 40 90 70 90 110 c 2
 90 440 l 2
 90 549 144 610 220 610 c 0xdc
225 555 m 0xdc
 197 555 175 533 175 505 c 0
 175 477 197 455 225 455 c 0
 253 455 275 477 275 505 c 0
 275 533 253 555 225 555 c 0xdc
EndSplineSet
EndChar

StartChar: uni0E1E
Encoding: 3614 3614 36
Width: 770
VWidth: 0
Flags: W
HStem: 410 50<116.643 189.344> 560 50<116.643 203.357> 580 20G<600 670>
VStem: 60 50<466.643 553.357> 190 70<55.7239 415> 210 50<466.541 553.255> 600 70<55.7239 600>
LayerCount: 2
Fore
SplineSet
160 560 m 0xd6
 132 560 110 538 110 510 c 0
 110 482 132 460 160 460 c 0
 188 460 210 482 210 510 c 0
 210 538 188 560 160 560 c 0xd6
600 600 m 1xb6
 670 600 l 1xb6
 670 60 l 2
 670 37 662 17 635 5 c 0
 608 -7 596 -10 565 -10 c 1
 430 415 l 1
 295 -10 l 1
 264 -10 252 -7 225 5 c 0
 198 17 190 37 190 60 c 2
 190 415 l 1
 181 412 170 410 160 410 c 0
 105 410 60 455 60 510 c 0
 60 565 105 610 160 610 c 0xda
 215 610 260 565 260 510 c 2
 260 55 l 1
 401 490 l 1
 406 490 l 1
 454 490 l 1
 459 490 l 1
 600 55 l 1
 600 600 l 1xb6
EndSplineSet
EndChar

StartChar: uni0E1F
Encoding: 3615 3615 37
Width: 780
VWidth: 0
Flags: W
HStem: 410 50<116.643 189.344> 560 50<116.643 203.357>
VStem: 60 50<466.643 553.357> 190 70<55.7239 415> 210 50<466.541 553.255> 600 70<55.7239 840>
LayerCount: 2
Fore
SplineSet
600 840 m 1xec
 670 840 l 1
 670 600 l 1
 670 60 l 2
 670 37 662 17 635 5 c 0
 608 -7 596 -10 565 -10 c 1
 430 415 l 1
 295 -10 l 1
 264 -10 252 -7 225 5 c 0
 198 17 190 37 190 60 c 2
 190 415 l 1xf4
 181 412 170 410 160 410 c 0
 105 410 60 455 60 510 c 0
 60 565 105 610 160 610 c 0
 215 610 260 565 260 510 c 2
 260 55 l 1
 401 490 l 1
 406 490 l 1
 454 490 l 1
 459 490 l 1
 600 55 l 1
 600 600 l 1
 600 840 l 1xec
160 560 m 0
 132 560 110 538 110 510 c 0
 110 482 132 460 160 460 c 0
 188 460 210 482 210 510 c 0xec
 210 538 188 560 160 560 c 0
EndSplineSet
EndChar

StartChar: uni0E30
Encoding: 3632 3632 38
Width: 540
VWidth: 0
Flags: W
HStem: 40 50<193.427 362.829> 245 35<144.974 215.026> 350 50<193.427 362.829> 555 35<144.974 215.026>
VStem: 100 35<165.82 235.026 475.82 545.026> 225 35<164.826 235.026 474.826 545.026> 430 60<157.573 260 467.573 570>
LayerCount: 2
Fore
SplineSet
180 590 m 0
 224 590 260 554 260 510 c 0
 260 468 227 433 185 430 c 1
 208 411 242 400 285 400 c 0
 386 400 430 489 430 570 c 1
 490 570 l 1
 490 454 428 350 285 350 c 0
 205 350 100 404 100 510 c 0
 100 554 136 590 180 590 c 0
180 555 m 0
 155 555 135 535 135 510 c 0
 135 485 155 465 180 465 c 0
 205 465 225 485 225 510 c 0
 225 535 205 555 180 555 c 0
180 280 m 0
 224 280 260 244 260 200 c 0
 260 158 227 123 185 120 c 1
 208 101 242 90 285 90 c 0
 386 90 430 179 430 260 c 1
 490 260 l 1
 490 144 428 40 285 40 c 0
 205 40 100 94 100 200 c 0
 100 244 136 280 180 280 c 0
180 245 m 0
 155 245 135 225 135 200 c 0
 135 175 155 155 180 155 c 0
 205 155 225 175 225 200 c 0
 225 225 205 245 180 245 c 0
EndSplineSet
EndChar

StartChar: uni0E43
Encoding: 3651 3651 39
Width: 400
VWidth: 0
Flags: W
HStem: -10 50<216.643 303.357> 140 50<230.656 303.357> 770 40<80.3364 159.664> 910 40<124 159.609> 970 50<125.852 268.371>
VStem: 30 40<820.336 899.522> 160 70<185 694.126> 160 50<46.7455 133.459> 170 40<820.336 900.015> 300 50<815.148 938.905> 310 50<46.6431 133.357>
LayerCount: 2
Fore
SplineSet
160 600 m 2xfe
 160 737 300 793 300 880 c 0
 300 926 264 970 190 970 c 0
 162 970 140 962 124 950 c 1
 172 948 210 908 210 860 c 0xfcc0
 210 810 170 770 120 770 c 0
 70 770 30 810 30 860 c 0
 30 945 91 1020 190 1020 c 0
 289 1020 350 960 350 880 c 0
 350 768 230 728 230 600 c 2
 230 185 l 1xfe40
 239 188 250 190 260 190 c 0
 315 190 360 145 360 90 c 0
 360 35 315 -10 260 -10 c 0
 205 -10 160 35 160 90 c 2xfd20
 160 600 l 2xfe
120 910 m 0
 92 910 70 888 70 860 c 0
 70 832 92 810 120 810 c 0
 148 810 170 832 170 860 c 0
 170 888 148 910 120 910 c 0
260 140 m 0
 232 140 210 118 210 90 c 0
 210 62 232 40 260 40 c 0
 288 40 310 62 310 90 c 0xfd20
 310 118 288 140 260 140 c 0
EndSplineSet
EndChar

StartChar: uni0E44
Encoding: 3652 3652 40
Width: 400
VWidth: 0
Flags: W
HStem: -10 50<216.643 303.357> 140 50<230.656 303.357> 960 60<40 125.548>
VStem: 160 70<185 714.151> 160 50<46.7455 133.459> 310 50<46.6431 133.357> 340 40<910.201 959.256>
LayerCount: 2
Fore
SplineSet
195 945 m 1xf2
 340 1020 l 1
 356 1020 380 988 380 940 c 0
 380 830 230 768 230 600 c 2
 230 185 l 1xf2
 239 188 250 190 260 190 c 0
 315 190 360 145 360 90 c 0
 360 35 315 -10 260 -10 c 0
 205 -10 160 35 160 90 c 2xec
 160 600 l 2
 160 780 340 880 340 960 c 1
 195 885 l 1
 195 885 116 960 40 960 c 1
 40 1020 l 1
 139 1020 195 945 195 945 c 1xf2
260 140 m 0
 232 140 210 118 210 90 c 0
 210 62 232 40 260 40 c 0
 288 40 310 62 310 90 c 0xec
 310 118 288 140 260 140 c 0
EndSplineSet
EndChar

StartChar: uni0E29
Encoding: 3625 3625 41
Width: 770
VWidth: 0
Flags: W
HStem: -20 65<297.8 502.2> 190 45<431.657 550> 280 30<400 430.496> 390 30<369.334 430.666> 410 50<106.643 179.344> 560 50<106.643 193.357> 580 20G<550 620>
VStem: 50 50<466.643 553.357> 180 70<92.2284 415> 200 50<466.541 553.255> 330 30<320.477 380.666> 440 30<319.334 380.666> 550 70<92.2284 191 259 600> 685 55<297.779 380>
AnchorPoint: "thai_above" 927.82 630 basechar 0
LayerCount: 2
Fore
SplineSet
400 390 m 0xf13c
 378 390 360 372 360 350 c 0
 360 328 378 310 400 310 c 0
 422 310 440 328 440 350 c 0
 440 372 422 390 400 390 c 0xf13c
550 600 m 1xf3bc
 620 600 l 1
 620 259 l 1
 657 283 682 322 685 380 c 1
 740 380 l 1
 739 305 693 239 620 208 c 1
 620 170 l 2
 620 34 525 -20 400 -20 c 0
 275 -20 180 34 180 170 c 2
 180 415 l 1xf3bc
 171 412 160 410 150 410 c 0
 95 410 50 455 50 510 c 0
 50 565 95 610 150 610 c 0
 205 610 250 565 250 510 c 2xed7c
 250 170 l 2
 250 105 287 45 400 45 c 0
 513 45 550 105 550 170 c 2
 550 191 l 1
 542 190 534 190 525 190 c 0
 444 190 330 245 330 350 c 0
 330 389 361 420 400 420 c 0
 439 420 470 389 470 350 c 0
 470 311 439 280 400 280 c 1
 427 253 470 235 525 235 c 0
 534 235 542 235 550 236 c 1
 550 600 l 1xf3bc
150 560 m 0xed7c
 122 560 100 538 100 510 c 0
 100 482 122 460 150 460 c 0
 178 460 200 482 200 510 c 0
 200 538 178 560 150 560 c 0xed7c
EndSplineSet
EndChar

StartChar: uni0E42
Encoding: 3650 3650 42
Width: 400
VWidth: 0
Flags: W
HStem: -10 50<216.643 303.357> 140 50<230.656 303.357> 900 21G<273.5 293> 970 50<102.717 245.639>
VStem: 160 70<185 801.285> 160 50<46.7455 133.459> 310 50<46.6431 133.357>
LayerCount: 2
Fore
SplineSet
10 860 m 1xfa
 10 942 69 1020 170 1020 c 0
 228 1020 266 991 285 970 c 1
 302 989 331 1010 360 1020 c 1
 360 955 l 1
 324 945 301 920 285 900 c 1
 262 933 237 970 170 970 c 0
 111 970 79 926 72 900 c 1
 174 894 230 833 230 600 c 2
 230 185 l 1xfa
 239 188 250 190 260 190 c 0
 315 190 360 145 360 90 c 0
 360 35 315 -10 260 -10 c 0
 205 -10 160 35 160 90 c 2xf6
 160 600 l 2
 160 813 137 860 10 860 c 1xfa
260 140 m 0
 232 140 210 118 210 90 c 0xf6
 210 62 232 40 260 40 c 0
 288 40 310 62 310 90 c 0
 310 118 288 140 260 140 c 0
EndSplineSet
EndChar

StartChar: uni0E21
Encoding: 3617 3617 43
Width: 660
VWidth: 0
Flags: W
HStem: -20 55<124.191 215.809> 145 55<124.191 189.239> 410 50<116.643 189.344> 560 50<116.643 203.357> 580 20G<490 560>
VStem: 60 55<44.1911 135.809 464.225 555.775> 190 70<198 415> 210 50<466.541 553.255> 225 55<44.1911 132.354> 490 70<49.8217 600>
LayerCount: 2
Fore
SplineSet
160 560 m 0xf540
 132 560 110 538 110 510 c 0
 110 482 132 460 160 460 c 0
 188 460 210 482 210 510 c 0
 210 538 188 560 160 560 c 0xf540
490 600 m 1xed40
 560 600 l 1
 560 60 l 2
 560 15 533 -10 470 -10 c 1
 446 31 372 109 271 133 c 1
 277 120 280 105 280 90 c 0xecc0
 280 29 231 -20 170 -20 c 0
 109 -20 60 29 60 90 c 0
 60 151 109 200 170 200 c 0
 177 200 184 199 190 198 c 1
 190 415 l 1
 181 412 170 410 160 410 c 0
 105 410 60 455 60 510 c 0
 60 565 105 610 160 610 c 0xf640
 215 610 260 565 260 510 c 2
 260 190 l 1
 363 172 452 100 490 48 c 1
 490 600 l 1xed40
170 145 m 0
 140 145 115 120 115 90 c 0
 115 60 140 35 170 35 c 0
 200 35 225 60 225 90 c 0
 225 120 200 145 170 145 c 0
EndSplineSet
EndChar

StartChar: uni0E06
Encoding: 3590 3590 44
Width: 690
VWidth: 0
Flags: W
HStem: -20 55<154.191 245.809> 145 55<154.191 230.603> 320 40<143.065 217.114> 450 40<142.684 217.114> 570 40<140.217 214.559> 580 20G<520 590>
VStem: 70 45<460 544.758> 90 55<44.1911 135.809> 225 40<367.886 442.114> 230 70<196 275.922> 255 55<44.1911 132.354> 365 55<381.398 552.773> 520 70<49.8217 600>
LayerCount: 2
Fore
SplineSet
520 600 m 1xf458
 590 600 l 1
 590 60 l 2
 590 15 563 -10 500 -10 c 1
 476 31 402 109 301 133 c 1
 307 120 310 105 310 90 c 0xf438
 310 29 261 -20 200 -20 c 0
 139 -20 90 29 90 90 c 0
 90 151 139 200 200 200 c 0
 210 200 220 199 230 196 c 1
 230 200 l 2xf558
 230 322 365 345 365 460 c 0
 365 503 355 546 325 568 c 1
 275 500 l 1
 235 500 l 1
 228 532 213 570 180 570 c 0
 135 570 116 519 115 460 c 1
 131 478 154 490 180 490 c 0
 227 490 265 452 265 405 c 0xfa98
 265 358 227 320 180 320 c 0
 109 320 70 387 70 465 c 0
 70 522 101 610 180 610 c 0
 226 610 253 577 266 545 c 1
 310 610 l 1
 329 610 l 1xfa38
 380 589 420 530 420 460 c 0
 420 326 300 308 300 200 c 2
 300 188 l 1
 399 167 483 99 520 48 c 1
 520 600 l 1xf458
200 145 m 0
 170 145 145 120 145 90 c 0xf138
 145 60 170 35 200 35 c 0
 230 35 255 60 255 90 c 0
 255 120 230 145 200 145 c 0
180 450 m 0
 155 450 135 430 135 405 c 0
 135 380 155 360 180 360 c 0
 205 360 225 380 225 405 c 0xf098
 225 430 205 450 180 450 c 0
EndSplineSet
EndChar

StartChar: uni0E31
Encoding: 3633 3633 45
Width: 0
VWidth: 0
Flags: W
HStem: 720 50<-276.573 -107.171> 925 35<-325.026 -254.974>
VStem: -370 35<845.82 915.026> -245 35<844.826 915.026> -40 60<837.573 940>
LayerCount: 2
Fore
SplineSet
-290 960 m 0
 -246 960 -210 924 -210 880 c 0
 -210 838 -243 803 -285 800 c 1
 -262 781 -228 770 -185 770 c 0
 -84 770 -40 859 -40 940 c 1
 20 940 l 1
 20 824 -42 720 -185 720 c 0
 -265 720 -370 774 -370 880 c 0
 -370 924 -334 960 -290 960 c 0
-290 925 m 0
 -315 925 -335 905 -335 880 c 0
 -335 855 -315 835 -290 835 c 0
 -265 835 -245 855 -245 880 c 0
 -245 905 -265 925 -290 925 c 0
EndSplineSet
Substitution2: "Thai Tone & Vowel Above-Narrow" uni0E31.narrow
Position2: "Vowel Above-Left" dx=-240 dy=0 dh=0 dv=0
EndChar

StartChar: uni0E4C
Encoding: 3660 3660 46
Width: 0
VWidth: 0
Flags: W
HStem: 980 35<-248.827 -189.344>
VStem: -290 36<1019.4 1079.79> -184 34<1020.82 1079.24> -154 64<1175.54 1220>
LayerCount: 2
Fore
SplineSet
-220 1085 m 0xe0
 -239 1085 -254 1069 -254 1050 c 0
 -254 1031 -239 1015 -220 1015 c 0
 -200 1015 -184 1031 -184 1050 c 0
 -184 1069 -200 1085 -220 1085 c 0xe0
-154 1220 m 1xd0
 -90 1220 l 1xd0
 -90 1160 -145 1138 -189 1113 c 1
 -165 1101 -150 1078 -150 1050 c 0xe0
 -150 1011 -181 980 -220 980 c 0
 -258 980 -290 1011 -290 1050 c 0
 -290 1134 -154 1158 -154 1220 c 1xd0
EndSplineSet
Position2: "Tone High-Left" dx=-140 dy=0 dh=0 dv=0
MultipleSubs2: "Tone High-Low" uni0E4C.low
EndChar

StartChar: uni0E39
Encoding: 3641 3641 47
Width: 0
VWidth: 0
Flags: W
HStem: -350 55<-271.326 -168.674> -240 40<-397.114 -340.354> -110 40<-397.114 -322.886>
VStem: -445 40<-192.114 -117.886> -340 65<-288.25 -238> -315 40<-192.354 -118.125> -165 65<-288.25 -80>
LayerCount: 2
Fore
SplineSet
-340 -238 m 1xfa
 -346 -239 -353 -240 -360 -240 c 0
 -407 -240 -445 -202 -445 -155 c 0
 -445 -108 -407 -70 -360 -70 c 0
 -313 -70 -275 -108 -275 -155 c 2xf6
 -275 -260 l 2
 -275 -276 -255 -295 -220 -295 c 0
 -185 -295 -165 -276 -165 -260 c 2
 -165 -80 l 1
 -100 -80 l 1
 -100 -260 l 2
 -100 -285 -106 -350 -220 -350 c 0
 -334 -350 -340 -285 -340 -260 c 2
 -340 -238 l 1xfa
-360 -110 m 0
 -385 -110 -405 -130 -405 -155 c 0
 -405 -180 -385 -200 -360 -200 c 0
 -335 -200 -315 -180 -315 -155 c 0
 -315 -130 -335 -110 -360 -110 c 0
EndSplineSet
Position2: "Vowel Below-Low" dx=0 dy=-200 dh=0 dv=0
EndChar

StartChar: uni0E03
Encoding: 3587 3587 48
Width: 690
VWidth: 0
Flags: W
HStem: -20 60<327.94 492.06> 320 40<143.065 217.114> 450 40<142.684 217.114> 570 40<140.217 214.559> 580 20G<520 590>
VStem: 70 45<460 544.758> 225 40<367.886 442.114> 230 70<68.9928 275.922> 365 55<381.398 552.773> 520 70<68.9928 600>
LayerCount: 2
Fore
SplineSet
300 130 m 2xf5c0
 300 83 332 40 410 40 c 0
 488 40 520 83 520 130 c 2
 520 600 l 1
 590 600 l 1
 590 130 l 2
 590 92 571 -20 410 -20 c 0
 249 -20 230 92 230 130 c 2
 230 200 l 2xedc0
 230 322 365 345 365 460 c 0
 365 503 355 546 325 568 c 1
 275 500 l 1
 235 500 l 1
 228 532 213 570 180 570 c 0
 135 570 116 519 115 460 c 1
 131 478 154 490 180 490 c 0
 227 490 265 452 265 405 c 0xf6c0
 265 358 227 320 180 320 c 0
 109 320 70 387 70 465 c 0
 70 522 101 610 180 610 c 0
 226 610 253 577 266 545 c 1
 310 610 l 1
 329 610 l 1
 380 589 420 530 420 460 c 0
 420 326 300 308 300 200 c 2
 300 130 l 2xf5c0
180 450 m 0
 155 450 135 430 135 405 c 0
 135 380 155 360 180 360 c 0
 205 360 225 380 225 405 c 0xe6c0
 225 430 205 450 180 450 c 0
EndSplineSet
EndChar

StartChar: uni0E22
Encoding: 3618 3618 49
Width: 660
VWidth: 0
Flags: W
HStem: -20 65<201.439 447.649> 270 60<200.671 320> 410 45<204.048 286.273> 555 55<200.936 288.417> 580 20G<490 560>
VStem: 80 70<91.0246 224.512 372.052 486.176> 295 45<463.727 546.365> 490 70<80.2419 600>
LayerCount: 2
Fore
SplineSet
245 555 m 0xf7
 217 555 195 533 195 505 c 0
 195 477 217 455 245 455 c 0
 273 455 295 477 295 505 c 0
 295 533 273 555 245 555 c 0xf7
490 600 m 1xef
 560 600 l 1xef
 560 80 l 2
 560 57 459 -20 320 -20 c 0
 179 -20 80 43 80 160 c 0
 80 223 118 271 177 300 c 1
 115 330 80 382 80 445 c 0
 80 548 151 610 225 610 c 0xf7
 301 610 340 553 340 505 c 0
 340 453 297 410 245 410 c 0
 199 410 160 443 152 487 c 1
 147 474 145 460 145 445 c 0
 145 362 227 330 320 330 c 1
 320 270 l 1
 209 270 150 228 150 160 c 0
 150 96 200 45 320 45 c 0
 418 45 468 79 490 100 c 1
 490 600 l 1xef
EndSplineSet
EndChar

StartChar: uni0E46
Encoding: 3654 3654 50
Width: 660
VWidth: 0
Flags: W
HStem: -290 60<330 418.397> 290 45<181.979 257.842> 425 45<181.24 257.842> 565 55<175.397 273.029>
VStem: 90 60<438.401 539.136> 265 45<342.158 417.842> 460 70<-190.791 546.739>
LayerCount: 2
Fore
SplineSet
220 470 m 0
 270 470 310 430 310 380 c 0
 310 330 270 290 220 290 c 0
 122 290 90 385 90 460 c 0
 90 524 135 620 225 620 c 0
 287 620 321 577 337 535 c 1
 393 620 l 1
 419 620 l 1
 494 600 530 532 530 450 c 2
 530 -100 l 2
 530 -217 477 -290 330 -290 c 1
 330 -230 l 1
 391 -230 460 -213 460 -100 c 2
 460 450 l 2
 460 499 451 544 415 565 c 1
 350 470 l 1
 295 470 l 1
 295 514 269 565 225 565 c 0
 175 565 150 508 150 460 c 0
 150 452 150 445 151 438 c 1
 167 457 192 470 220 470 c 0
220 425 m 0
 195 425 175 405 175 380 c 0
 175 355 195 335 220 335 c 0
 245 335 265 355 265 380 c 0
 265 405 245 425 220 425 c 0
EndSplineSet
EndChar

StartChar: uni0E47
Encoding: 3655 3655 51
Width: 0
VWidth: 0
Flags: W
HStem: 690 35<-287.127 -201.693> 780 20G<-362.759 -310> 835 30<-223.338 -166.662> 920 45<-417.7 -199.297>
VStem: -500 55<763.481 896.78> -260 30<771.676 828.338> -175 55<985.201 1050> -160 30<771.988 828.338>
LayerCount: 2
Fore
SplineSet
-195 865 m 0xfe
 -159 865 -130 836 -130 800 c 0xfd
 -130 739 -172 690 -240 690 c 0
 -287 690 -322 714 -339 749 c 1
 -370 695 l 1
 -452 695 -500 758 -500 830 c 0
 -500 902 -452 965 -370 965 c 2
 -250 965 l 2
 -198 965 -175 1011 -175 1050 c 1
 -120 1050 l 1
 -120 978 -168 920 -240 920 c 2
 -370 920 l 2
 -418 920 -445 869 -445 830 c 0
 -445 796 -424 753 -387 742 c 1
 -350 800 l 1
 -310 800 l 1
 -310 772 -296 725 -240 725 c 0
 -224 725 -211 729 -201 735 c 1
 -234 738 -260 766 -260 800 c 0
 -260 836 -231 865 -195 865 c 0xfe
-195 835 m 0
 -214 835 -230 819 -230 800 c 0
 -230 781 -214 765 -195 765 c 0
 -176 765 -160 781 -160 800 c 0
 -160 819 -176 835 -195 835 c 0
EndSplineSet
Substitution2: "Thai Tone & Vowel Above-Narrow" uni0E47.narrow
Position2: "Vowel Above-Left" dx=-180 dy=0 dh=0 dv=0
EndChar

StartChar: uni0E0B
Encoding: 3595 3595 52
Width: 710
VWidth: 0
Flags: W
HStem: -20 60<327.94 492.06> 320 40<143.065 217.114> 450 40<142.684 217.114> 570 40<140.217 214.559>
VStem: 70 45<460 544.758> 225 40<367.886 442.114> 230 70<68.9928 275.922> 520 70<68.9928 398.039> 570 70<603.059 720>
LayerCount: 2
Fore
SplineSet
449 460 m 1xfc80
 510 440 590 406 590 370 c 2
 590 130 l 2
 590 92 571 -20 410 -20 c 0
 249 -20 230 92 230 130 c 2
 230 200 l 2xfb
 230 322 365 345 365 460 c 0
 365 503 355 546 325 568 c 1
 275 500 l 1
 235 500 l 1
 228 532 213 570 180 570 c 0
 135 570 116 519 115 460 c 1
 131 478 154 490 180 490 c 0
 227 490 265 452 265 405 c 0
 265 358 227 320 180 320 c 0
 109 320 70 387 70 465 c 0
 70 522 101 610 180 610 c 0
 226 610 253 577 266 545 c 1
 310 610 l 1
 329 610 l 1
 372 592 408 547 417 491 c 1
 509 515 570 608 570 720 c 1
 640 720 l 1
 640 579 557 489 449 460 c 1xfc80
180 450 m 0
 155 450 135 430 135 405 c 0
 135 380 155 360 180 360 c 0
 205 360 225 380 225 405 c 0xfc
 225 430 205 450 180 450 c 0
300 130 m 2xfb
 300 83 332 40 410 40 c 0
 488 40 520 83 520 130 c 2
 520 370 l 2
 520 394 459 417 418 429 c 1
 401 322 300 299 300 200 c 2
 300 130 l 2xfb
EndSplineSet
Substitution2: "Ascent Substitute" uni0E0B.alt
EndChar

StartChar: uni0E02
Encoding: 3586 3586 53
Width: 660
VWidth: 0
Flags: W
HStem: -20 60<297.94 462.06> 350 40<128.483 202.114> 480 40<127.739 202.114> 560 50<147.424 283.721> 580 20G<490 560>
VStem: 70 50<395.772 504.475> 200 70<68.9928 292.012> 210 40<397.886 472.114> 315 55<378.028 529.416> 490 70<68.9928 600>
LayerCount: 2
Fore
SplineSet
215 610 m 0xf5c0
 322 610 370 530 370 460 c 0
 370 338 270 319 270 200 c 2
 270 130 l 2
 270 83 302 40 380 40 c 0
 458 40 490 83 490 130 c 2
 490 600 l 1
 560 600 l 1
 560 130 l 2
 560 92 541 -20 380 -20 c 0
 219 -20 200 92 200 130 c 2
 200 200 l 2xeec0
 200 336 315 344 315 460 c 0
 315 513 281 560 215 560 c 0
 179 560 143 541 125 510 c 1
 137 516 150 520 165 520 c 0
 212 520 250 482 250 435 c 0
 250 388 212 350 165 350 c 0
 105 350 70 400 70 460 c 0
 70 541 126 610 215 610 c 0xf5c0
165 480 m 0
 140 480 120 460 120 435 c 0
 120 410 140 390 165 390 c 0
 190 390 210 410 210 435 c 0xe5c0
 210 460 190 480 165 480 c 0
EndSplineSet
EndChar

StartChar: uni0E0A
Encoding: 3594 3594 54
Width: 680
VWidth: 0
Flags: W
HStem: -20 60<297.94 462.06> 350 40<128.483 202.114> 480 40<127.739 202.114> 560 50<147.424 283.122>
VStem: 70 50<395.772 504.475> 200 70<68.9928 293.087> 210 40<397.886 472.114> 490 70<68.9928 398.039> 540 70<603.059 720>
LayerCount: 2
Fore
SplineSet
490 370 m 2xfd
 490 398 407 424 369 435 c 1
 356 335 270 310 270 200 c 2
 270 130 l 2
 270 83 302 40 380 40 c 0
 458 40 490 83 490 130 c 2
 490 370 l 2xfd
419 460 m 1
 480 440 560 406 560 370 c 2
 560 130 l 2
 560 92 541 -20 380 -20 c 0
 219 -20 200 92 200 130 c 2
 200 200 l 2xfd
 200 336 315 344 315 460 c 0
 315 513 281 560 215 560 c 0
 179 560 143 541 125 510 c 1
 137 516 150 520 165 520 c 0
 212 520 250 482 250 435 c 0
 250 388 212 350 165 350 c 0
 105 350 70 400 70 460 c 0
 70 541 126 610 215 610 c 0
 308 610 357 549 368 487 c 1
 470 502 540 600 540 720 c 1
 610 720 l 1xfa80
 610 579 527 489 419 460 c 1
165 480 m 0
 140 480 120 460 120 435 c 0
 120 410 140 390 165 390 c 0
 190 390 210 410 210 435 c 0xfa
 210 460 190 480 165 480 c 0
EndSplineSet
Substitution2: "Ascent Substitute" uni0E0A.alt
EndChar

StartChar: uni0E19
Encoding: 3609 3609 55
Width: 690
VWidth: 0
Flags: W
HStem: -20 55<454.191 545.809> 410 50<116.643 189.344> 560 50<116.643 203.357> 580 20G<490 560>
VStem: 60 50<466.643 553.357> 190 70<65 415> 210 50<466.541 553.255> 390 55<44.1911 122.638> 490 70<205.305 600> 555 55<44.1911 136.368>
LayerCount: 2
Fore
SplineSet
395 123 m 1xd940
 336 85 289 25 270 -10 c 1
 207 -10 190 15 190 60 c 2
 190 415 l 1xdd40
 181 412 170 410 160 410 c 0
 105 410 60 455 60 510 c 0
 60 565 105 610 160 610 c 0
 215 610 260 565 260 510 c 2xeb
 260 65 l 1
 301 127 398 202 490 209 c 1
 490 600 l 1
 560 600 l 1
 560 200 l 1xdd80
 546 190 l 1
 584 173 610 134 610 90 c 0
 610 29 561 -20 500 -20 c 0
 439 -20 390 29 390 90 c 0
 390 102 392 113 395 123 c 1xd940
160 560 m 0xeb
 132 560 110 538 110 510 c 0
 110 482 132 460 160 460 c 0
 188 460 210 482 210 510 c 0
 210 538 188 560 160 560 c 0xeb
500 145 m 0
 470 145 445 120 445 90 c 0
 445 60 470 35 500 35 c 0
 530 35 555 60 555 90 c 0xc940
 555 120 530 145 500 145 c 0
EndSplineSet
EndChar

StartChar: uni0E23
Encoding: 3619 3619 56
Width: 570
VWidth: 0
Flags: W
HStem: -10 50<282.081 377.919> 160 50<282.081 369.323> 400 45<130 303.875> 550 60<458.177 500> 565 55<189.965 376.086>
VStem: 220 50<52.0811 147.919> 370 70<203 372.231> 390 50<52.2021 148.04>
LayerCount: 2
Fore
SplineSet
60 400 m 1xee
 60 531 150 620 280 620 c 0xee
 353 620 404 580 435 550 c 1
 443 568 473 610 500 610 c 1
 500 550 l 1xf6
 477 550 447 515 435 495 c 1
 397 533 343 565 280 565 c 0
 186 565 133 498 130 445 c 1
 333 445 440 440 440 320 c 2xee
 440 100 l 2xed
 440 39 391 -10 330 -10 c 0
 269 -10 220 39 220 100 c 0
 220 161 269 210 330 210 c 0
 344 210 358 207 370 203 c 1
 370 320 l 2
 370 396 297 400 60 400 c 1xee
330 160 m 0
 297 160 270 133 270 100 c 0
 270 67 297 40 330 40 c 0
 363 40 390 67 390 100 c 0xe5
 390 133 363 160 330 160 c 0
EndSplineSet
EndChar

StartChar: uni0E07
Encoding: 3591 3591 57
Width: 560
VWidth: 0
Flags: W
HStem: 315 55<60 131.49> 410 50<316.643 389.344> 560 50<316.643 403.357>
VStem: 260 50<466.643 553.357> 390 70<38.5947 415> 410 50<466.541 553.255>
LayerCount: 2
Fore
SplineSet
390 37 m 1xf8
 390 415 l 1xf8
 381 412 370 410 360 410 c 0
 305 410 260 455 260 510 c 0
 260 565 305 610 360 610 c 0
 415 610 460 565 460 510 c 2xf4
 460 60 l 2
 460 15 413 -10 350 -10 c 1
 206 239 135 315 60 315 c 1
 60 370 l 1
 166 370 247 282 390 37 c 1xf8
360 560 m 0
 332 560 310 538 310 510 c 0
 310 482 332 460 360 460 c 0
 388 460 410 482 410 510 c 0xf4
 410 538 388 560 360 560 c 0
EndSplineSet
EndChar

StartChar: uni0E0E
Encoding: 3598 3598 58
Width: 700
VWidth: 0
Flags: W
HStem: -300 40<196.765 317.172> -160 40<196.765 336.332> -10 50<136.643 223.357> 140 50<136.643 193.795> 410 10<316.065 330> 560 60<256.382 458.962>
VStem: 80 50<46.6431 133.357> 140 46<-250.001 -169.999> 180 70<189.711 375.674> 230 50<46.6431 132.928> 365 50<-149.531 -120> 520 70<-255.962 499.385>
LayerCount: 2
Fore
SplineSet
360 620 m 0xfeb0
 495 620 590 545 590 410 c 2
 590 0 l 1
 590 -240 l 2
 590 -278 531 -290 490 -290 c 1
 460 -261 428 -234 397 -213 c 1
 372 -266 324 -300 250 -300 c 0xfeb0
 189 -300 140 -265 140 -210 c 0xff30
 140 -155 189 -120 250 -120 c 0
 287 -120 326 -131 363 -150 c 1
 364 -140 365 -130 365 -120 c 1
 415 -120 l 1
 415 -139 413 -158 409 -175 c 1
 448 -199 486 -228 520 -257 c 1
 520 0 l 1
 520 410 l 2
 520 492 472 560 360 560 c 0
 266 560 203 511 182 450 c 1
 330 420 l 1
 330 410 l 1
 330 410 250 393 250 300 c 2
 250 260 l 2xfeb0
 250 199 280 176 280 90 c 0xfe70
 280 35 235 -10 180 -10 c 0
 125 -10 80 35 80 90 c 0
 80 145 125 190 180 190 c 0
 185 190 189 190 194 189 c 1
 188 204 180 230 180 260 c 2
 180 300 l 2
 180 362 210 389 233 401 c 1
 110 430 l 1
 118 484 193 620 360 620 c 0xfeb0
180 140 m 0
 152 140 130 118 130 90 c 0
 130 62 152 40 180 40 c 0xfeb0
 208 40 230 62 230 90 c 0xfe70
 230 118 208 140 180 140 c 0
250 -260 m 0
 302 -260 338 -234 354 -188 c 1
 319 -170 284 -160 250 -160 c 0xfeb0
 222 -160 186 -170 186 -210 c 0xff30
 186 -250 222 -260 250 -260 c 0
EndSplineSet
Substitution2: "Descent Shorten" uni0E0E.shorten
EndChar

StartChar: uni0E2B
Encoding: 3627 3627 59
Width: 700
VWidth: 0
Flags: W
HStem: 0 21G<180 255 510 580> 395 65<478.872 510> 410 50<106.643 179.344> 560 50<106.643 193.357 476.643 563.357>
VStem: 50 50<466.643 553.357> 180 70<0 153.21 215 415> 200 50<466.541 553.255> 420 50<466.695 553.357> 510 70<0 395> 570 50<467.016 553.357>
LayerCount: 2
Fore
SplineSet
150 560 m 0xbb
 122 560 100 538 100 510 c 0
 100 482 122 460 150 460 c 0
 178 460 200 482 200 510 c 0
 200 538 178 560 150 560 c 0xbb
520 610 m 0
 575 610 620 565 620 510 c 0xbd40
 620 468 594 431 556 417 c 1
 564 411 572 406 580 400 c 1
 580 0 l 1
 510 0 l 1
 510 395 l 1
 423 395 255 169 255 90 c 2
 255 0 l 1
 180 0 l 1
 180 415 l 1xdd80
 171 412 160 410 150 410 c 0
 95 410 50 455 50 510 c 0
 50 565 95 610 150 610 c 0
 205 610 250 565 250 510 c 2xbb
 250 215 l 1xbd
 284 273 372 393 461 429 c 1
 436 448 420 477 420 510 c 0
 420 565 465 610 520 610 c 0
520 560 m 0
 492 560 470 538 470 510 c 0
 470 482 492 460 520 460 c 0
 548 460 570 482 570 510 c 0
 570 538 548 560 520 560 c 0
EndSplineSet
EndChar

StartChar: uni0E3A
Encoding: 3642 3642 60
Width: 0
VWidth: 0
Flags: W
HStem: -200 120<-199.98 -100.02>
VStem: -210 120<-189.98 -90.0195>
LayerCount: 2
Fore
SplineSet
-90 -140 m 0
 -90 -174 -116 -200 -150 -200 c 0
 -184 -200 -210 -174 -210 -140 c 0
 -210 -106 -184 -80 -150 -80 c 0
 -116 -80 -90 -106 -90 -140 c 0
EndSplineSet
Position2: "Vowel Below-Low" dx=0 dy=-200 dh=0 dv=0
EndChar

StartChar: uni0E53
Encoding: 3667 3667 61
Width: 850
VWidth: 0
Flags: W
HStem: -20 60<261.244 378.316> 0 21G<680 750> 200 60<260.983 378.316> 560 60<236.444 361.994>
VStem: 90 70<144.463 455.966> 400 60<61.6844 178.316> 680 70<0 509.568>
LayerCount: 2
Fore
SplineSet
300 560 m 0x7e
 217 560 160 444 160 300 c 0
 160 230 168 178 181 140 c 1
 191 208 249 260 320 260 c 0
 397 260 460 197 460 120 c 0
 460 43 397 -20 320 -20 c 0xbe
 206 -20 90 74 90 300 c 0
 90 485 180 620 300 620 c 0
 390 620 449 556 471 440 c 1
 565 620 l 1
 600 620 l 1
 712 593 750 509 750 360 c 2
 750 0 l 1
 680 0 l 1
 680 360 l 2
 680 484 652 538 600 560 c 1
 480 330 l 1
 420 330 l 1
 420 474 378 560 300 560 c 0x7e
320 200 m 0
 276 200 240 164 240 120 c 0
 240 76 276 40 320 40 c 0
 364 40 400 76 400 120 c 0
 400 164 364 200 320 200 c 0
EndSplineSet
EndChar

StartChar: uni0E24
Encoding: 3620 3620 62
Width: 680
VWidth: 0
Flags: W
HStem: -10 50<196.643 283.357> 140 50<210.656 283.357> 410 10<281.679 300> 560 60<234.877 438.962>
VStem: 140 70<185 371.211> 140 50<46.7455 133.459> 290 50<46.6431 133.357> 500 70<-270 499.385>
LayerCount: 2
Fore
SplineSet
240 190 m 0xfb
 295 190 340 145 340 90 c 0
 340 35 295 -10 240 -10 c 0
 185 -10 140 35 140 90 c 2xf7
 140 290 l 2
 140 350 165 390 189 405 c 1
 90 430 l 1
 98 484 173 620 340 620 c 0
 475 620 570 545 570 410 c 2
 570 0 l 1
 570 -270 l 1
 500 -270 l 1
 500 0 l 1
 500 410 l 2
 500 492 452 560 340 560 c 0
 246 560 183 513 162 450 c 1
 300 420 l 1
 300 410 l 1
 299 410 l 1
 287 409 210 389 210 290 c 2
 210 185 l 1
 219 188 230 190 240 190 c 0xfb
240 140 m 0
 212 140 190 118 190 90 c 0
 190 62 212 40 240 40 c 0
 268 40 290 62 290 90 c 0
 290 118 268 140 240 140 c 0
EndSplineSet
EndChar

StartChar: uni0E26
Encoding: 3622 3622 63
Width: 700
VWidth: 0
Flags: W
HStem: -10 50<136.643 223.357> 140 50<136.643 193.795> 410 10<316.065 330> 560 60<256.382 458.962>
VStem: 80 50<46.6431 133.357> 180 70<189.711 375.674> 230 50<46.6431 132.928> 520 70<-270 499.385>
LayerCount: 2
Fore
SplineSet
360 620 m 0xfd
 495 620 590 545 590 410 c 2
 590 0 l 1
 590 -270 l 1
 520 -270 l 1
 520 0 l 1
 520 410 l 2
 520 492 472 560 360 560 c 0
 266 560 203 511 182 450 c 1
 330 420 l 1
 330 410 l 1
 330 410 250 393 250 300 c 2
 250 260 l 2xfd
 250 199 280 176 280 90 c 0xfb
 280 35 235 -10 180 -10 c 0
 125 -10 80 35 80 90 c 0
 80 145 125 190 180 190 c 0
 185 190 189 190 194 189 c 1
 188 204 180 230 180 260 c 2
 180 300 l 2
 180 362 210 389 233 401 c 1
 110 430 l 1
 118 484 193 620 360 620 c 0xfd
180 140 m 0
 152 140 130 118 130 90 c 0
 130 62 152 40 180 40 c 0xfd
 208 40 230 62 230 90 c 0xfb
 230 118 208 140 180 140 c 0
EndSplineSet
EndChar

StartChar: uni0E45
Encoding: 3653 3653 64
Width: 320
VWidth: 0
Flags: W
HStem: 560 60<-53.9503 103.95>
VStem: -180 70<410 500.299> 160 70<-270 500.299>
LayerCount: 2
Fore
SplineSet
230 0 m 1
 230 -270 l 1
 160 -270 l 1
 160 0 l 1
 160 410 l 2
 160 481 121 560 25 560 c 0
 -71 560 -110 481 -110 410 c 1
 -180 410 l 1
 -180 535 -96 620 25 620 c 0
 146 620 230 535 230 410 c 2
 230 0 l 1
EndSplineSet
EndChar

StartChar: uni0E50
Encoding: 3664 3664 65
Width: 800
VWidth: 0
Flags: W
HStem: -20 60<290 510> 560 60<290 510>
VStem: 90 70<175.608 424.392> 640 70<175.608 424.392>
LayerCount: 2
Fore
SplineSet
160 300 m 0
 160 156 248 40 400 40 c 0
 552 40 640 156 640 300 c 0
 640 444 552 560 400 560 c 0
 248 560 160 444 160 300 c 0
90 300 m 0
 90 477 208 620 400 620 c 0
 592 620 710 477 710 300 c 0
 710 123 592 -20 400 -20 c 0
 208 -20 90 123 90 300 c 0
EndSplineSet
EndChar

StartChar: uni0E27
Encoding: 3623 3623 66
Width: 560
VWidth: 0
Flags: W
HStem: -10 50<302.081 397.919> 160 50<302.081 389.323> 560 60<155.666 334.334>
VStem: 30 70<420 504.26> 240 50<52.0811 147.919> 390 70<203 504.26> 410 50<52.2021 148.04>
LayerCount: 2
Fore
SplineSet
390 203 m 1xfc
 390 420 l 2
 390 476 358 560 245 560 c 0
 132 560 100 476 100 420 c 1
 30 420 l 1
 30 535 114 620 245 620 c 0
 376 620 460 535 460 420 c 2xfc
 460 100 l 2xfa
 460 39 411 -10 350 -10 c 0
 289 -10 240 39 240 100 c 0
 240 161 289 210 350 210 c 0
 364 210 378 207 390 203 c 1xfc
350 160 m 0
 317 160 290 133 290 100 c 0
 290 67 317 40 350 40 c 0
 383 40 410 67 410 100 c 0xfa
 410 133 383 160 350 160 c 0
EndSplineSet
EndChar

StartChar: uni0E17
Encoding: 3607 3607 67
Width: 690
VWidth: 0
Flags: W
HStem: 0 21G<180 255 520 590> 410 50<106.643 179.344> 545 65<392.794 501.795> 560 50<106.643 193.357>
VStem: 50 50<466.643 553.357> 180 70<0 276.266 328 415> 200 50<466.541 553.255> 520 70<0 527.728>
LayerCount: 2
Fore
SplineSet
180 415 m 1xed
 171 412 160 410 150 410 c 0
 95 410 50 455 50 510 c 0
 50 565 95 610 150 610 c 0
 205 610 250 565 250 510 c 2xdb
 250 328 l 1
 266 406 325 610 465 610 c 0
 526 610 590 571 590 410 c 2
 590 0 l 1
 520 0 l 1
 520 410 l 2
 520 503 504 545 454 545 c 0
 330 545 272 273 255 180 c 1
 255 0 l 1
 180 0 l 1
 180 415 l 1xed
150 560 m 0
 122 560 100 538 100 510 c 0
 100 482 122 460 150 460 c 0
 178 460 200 482 200 510 c 0
 200 538 178 560 150 560 c 0
EndSplineSet
EndChar

StartChar: uni0E2C
Encoding: 3628 3628 68
Width: 810
VWidth: 0
Flags: W
HStem: 410 50<116.643 189.344> 450 50<536.643 599.672> 560 50<116.643 203.357> 600 50<536.643 623.054>
VStem: 60 50<466.643 553.357> 190 70<55.7239 415> 210 50<466.541 553.255> 480 50<506.643 593.357> 600 70<55.7239 452> 630 50<553 593.103> 700 50<554.661 670>
AnchorPoint: "thai_above" 887.82 630 basechar 0
LayerCount: 2
Fore
SplineSet
670 475 m 1x59a0
 670 60 l 2
 670 37 662 17 635 5 c 0
 608 -7 596 -10 565 -10 c 1
 430 415 l 1
 295 -10 l 1
 264 -10 252 -7 225 5 c 0
 198 17 190 37 190 60 c 2
 190 415 l 1x5da0
 181 412 170 410 160 410 c 0
 105 410 60 455 60 510 c 0
 60 565 105 610 160 610 c 0
 215 610 260 565 260 510 c 2
 260 55 l 1
 401 490 l 1
 406 490 l 1
 454 490 l 1
 459 490 l 1
 600 55 l 1
 600 452 l 1xaba0
 594 451 587 450 580 450 c 0
 525 450 480 495 480 550 c 0
 480 605 525 650 580 650 c 0
 634 650 679 607 680 553 c 1x5960
 693 580 700 619 700 670 c 1
 750 670 l 1
 750 581 722 508 670 475 c 1x59a0
580 600 m 0
 552 600 530 578 530 550 c 0
 530 522 552 500 580 500 c 0
 608 500 630 522 630 550 c 0x5960
 630 578 608 600 580 600 c 0
160 560 m 0xab20
 132 560 110 538 110 510 c 0
 110 482 132 460 160 460 c 0
 188 460 210 482 210 510 c 0
 210 538 188 560 160 560 c 0xab20
EndSplineSet
EndChar

StartChar: uni0E18
Encoding: 3608 3608 69
Width: 620
VWidth: 0
Flags: W
HStem: -20 65<222.042 397.958> 400 45<160 330.781> 550 60<488.177 530> 565 55<219.965 406.086>
VStem: 110 70<84.4519 300> 440 70<84.4519 364.108>
LayerCount: 2
Fore
SplineSet
90 400 m 1xdc
 90 531 180 620 310 620 c 0xdc
 383 620 434 580 465 550 c 1
 473 568 503 610 530 610 c 1
 530 550 l 1xec
 507 550 477 515 465 495 c 1
 427 533 373 565 310 565 c 0
 216 565 163 498 160 445 c 1
 363 445 510 440 510 320 c 2
 510 150 l 2
 510 26 412 -20 310 -20 c 0
 208 -20 110 26 110 150 c 2
 110 300 l 1
 180 300 l 1
 180 150 l 2
 180 95 224 45 310 45 c 0
 396 45 440 95 440 150 c 2
 440 320 l 2
 440 396 327 400 90 400 c 1xdc
EndSplineSet
EndChar

StartChar: uni0E10
Encoding: 3600 3600 70
Width: 600
VWidth: 0
Flags: W
HStem: -340 35<97.9691 174.202> -225 35<97.9691 176.557> -210 30<396.662 449.625> -110 30<396.662 453.338> 140 45<162.158 238.445> 275 45<162.158 238.181> 400 45<160 333.875> 550 60<488.177 530> 565 55<219.965 406.086>
VStem: 50 40<-298.184 -231.816> 110 45<192.158 267.842> 200 35<-214.53 -180> 245 45<191.481 227> 360 30<-173.338 -116.662> 400 70<80 372.231> 450 40<-298.725 -205> 460 30<-173.451 -116.776>
LayerCount: 2
Fore
SplineSet
90 400 m 1x9efe
 90 531 180 620 310 620 c 0x9efe
 383 620 434 580 465 550 c 1
 473 568 503 610 530 610 c 1
 530 550 l 1x9f7e
 507 550 477 515 465 495 c 1
 427 533 373 565 310 565 c 0
 216 565 163 498 160 445 c 1
 363 445 470 440 470 320 c 2
 470 60 l 2
 470 15 424 -10 380 -10 c 1
 368 97 332 178 290 227 c 1
 288 179 249 140 200 140 c 0
 150 140 110 180 110 230 c 0
 110 280 150 320 200 320 c 0
 280 320 368 215 400 80 c 1
 400 320 l 2
 400 396 327 400 90 400 c 1x9efe
200 275 m 0
 175 275 155 255 155 230 c 0
 155 205 175 185 200 185 c 0
 225 185 245 205 245 230 c 0
 245 255 225 275 200 275 c 0
191 -255 m 1
 174 -238 154 -225 135 -225 c 0xde7c
 116 -225 90 -236 90 -265 c 0
 90 -294 116 -305 135 -305 c 0
 152 -305 178 -300 191 -255 c 1
450 -205 m 1xbe7d
 442 -208 434 -210 425 -210 c 0
 389 -210 360 -181 360 -145 c 0
 360 -109 389 -80 425 -80 c 0
 461 -80 490 -109 490 -145 c 2xbe7c80
 490 -280 l 2
 490 -318 456 -330 415 -330 c 1
 321 -224 l 1
 285 -330 l 1
 250 -330 l 1
 244 -323 233 -305 218 -285 c 1
 202 -320 176 -340 135 -340 c 0
 85 -340 50 -307 50 -265 c 0
 50 -223 85 -190 135 -190 c 0xde7d
 158 -190 180 -200 198 -215 c 1
 199 -205 200 -193 200 -180 c 1
 235 -180 l 1
 235 -204 233 -227 229 -246 c 1
 244 -264 256 -282 266 -298 c 1
 300 -200 l 1
 329 -200 l 1
 340 -200 l 1
 429 -299 l 1
 447 -297 450 -290 450 -290 c 1
 450 -205 l 1xbe7d
425 -110 m 0
 406 -110 390 -126 390 -145 c 0
 390 -164 406 -180 425 -180 c 0
 444 -180 460 -164 460 -145 c 0
 460 -126 444 -110 425 -110 c 0
EndSplineSet
Substitution2: "Descent Substitute" uni0E10.descless
EndChar

StartChar: uni0E2F
Encoding: 3631 3631 71
Width: 560
VWidth: 0
Flags: W
HStem: -20 60<260 348.397> 360 50<153.427 326.076> 565 35<104.974 175.026>
VStem: 60 35<485.82 555.026> 185 35<484.826 555.026> 390 70<79.209 419> 400 60<483.824 580>
LayerCount: 2
Fore
SplineSet
140 600 m 0xfc
 184 600 220 564 220 520 c 0
 220 478 187 443 145 440 c 1
 168 421 202 410 245 410 c 0
 346 410 400 499 400 580 c 1
 440 580 l 1
 460 580 l 1xfa
 460 170 l 2
 460 53 407 -20 260 -20 c 1
 260 40 l 1
 321 40 390 57 390 170 c 2
 390 419 l 1
 359 383 312 360 245 360 c 0
 165 360 60 414 60 520 c 0
 60 564 96 600 140 600 c 0xfc
140 565 m 0
 115 565 95 545 95 520 c 0
 95 495 115 475 140 475 c 0
 165 475 185 495 185 520 c 0
 185 545 165 565 140 565 c 0
EndSplineSet
EndChar

StartChar: uni0E5A
Encoding: 3674 3674 72
Width: 720
VWidth: 0
Flags: W
HStem: -20 50<260 342.178 470 532.028> 360 50<163.427 333.755> 565 35<114.974 185.026>
VStem: 70 35<485.82 555.026> 195 35<484.826 555.026> 390 60<78.1895 410> 400 50<480.496 580> 550 60<45.2661 580>
LayerCount: 2
Fore
SplineSet
610 170 m 2xf9
 610 39 582 -20 470 -20 c 1
 470 30 l 1
 529 30 550 50 550 170 c 2
 550 580 l 1
 610 580 l 1
 610 170 l 2xf9
150 600 m 0
 194 600 230 564 230 520 c 0
 230 478 197 443 155 440 c 1
 178 421 212 410 255 410 c 0
 356 410 400 499 400 580 c 1
 445 580 l 1
 450 580 l 1xfb
 450 170 l 2
 450 53 407 -20 260 -20 c 1
 260 30 l 1
 321 30 390 57 390 170 c 2
 390 410 l 1xfd
 360 379 316 360 255 360 c 0
 175 360 70 414 70 520 c 0
 70 564 106 600 150 600 c 0
150 565 m 0
 125 565 105 545 105 520 c 0
 105 495 125 475 150 475 c 0
 175 475 195 495 195 520 c 0
 195 545 175 565 150 565 c 0
EndSplineSet
EndChar

StartChar: uni0E13
Encoding: 3603 3603 73
Width: 950
VWidth: 0
Flags: W
HStem: -20 55<724.191 815.809> -10 50<196.643 283.357> 140 50<210.656 283.357> 410 10<281.679 300> 560 60<234.877 438.962> 580 20G<760 830>
VStem: 140 70<185 371.211> 140 50<46.7455 133.459> 290 50<46.6431 133.357> 500 70<58 499.385> 660 55<44.1911 115.249> 760 70<204.949 600> 825 55<44.1911 136.368>
LayerCount: 2
Fore
SplineSet
770 145 m 0xb0e8
 740 145 715 120 715 90 c 0
 715 60 740 35 770 35 c 0
 800 35 825 60 825 90 c 0
 825 120 800 145 770 145 c 0xb0e8
240 140 m 0
 212 140 190 118 190 90 c 0
 190 62 212 40 240 40 c 0x71e0
 268 40 290 62 290 90 c 0
 290 118 268 140 240 140 c 0
240 190 m 0
 295 190 340 145 340 90 c 0
 340 35 295 -10 240 -10 c 0
 185 -10 140 35 140 90 c 2x79e0
 140 290 l 2
 140 350 165 390 189 405 c 1
 90 430 l 1
 98 484 173 620 340 620 c 0x7ae0
 475 620 570 545 570 410 c 2
 570 130 l 1
 570 60 l 1
 570 58 l 1
 601 122 674 201 760 209 c 1
 760 600 l 1
 830 600 l 1
 830 200 l 1x36f0
 816 190 l 1
 854 173 880 134 880 90 c 0
 880 29 831 -20 770 -20 c 0xb4e8
 709 -20 660 29 660 90 c 0
 660 99 661 108 663 116 c 1
 610 63 580 -10 580 -10 c 1
 517 -10 500 15 500 60 c 2
 500 130 l 1
 500 410 l 2
 500 492 452 560 340 560 c 0
 246 560 183 513 162 450 c 1
 300 420 l 1
 300 410 l 1
 299 410 l 1
 287 409 210 389 210 290 c 2
 210 185 l 1x7ae8
 219 188 230 190 240 190 c 0
EndSplineSet
EndChar

StartChar: uni0E08
Encoding: 3592 3592 74
Width: 600
VWidth: 0
Flags: W
HStem: 190 50<176.643 262.491> 340 50<176.643 262.795> 560 60<177.899 372.101>
VStem: 50 70<420 499.766> 120 50<246.643 333.357> 430 70<105 499.766>
LayerCount: 2
Fore
SplineSet
430 105 m 1xec
 430 420 l 2
 430 481 391 560 275 560 c 0
 159 560 120 481 120 420 c 1
 50 420 l 1xf4
 50 535 140 620 275 620 c 0
 410 620 500 535 500 420 c 2
 500 60 l 2
 500 15 454 -10 410 -10 c 1
 398 98 363 205 319 274 c 1
 311 226 270 190 220 190 c 0
 165 190 120 235 120 290 c 0
 120 345 165 390 220 390 c 0
 312 390 392 274 430 105 c 1xec
220 340 m 0
 192 340 170 318 170 290 c 0xec
 170 262 192 240 220 240 c 0
 248 240 270 262 270 290 c 0
 270 318 248 340 220 340 c 0
EndSplineSet
EndChar

StartChar: uni0E0D
Encoding: 3597 3597 75
Width: 930
VWidth: 0
Flags: W
HStem: -270 45<601.848 737.433> -105 35<542.537 607.463> -20 60<593.627 736.373> -10 50<196.643 283.357> 140 50<210.656 283.357> 410 10<281.679 300> 560 60<234.877 438.962> 580 20G<760 830>
VStem: 140 70<185 371.211> 140 50<46.7455 133.459> 290 50<46.6431 133.357> 500 70<65.8398 499.385> 500 35<-177.078 -112.537> 615 35<-177.448 -112.537> 760 70<65.8398 600> 790 60<-175.503 -90>
LayerCount: 2
Fore
SplineSet
575 -105 m 0xcc2c
 553 -105 535 -123 535 -145 c 0
 535 -167 553 -185 575 -185 c 0
 597 -185 615 -167 615 -145 c 0
 615 -123 597 -105 575 -105 c 0xcc2c
575 -70 m 0
 616 -70 650 -104 650 -145 c 0
 650 -177 630 -205 601 -215 c 1
 622 -222 646 -225 670 -225 c 0
 737 -225 790 -171 790 -90 c 1
 850 -90 l 1xcc2d
 850 -216 754 -270 670 -270 c 0
 580 -270 500 -215 500 -145 c 0
 500 -104 534 -70 575 -70 c 0
240 140 m 0
 212 140 190 118 190 90 c 0
 190 62 212 40 240 40 c 0xdc64
 268 40 290 62 290 90 c 0
 290 118 268 140 240 140 c 0
240 190 m 0
 295 190 340 145 340 90 c 0
 340 35 295 -10 240 -10 c 0
 185 -10 140 35 140 90 c 2xde64
 140 290 l 2
 140 350 165 390 189 405 c 1
 90 430 l 1
 98 484 173 620 340 620 c 0xdea4
 475 620 570 545 570 410 c 2
 570 130 l 2
 570 97 586 40 665 40 c 0
 744 40 760 97 760 130 c 2
 760 600 l 1
 830 600 l 1xedb6
 830 130 l 2
 830 92 816 -20 665 -20 c 0
 514 -20 500 92 500 130 c 2
 500 410 l 2
 500 492 452 560 340 560 c 0
 246 560 183 513 162 450 c 1
 300 420 l 1
 300 410 l 1
 299 410 l 1
 287 409 210 389 210 290 c 2
 210 185 l 1xeeb6
 219 188 230 190 240 190 c 0
EndSplineSet
Substitution2: "Descent Substitute" uni0E0D.descless
EndChar

StartChar: uni0E0F
Encoding: 3599 3599 76
Width: 700
VWidth: 0
Flags: W
HStem: -300 40<124.207 212.565> -170 40<124.207 225.308> -10 50<136.643 223.357> 140 50<136.643 193.795> 410 10<316.065 330> 560 60<256.382 458.962>
VStem: 70 45<-251.68 -178.32> 80 50<46.6431 133.357> 180 70<189.711 375.674> 230 50<46.6431 132.928> 240 45<-151.129 -130> 520 70<-255 499.385>
LayerCount: 2
Fore
SplineSet
234 -196 m 1xfe10
 214 -180 191 -170 165 -170 c 0
 140 -170 115 -188 115 -215 c 0
 115 -242 140 -260 165 -260 c 0
 200 -260 223 -241 234 -196 c 1xfe10
360 620 m 0
 495 620 590 545 590 410 c 2
 590 0 l 1
 590 -240 l 2
 590 -278 531 -290 490 -290 c 1
 414 -172 l 1
 345 -290 l 1
 298 -290 l 1
 289 -270 279 -250 267 -233 c 1
 248 -274 215 -300 165 -300 c 0
 115 -300 70 -269 70 -215 c 0
 70 -161 115 -130 165 -130 c 0
 192 -130 217 -138 239 -152 c 1
 240 -145 240 -138 240 -130 c 1
 285 -130 l 1xfe30
 285 -150 284 -169 280 -186 c 1xfc50
 295 -202 308 -220 320 -240 c 1
 387 -130 l 1
 438 -130 l 1
 519 -256 l 1
 520 -255 l 1
 520 0 l 1
 520 410 l 2
 520 492 472 560 360 560 c 0
 266 560 203 511 182 450 c 1
 330 420 l 1
 330 410 l 1
 330 410 250 393 250 300 c 2
 250 260 l 2xfc90
 250 199 280 176 280 90 c 0xfc50
 280 35 235 -10 180 -10 c 0
 125 -10 80 35 80 90 c 0
 80 145 125 190 180 190 c 0
 185 190 189 190 194 189 c 1
 188 204 180 230 180 260 c 2
 180 300 l 2xfd90
 180 362 210 389 233 401 c 1
 110 430 l 1
 118 484 193 620 360 620 c 0
180 140 m 0xfc90
 152 140 130 118 130 90 c 0
 130 62 152 40 180 40 c 0xfd90
 208 40 230 62 230 90 c 0xfc50
 230 118 208 140 180 140 c 0xfc90
EndSplineSet
Substitution2: "Descent Shorten" uni0E0F.shorten
EndChar

StartChar: uni0E4B
Encoding: 3659 3659 77
Width: 0
VWidth: 0
Flags: W
HStem: 1090 50<-270 -180 -120 -30>
VStem: -180 60<1030 1090 1140 1220>
LayerCount: 2
Fore
SplineSet
-180 1220 m 1
 -120 1220 l 1
 -120 1140 l 1
 -30 1140 l 1
 -30 1090 l 1
 -120 1090 l 1
 -120 990 l 1
 -180 1030 l 1
 -180 1090 l 1
 -270 1090 l 1
 -270 1140 l 1
 -180 1140 l 1
 -180 1220 l 1
EndSplineSet
Position2: "Nikhahit & Tone High-Left" dx=-240 dy=0 dh=0 dv=0
Position2: "Mai Han-Akat & Tone High-Left" dx=-300 dy=0 dh=0 dv=0
Position2: "Tone High-Left" dx=-180 dy=0 dh=0 dv=0
MultipleSubs2: "Tone High-Low" uni0E4B.low
EndChar

StartChar: uni0E0F.shorten
Encoding: 63290 63290 78
Width: 690
VWidth: 0
Flags: W
HStem: -220 40<124.207 212.565> -90 40<124.207 225.308> -10 50<136.643 223.357> 140 50<136.643 193.795> 410 10<316.065 330> 560 60<256.382 458.962>
VStem: 70 45<-171.68 -98.3204> 80 50<46.6431 133.357> 180 70<189.711 375.674> 230 50<46.6431 132.928> 240 45<-71.1286 -50> 520 70<-175 499.385>
LayerCount: 2
Fore
SplineSet
234 -116 m 1xfe10
 214 -100 191 -90 165 -90 c 0
 140 -90 115 -108 115 -135 c 0
 115 -162 140 -180 165 -180 c 0
 200 -180 223 -161 234 -116 c 1xfe10
360 620 m 0
 495 620 590 545 590 410 c 2
 590 80 l 1
 590 0 l 1
 590 -160 l 2
 590 -198 531 -210 490 -210 c 1
 414 -92 l 1
 345 -210 l 1
 298 -210 l 1
 289 -190 279 -170 267 -153 c 1
 248 -194 215 -220 165 -220 c 0
 115 -220 70 -189 70 -135 c 0
 70 -81 115 -50 165 -50 c 0
 192 -50 217 -58 239 -72 c 1
 240 -65 240 -58 240 -50 c 1
 285 -50 l 1xfe30
 285 -70 284 -89 280 -106 c 1xfc50
 295 -122 308 -140 320 -160 c 1
 387 -50 l 1
 438 -50 l 1
 519 -176 l 1
 520 -175 l 1
 520 0 l 1
 520 80 l 1
 520 410 l 2
 520 492 472 560 360 560 c 0
 266 560 203 511 182 450 c 1
 330 420 l 1
 330 410 l 1
 330 410 250 393 250 300 c 2
 250 260 l 2xfc90
 250 199 280 176 280 90 c 0xfc50
 280 35 235 -10 180 -10 c 0
 125 -10 80 35 80 90 c 0
 80 145 125 190 180 190 c 0
 185 190 189 190 194 189 c 1
 188 204 180 230 180 260 c 2
 180 300 l 2xfd90
 180 362 210 389 233 401 c 1
 110 430 l 1
 118 484 193 620 360 620 c 0
180 140 m 0xfc90
 152 140 130 118 130 90 c 0
 130 62 152 40 180 40 c 0xfd90
 208 40 230 62 230 90 c 0xfc50
 230 118 208 140 180 140 c 0xfc90
EndSplineSet
EndChar

StartChar: uni0E0E.shorten
Encoding: 63291 63291 79
Width: 690
VWidth: 0
Flags: W
HStem: -220 40<196.765 317.172> -80 40<196.765 336.332> -10 50<136.643 223.357> 140 50<136.643 193.795> 410 10<316.065 330> 560 60<256.382 458.962>
VStem: 80 50<46.6431 133.357> 140 46<-170.001 -89.9989> 180 70<189.711 375.674> 230 50<46.6431 132.928> 365 50<-69.5312 -40> 520 70<-175.962 499.385>
LayerCount: 2
Fore
SplineSet
250 -180 m 0xfeb0
 302 -180 338 -154 354 -108 c 1
 319 -90 284 -80 250 -80 c 0xfeb0
 222 -80 186 -90 186 -130 c 0xff30
 186 -170 222 -180 250 -180 c 0xfeb0
360 620 m 0
 495 620 590 545 590 410 c 2
 590 80 l 1
 590 0 l 1
 590 -160 l 2
 590 -198 531 -210 490 -210 c 1
 460 -181 428 -154 397 -133 c 1
 372 -186 324 -220 250 -220 c 0xfeb0
 189 -220 140 -185 140 -130 c 0xff30
 140 -75 189 -40 250 -40 c 0
 287 -40 326 -51 363 -70 c 1
 364 -60 365 -50 365 -40 c 1
 415 -40 l 1
 415 -59 413 -78 409 -95 c 1
 448 -119 486 -148 520 -177 c 1
 520 0 l 1
 520 80 l 1
 520 410 l 2
 520 492 472 560 360 560 c 0
 266 560 203 511 182 450 c 1
 330 420 l 1
 330 410 l 1
 330 410 250 393 250 300 c 2
 250 260 l 2xfeb0
 250 199 280 176 280 90 c 0xfe70
 280 35 235 -10 180 -10 c 0
 125 -10 80 35 80 90 c 0
 80 145 125 190 180 190 c 0
 185 190 189 190 194 189 c 1
 188 204 180 230 180 260 c 2
 180 300 l 2
 180 362 210 389 233 401 c 1
 110 430 l 1
 118 484 193 620 360 620 c 0
180 140 m 0
 152 140 130 118 130 90 c 0
 130 62 152 40 180 40 c 0xfeb0
 208 40 230 62 230 90 c 0xfe70
 230 118 208 140 180 140 c 0
EndSplineSet
EndChar

StartChar: uni0E5B
Encoding: 3675 3675 80
Width: 1340
VWidth: 0
Flags: W
HStem: -20 45<289.76 491.206> 150 45<317.446 458.719> 250 40<289.943 369.664> 280 40<1034.74 1250> 390 40<290.457 369.664> 575 45<258.459 418.955>
VStem: 90 50<180.634 437.836> 230 50<264.392 383.414> 380 40<300.336 379.664> 510 50<244.428 475.06> 940 40<487.786 520>
LayerCount: 2
Fore
SplineSet
330 430 m 0xdfe0
 380 430 420 390 420 340 c 0
 420 290 380 250 330 250 c 0xefe0
 314 250 300 254 287 261 c 1
 306 211 345 195 390 195 c 0
 451 195 510 233 510 340 c 0
 510 486 447 575 340 575 c 0
 229 575 140 472 140 300 c 0
 140 157 232 25 390 25 c 0
 637 25 690 307 690 580 c 1
 735 580 l 1
 843 148 l 1
 940 520 l 1
 980 520 l 1
 980 419 1006 320 1090 320 c 2
 1250 320 l 1
 1250 280 l 1
 1090 280 l 2
 1011 280 969 329 951 405 c 1
 865 60 l 1
 820 60 l 1
 728 426 l 1
 707 196 628 -20 390 -20 c 0
 213 -20 90 123 90 300 c 0
 90 486 201 620 340 620 c 0
 482 620 560 501 560 340 c 0
 560 233 488 150 390 150 c 0
 294 150 230 227 230 320 c 0
 230 385 280 430 330 430 c 0xdfe0
330 390 m 0
 302 390 280 368 280 340 c 0
 280 312 302 290 330 290 c 0
 358 290 380 312 380 340 c 0
 380 368 358 390 330 390 c 0
EndSplineSet
EndChar

StartChar: uni0E4E
Encoding: 3662 3662 81
Width: 0
VWidth: 0
Flags: W
HStem: 700 50<-426.928 -304.058> 910 50<-385.139 -313.661> 1090 50<-366.928 -252.673>
VStem: -500 50<773.072 887.85> -440 50<960.468 1067.33> -230 50<1010 1066.45>
LayerCount: 2
Fore
SplineSet
-313 887 m 1
 -327 902 -347 910 -370 910 c 0
 -414 910 -450 875 -450 830 c 0
 -450 786 -414 750 -370 750 c 0
 -347 750 -327 759 -313 774 c 1
 -278 739 l 1
 -301 715 -334 700 -370 700 c 0
 -441 700 -500 759 -500 830 c 0
 -500 883 -468 928 -423 949 c 1
 -434 967 -440 988 -440 1010 c 0
 -440 1082 -381 1140 -310 1140 c 0
 -238 1140 -180 1082 -180 1010 c 1
 -230 1010 l 1
 -230 1055 -265 1090 -310 1090 c 0
 -354 1090 -390 1055 -390 1010 c 0
 -390 991 -382 973 -370 960 c 1
 -334 960 -301 946 -278 922 c 1
 -313 887 l 1
EndSplineSet
EndChar

StartChar: uni0E4F
Encoding: 3663 3663 82
Width: 780
VWidth: 0
Flags: W
HStem: -20 50<279.4 500.6> 140 50<321.387 458.613> 410 50<321.387 458.613> 570 50<279.4 500.6>
VStem: 70 50<189.4 410.6> 230 50<231.387 368.613> 500 50<231.387 368.613> 660 50<189.4 410.6>
LayerCount: 2
Fore
SplineSet
390 410 m 0
 329 410 280 361 280 300 c 0
 280 239 329 190 390 190 c 0
 451 190 500 239 500 300 c 0
 500 361 451 410 390 410 c 0
390 460 m 0
 478 460 550 388 550 300 c 0
 550 212 478 140 390 140 c 0
 302 140 230 212 230 300 c 0
 230 388 302 460 390 460 c 0
390 570 m 0
 241 570 120 449 120 300 c 0
 120 151 241 30 390 30 c 0
 539 30 660 151 660 300 c 0
 660 449 539 570 390 570 c 0
390 620 m 0
 567 620 710 477 710 300 c 0
 710 123 567 -20 390 -20 c 0
 213 -20 70 123 70 300 c 0
 70 477 213 620 390 620 c 0
EndSplineSet
EndChar

StartChar: uni0E51
Encoding: 3665 3665 83
Width: 800
VWidth: 0
Flags: W
HStem: -60 60<400 501.667> 90 60<217.781 391.101> 190 50<352.177 407.615> 360 50<352.081 447.919> 560 60<290 510>
VStem: 90 70<209.779 424.392> 290 50<252.081 347.919> 460 50<252.264 347.919> 640 70<160.529 424.392>
LayerCount: 2
Fore
SplineSet
400 410 m 0
 461 410 510 361 510 300 c 0
 510 184 427 90 310 90 c 0
 183 90 90 174 90 300 c 0
 90 477 208 620 400 620 c 0
 592 620 710 477 710 300 c 0
 710 87 577 -60 400 -60 c 1
 400 0 l 1
 528 0 640 109 640 300 c 0
 640 444 552 560 400 560 c 0
 248 560 160 444 160 300 c 0
 160 224 203 150 310 150 c 0
 353 150 385 166 408 190 c 1
 406 190 405 190 403 190 c 0
 342 190 290 239 290 300 c 0
 290 361 339 410 400 410 c 0
400 360 m 0
 367 360 340 333 340 300 c 0
 340 267 367 240 400 240 c 0
 433 240 460 267 460 300 c 0
 460 333 433 360 400 360 c 0
EndSplineSet
EndChar

StartChar: uni0E52
Encoding: 3666 3666 84
Width: 930
VWidth: 0
Flags: W
HStem: 0 60<190 770> 180 50<393.551 487.919> 350 50<392.093 487.919> 560 60<378.175 501.006> 790 20G<80 153.81>
VStem: 120 70<60 765.347> 270 65<344.516 512.199> 500 50<242.081 337.919> 770 70<60 531.577>
LayerCount: 2
Fore
SplineSet
440 350 m 0
 407 350 380 323 380 290 c 0
 380 257 407 230 440 230 c 0
 473 230 500 257 500 290 c 0
 500 323 473 350 440 350 c 0
80 810 m 1
 150 810 l 1
 150 810 190 713 190 600 c 2
 190 60 l 1
 770 60 l 1
 770 390 l 2
 770 489 762 538 710 560 c 1
 600 400 l 1
 540 400 l 1
 540 485 511 560 440 560 c 0
 369 560 335 485 335 400 c 0
 335 380 338 360 343 342 c 1
 361 376 398 400 440 400 c 0
 501 400 550 351 550 290 c 0
 550 229 501 180 440 180 c 0
 339 180 270 282 270 400 c 0
 270 518 339 620 440 620 c 0
 512 620 563 568 586 495 c 1
 675 620 l 1
 710 620 l 1
 806 594 840 535 840 390 c 2
 840 60 l 2
 840 10 825 0 770 0 c 2
 190 0 l 2
 135 0 120 10 120 60 c 2
 120 600 l 2
 120 706 80 810 80 810 c 1
EndSplineSet
EndChar

StartChar: uni0E54
Encoding: 3668 3668 85
Width: 890
VWidth: 0
Flags: W
HStem: 0 60<289.312 540 587.784 760> 160 50<501.842 592.475> 350 50<486.905 592.475> 540 60<289.312 684.512> 790 20G<790 860>
VStem: 100 70<183.14 416.86> 415 55<227.136 333.534> 610 50<227.525 332.475> 790 70<700.144 810>
LayerCount: 2
Fore
SplineSet
540 400 m 0
 606 400 660 346 660 280 c 0
 660 214 606 160 540 160 c 0
 526 160 513 162 501 167 c 1
 547 98 626 60 660 60 c 2
 760 60 l 1
 760 0 l 1
 390 0 l 2
 210 0 100 134 100 300 c 0
 100 466 210 600 390 600 c 2
 570 600 l 2
 701 600 790 672 790 810 c 1
 860 810 l 1
 860 644 750 540 570 540 c 2
 390 540 l 2
 259 540 170 438 170 300 c 0
 170 162 259 60 390 60 c 2
 540 60 l 1
 540 60 415 137 415 270 c 0
 415 344 467 400 540 400 c 0
540 350 m 0
 501 350 470 319 470 280 c 0
 470 241 501 210 540 210 c 0
 579 210 610 241 610 280 c 0
 610 319 579 350 540 350 c 0
EndSplineSet
EndChar

StartChar: uni0E55
Encoding: 3669 3669 86
Width: 890
VWidth: 0
Flags: W
HStem: 0 60<289.312 540 587.784 760> 160 50<501.842 592.475> 350 50<486.905 592.475> 540 75<437.883 542.117> 540 60<289.312 401 580 684.512> 745 55<437.989 542.011> 790 20G<790 860>
VStem: 100 70<183.14 416.86> 370 55<628.337 732.011> 415 55<227.136 333.534> 555 55<628.337 732.011> 610 50<227.525 332.475> 790 70<697.887 810>
LayerCount: 2
Fore
SplineSet
490 745 m 0xf5a8
 454 745 425 716 425 680 c 0
 425 644 454 615 490 615 c 0
 526 615 555 644 555 680 c 0
 555 716 526 745 490 745 c 0xf5a8
540 350 m 0
 501 350 470 319 470 280 c 0
 470 241 501 210 540 210 c 0
 579 210 610 241 610 280 c 0xe158
 610 319 579 350 540 350 c 0
540 400 m 0
 606 400 660 346 660 280 c 0
 660 214 606 160 540 160 c 0
 526 160 513 162 501 167 c 1
 547 98 626 60 660 60 c 2
 760 60 l 1
 760 0 l 1
 390 0 l 2
 210 0 100 134 100 300 c 0
 100 466 210 600 390 600 c 2
 401 600 l 1
 382 621 370 649 370 680 c 0
 370 746 424 800 490 800 c 0xed98
 556 800 610 746 610 680 c 0
 610 649 598 621 580 600 c 1
 705 604 790 675 790 810 c 1
 860 810 l 1
 860 644 750 540 570 540 c 2
 390 540 l 2xeba8
 259 540 170 438 170 300 c 0
 170 162 259 60 390 60 c 2
 540 60 l 1
 540 60 415 137 415 270 c 0
 415 344 467 400 540 400 c 0
EndSplineSet
EndChar

StartChar: uni0E56
Encoding: 3670 3670 87
Width: 800
VWidth: 0
Flags: W
HStem: -20 60<297.516 518.551> 160 50<204.378 302.475> 350 50<196.905 302.475> 540 60<198.474 511.758> 790 20G<60 130>
VStem: 60 70<671.034 810> 125 55<226.221 333.534> 320 50<227.525 332.475> 640 70<168.281 410.896>
LayerCount: 2
Fore
SplineSet
250 400 m 0xfb80
 316 400 370 346 370 280 c 0
 370 214 316 160 250 160 c 0
 234 160 219 163 204 169 c 1
 238 86 311 40 410 40 c 0
 548 40 640 140 640 300 c 0
 640 438 541 540 410 540 c 2
 300 540 l 2
 120 540 60 644 60 810 c 1
 130 810 l 1xfd80
 130 672 169 600 300 600 c 2
 410 600 l 2
 590 600 710 466 710 300 c 0
 710 122 605 -20 410 -20 c 0
 220 -20 125 113 125 270 c 0
 125 344 177 400 250 400 c 0xfb80
250 350 m 0
 211 350 180 319 180 280 c 0xfb80
 180 241 211 210 250 210 c 0
 289 210 320 241 320 280 c 0
 320 319 289 350 250 350 c 0
EndSplineSet
EndChar

StartChar: uni0E57
Encoding: 3671 3671 88
Width: 1050
VWidth: 0
Flags: W
HStem: -20 60<261.244 378.316> 200 60<260.983 378.316> 560 60<236.444 361.994> 580 20G<880 950>
VStem: 90 70<144.463 455.966> 400 60<61.6844 178.316> 680 70<53 509.568> 880 70<108.591 600>
LayerCount: 2
Fore
SplineSet
320 200 m 0xcf
 276 200 240 164 240 120 c 0
 240 76 276 40 320 40 c 0
 364 40 400 76 400 120 c 0
 400 164 364 200 320 200 c 0xcf
300 560 m 0xef
 217 560 160 444 160 300 c 0
 160 230 168 178 181 140 c 1
 191 208 249 260 320 260 c 0
 397 260 460 197 460 120 c 0
 460 43 397 -20 320 -20 c 0
 206 -20 90 74 90 300 c 0
 90 485 180 620 300 620 c 0
 390 620 449 556 471 440 c 1
 565 620 l 1
 600 620 l 1xef
 712 593 750 509 750 360 c 2
 750 53 l 1
 829 62 880 97 880 230 c 2
 880 600 l 1
 950 600 l 1xdf
 950 230 l 2
 950 14 830 -10 680 -10 c 1
 680 0 l 1
 680 50 l 1
 680 360 l 2
 680 484 652 538 600 560 c 1
 480 330 l 1
 420 330 l 1
 420 474 378 560 300 560 c 0xef
EndSplineSet
EndChar

StartChar: uni0E58
Encoding: 3672 3672 89
Width: 910
VWidth: 0
Flags: W
HStem: -20 55<551.224 706.609> 160 50<627.525 733.149> 350 50<627.525 732.047> 540 60<270.382 674.512> 790 20G<780 850>
VStem: 90 70<174.155 422.74> 560 50<227.525 332.475> 750 60<79.9947 182 225.875 333.398> 780 70<700.144 810>
LayerCount: 2
Fore
SplineSet
680 400 m 0xff
 760 400 810 329 810 255 c 2
 810 200 l 2xff
 810 22 725 -20 620 -20 c 0
 529 -20 453 45 419 150 c 1
 370 -10 l 1
 190 -10 90 134 90 300 c 0
 90 466 190 600 370 600 c 2
 560 600 l 2
 691 600 780 672 780 810 c 1
 850 810 l 1xfe80
 850 644 740 540 560 540 c 2
 370 540 l 2
 239 540 160 438 160 300 c 0
 160 177 222 75 328 54 c 1
 400 280 l 1
 435 280 l 1
 460 280 l 1
 460 131 541 35 620 35 c 0
 707 35 750 91 750 150 c 2
 750 182 l 1
 730 168 706 160 680 160 c 0
 614 160 560 214 560 280 c 0
 560 346 614 400 680 400 c 0xff
680 350 m 0
 641 350 610 319 610 280 c 0
 610 241 641 210 680 210 c 0
 719 210 750 241 750 280 c 0
 750 319 719 350 680 350 c 0
EndSplineSet
EndChar

StartChar: uni0E59
Encoding: 3673 3673 90
Width: 960
VWidth: 0
Flags: W
HStem: -20 60<261.244 378.316> 0 21G<591.429 670> 200 60<260.983 378.316> 560 60<236.444 356.283> 790 20G<830 900>
VStem: 90 70<144.463 455.966> 400 60<61.6844 178.316> 680 65<366 503.115> 830 70<405.314 810>
LayerCount: 2
Fore
SplineSet
320 200 m 0xbf80
 276 200 240 164 240 120 c 0
 240 76 276 40 320 40 c 0
 364 40 400 76 400 120 c 0
 400 164 364 200 320 200 c 0xbf80
830 530 m 2
 830 810 l 1
 900 810 l 1
 900 530 l 2
 900 369 854 300 680 300 c 1
 680 360 l 1
 680 390 l 2
 680 489 642 538 590 560 c 1
 500 396 l 1
 670 0 l 1
 600 0 l 1x7f80
 420 420 l 1
 376 519 352 560 300 560 c 0
 217 560 160 444 160 300 c 0
 160 230 168 178 181 140 c 1
 191 208 249 260 320 260 c 0
 397 260 460 197 460 120 c 0
 460 43 397 -20 320 -20 c 0
 206 -20 90 74 90 300 c 0
 90 485 180 620 300 620 c 0
 385 620 427 559 470 466 c 1
 555 620 l 1
 590 620 l 1
 702 593 745 498 745 390 c 2
 745 366 l 1
 806 379 830 422 830 530 c 2
EndSplineSet
EndChar

StartChar: uni0E4A
Encoding: 3658 3658 91
Width: 0
VWidth: 0
Flags: W
HStem: 1026 30<-317.381 -260.135> 1030 40<-190 -169.432> 1126 30<-317.27 -261.35> 1210 46<-318.814 -265.15>
VStem: -380 56<1058.3 1208.09> -254 30<1062.55 1118.65> -160 50<1082.65 1207.17> -64 54<1109.51 1246>
LayerCount: 2
Fore
SplineSet
-190 1210 m 1x7f
 -220 1166 l 1
 -260 1166 l 1
 -263 1183 -267 1210 -290 1210 c 0
 -313 1210 -329 1175 -330 1142 c 1
 -318 1150 -305 1156 -290 1156 c 0
 -254 1156 -224 1126 -224 1090 c 0
 -224 1055 -254 1026 -290 1026 c 0xbf
 -345 1026 -380 1080 -380 1140 c 0
 -380 1201 -345 1256 -290 1256 c 0
 -256 1256 -241 1231 -233 1212 c 1
 -210 1256 l 1
 -190 1256 l 2
 -146 1256 -110 1206 -110 1146 c 0
 -110 1122 -113 1100 -120 1082 c 1
 -94 1088 -64 1123 -64 1246 c 1
 -10 1246 l 1
 -10 1136 -38 1030 -190 1030 c 1
 -190 1066 l 1
 -190 1070 l 1
 -168 1070 -160 1106 -160 1146 c 0
 -160 1171 -169 1202 -190 1210 c 1x7f
-290 1126 m 0
 -309 1126 -324 1110 -324 1090 c 0
 -324 1071 -309 1056 -290 1056 c 0
 -270 1056 -254 1071 -254 1090 c 0
 -254 1110 -270 1126 -290 1126 c 0
EndSplineSet
Substitution2: "Thai Tone & Vowel Above-Narrow" uni0E4A.narrow
Position2: "Nikhahit & Tone High-Left" dx=-190 dy=0 dh=0 dv=0
Position2: "Mai Han-Akat & Tone High-Left" dx=-260 dy=0 dh=0 dv=0
Position2: "Tone High-Left" dx=-180 dy=0 dh=0 dv=0
MultipleSubs2: "Tone High-Low" uni0E4A.low
EndChar

StartChar: uni0E3F
Encoding: 3647 3647 92
Width: 780
VWidth: 0
Flags: W
HStem: 0 60<180 350 400 547.828> 385 60<180 350 400 509.909> 740 60<180 350 400 511.835>
VStem: 110 70<60 385 445 740> 350 50<-150 0 60 385 445 740 800 950> 580 70<512.19 676.908> 620 70<132.863 306.442>
LayerCount: 2
Fore
SplineSet
350 950 m 1xfa
 400 950 l 1
 400 800 l 1
 587 796 650 696 650 590 c 0xfc
 650 515 608 451 536 418 c 1
 626 390 690 325 690 220 c 0
 690 73 593 0 450 0 c 2
 400 0 l 1
 400 -150 l 1
 350 -150 l 1
 350 0 l 1
 110 0 l 1
 110 800 l 1
 350 800 l 1
 350 950 l 1xfa
450 60 m 2
 560 60 620 134 620 220 c 0xfa
 620 320 541 385 420 385 c 2
 400 385 l 1
 400 60 l 1
 450 60 l 2
400 740 m 1
 400 445 l 1
 420 445 l 2
 524 445 580 526 580 590 c 0xfc
 580 677 525 737 400 740 c 1
350 445 m 1
 350 740 l 1
 180 740 l 1
 180 445 l 1
 350 445 l 1
350 60 m 1
 350 385 l 1
 180 385 l 1
 180 60 l 1
 350 60 l 1
EndSplineSet
EndChar

StartChar: uni0E11
Encoding: 3601 3601 93
Width: 770
VWidth: 0
Flags: W
HStem: 0 21G<250 325 600 670> 320 40<143.065 217.114> 450 40<142.684 217.114> 545 65<470.652 581.795> 570 40<140.217 214.559>
VStem: 70 45<460 544.758> 225 40<367.886 442.114> 250 75<0 286.392> 365 55<376.906 491.406> 600 70<0 527.728>
LayerCount: 2
Fore
SplineSet
180 610 m 0xeec0
 226 610 253 577 266 545 c 1xf6c0
 310 610 l 1
 329 610 l 1xeec0
 363 596 392 565 408 525 c 1
 441 573 486 610 545 610 c 0
 606 610 670 571 670 410 c 2
 670 0 l 1
 600 0 l 1
 600 410 l 2
 600 503 584 545 534 545 c 0
 487 545 449 506 420 452 c 1
 416 325 325 306 325 200 c 2
 325 0 l 1
 250 0 l 1
 250 200 l 2
 250 322 365 345 365 460 c 0
 365 503 355 546 325 568 c 1xf5c0
 275 500 l 1
 235 500 l 1
 228 532 213 570 180 570 c 0
 135 570 116 519 115 460 c 1
 131 478 154 490 180 490 c 0
 227 490 265 452 265 405 c 0
 265 358 227 320 180 320 c 0
 109 320 70 387 70 465 c 0
 70 522 101 610 180 610 c 0xeec0
180 450 m 0
 155 450 135 430 135 405 c 0
 135 380 155 360 180 360 c 0
 205 360 225 380 225 405 c 0
 225 430 205 450 180 450 c 0
EndSplineSet
EndChar

StartChar: uni0E12
Encoding: 3602 3602 94
Width: 930
VWidth: 0
Flags: W
HStem: -20 55<474.191 565.809> 240 40<290.336 344.295> 380 40<290.336 369.664> 580 20G<208.5 267.667 392.333 451.5 760 830>
VStem: 90 70<201.488 519.432> 100 90<14.1313 56.3715> 120 70<-3.5 56.3715 98 338.295> 240 40<290.336 369.664> 380 40<292.51 369.664> 410 55<44.1911 135.625> 500 70<190.685 518.674> 575 55<44.1911 119.527> 760 70<40.3902 600>
LayerCount: 2
Fore
SplineSet
330 380 m 0xf1b8
 302 380 280 358 280 330 c 0
 280 302 302 280 330 280 c 0
 358 280 380 302 380 330 c 0
 380 358 358 380 330 380 c 0xf1b8
760 600 m 1
 830 600 l 1
 830 60 l 2
 830 15 803 -10 740 -10 c 1
 721 23 688 84 626 120 c 1
 629 111 630 100 630 90 c 0
 630 29 581 -20 520 -20 c 0
 459 -20 410 29 410 90 c 0
 410 144 449 189 500 198 c 1
 500 420 l 2
 500 501 466 543 430 560 c 1
 330 480 l 1
 230 560 l 1
 194 543 160 501 160 420 c 0xf978
 160 289 190 217 190 110 c 2
 190 98 l 1
 231 152 304 187 345 241 c 1
 340 240 335 240 330 240 c 0
 280 240 240 280 240 330 c 0
 240 380 280 420 330 420 c 0
 380 420 420 380 420 330 c 0
 420 175 190 107 190 -10 c 1xf3b8
 190 -10 101 -6 100 30 c 1xf538
 100 30 120 79 120 140 c 0xf338
 120 242 90 285 90 420 c 0xf938
 90 538 172 620 245 620 c 1
 330 545 l 1
 415 620 l 1
 488 620 570 538 570 420 c 2
 570 193 l 1
 670 170 736 92 760 40 c 1
 760 600 l 1
520 145 m 0
 490 145 465 120 465 90 c 0
 465 60 490 35 520 35 c 0
 550 35 575 60 575 90 c 0
 575 120 550 145 520 145 c 0
EndSplineSet
EndChar

StartChar: uni0E0C
Encoding: 3596 3596 95
Width: 930
VWidth: 0
Flags: W
HStem: -20 55<474.191 565.809> -10 50<196.643 283.357> 140 50<210.656 283.357 472.756 500> 410 10<281.679 300> 560 60<234.877 438.962> 580 20G<760 830>
VStem: 140 70<185 371.211> 140 50<46.7455 133.459> 290 50<46.6431 133.357> 410 55<44.1911 135.625> 500 70<190.685 499.385> 575 55<44.1911 119.527> 760 70<40.3902 600>
LayerCount: 2
Fore
SplineSet
520 145 m 0xb0f8
 490 145 465 120 465 90 c 0
 465 60 490 35 520 35 c 0
 550 35 575 60 575 90 c 0
 575 120 550 145 520 145 c 0xb0f8
240 140 m 0
 212 140 190 118 190 90 c 0
 190 62 212 40 240 40 c 0x71f8
 268 40 290 62 290 90 c 0
 290 118 268 140 240 140 c 0
240 190 m 0
 295 190 340 145 340 90 c 0
 340 35 295 -10 240 -10 c 0
 185 -10 140 35 140 90 c 2x79f8
 140 290 l 2
 140 350 165 390 189 405 c 1
 90 430 l 1
 98 484 173 620 340 620 c 0x7af8
 475 620 570 545 570 410 c 2
 570 193 l 1
 670 170 736 92 760 40 c 1
 760 600 l 1
 830 600 l 1
 830 60 l 2
 830 15 803 -10 740 -10 c 1x76f8
 721 23 688 84 626 120 c 1
 629 111 630 100 630 90 c 0
 630 29 581 -20 520 -20 c 0
 459 -20 410 29 410 90 c 0
 410 144 449 189 500 198 c 1
 500 410 l 2
 500 492 452 560 340 560 c 0
 246 560 183 513 162 450 c 1
 300 420 l 1
 300 410 l 1
 299 410 l 1
 287 409 210 389 210 290 c 2
 210 185 l 1xbaf8
 219 188 230 190 240 190 c 0
EndSplineSet
EndChar

StartChar: uni0E09
Encoding: 3593 3593 96
Width: 670
VWidth: 0
Flags: W
HStem: -20 55<434.191 525.809> 145 60<437.227 480> 200 45<122.158 179.646> 335 45<122.158 197.842> 560 60<221.727 418.273>
VStem: 70 45<252.158 327.842> 90 70<420 499.531> 180 70<51 202> 205 45<251.481 327.165> 370 55<44.1911 120.559> 480 70<205 499.531> 535 55<44.1911 136.169>
LayerCount: 2
Fore
SplineSet
375 121 m 1xb860
 322 85 279 30 260 -10 c 1
 197 -10 180 15 180 60 c 2
 180 202 l 1
 174 201 167 200 160 200 c 0xbb60
 110 200 70 240 70 290 c 0xbc40
 70 340 110 380 160 380 c 0
 210 380 250 340 250 290 c 2xbac0
 250 60 l 1
 251 51 l 1
 288 116 390 202 480 205 c 1xd960
 480 420 l 2
 480 481 436 560 320 560 c 0
 204 560 160 481 160 420 c 1
 90 420 l 1
 90 535 185 620 320 620 c 0
 455 620 550 535 550 420 c 2
 550 200 l 1xbb60
 532 187 l 1
 566 169 590 132 590 90 c 0xb850
 590 29 541 -20 480 -20 c 0
 419 -20 370 29 370 90 c 0
 370 101 372 111 375 121 c 1xb860
160 335 m 0
 135 335 115 315 115 290 c 0xbc40
 115 265 135 245 160 245 c 0
 185 245 205 265 205 290 c 0xbac0
 205 315 185 335 160 335 c 0
480 145 m 0xd860
 450 145 425 120 425 90 c 0
 425 60 450 35 480 35 c 0xd860
 510 35 535 60 535 90 c 0xd850
 535 120 510 145 480 145 c 0xd860
EndSplineSet
EndChar

StartChar: uni0E0A.alt
Encoding: 3681 3681 97
Width: 680
VWidth: 0
Flags: W
HStem: -20 60<297.94 462.06> 350 40<128.483 202.114> 480 40<127.739 202.114> 560 50<147.424 283.438> 580 70<518.652 640>
VStem: 70 50<395.772 504.475> 200 70<68.9928 293.087> 210 40<397.886 472.114> 490 70<68.9928 397.438>
LayerCount: 2
Fore
SplineSet
490 370 m 2xe680
 490 398 407 424 369 435 c 1
 356 335 270 310 270 200 c 2
 270 130 l 2
 270 83 302 40 380 40 c 0
 458 40 490 83 490 130 c 2
 490 370 l 2xe680
399 466 m 1
 461 447 560 410 560 370 c 2
 560 130 l 2
 560 92 541 -20 380 -20 c 0
 219 -20 200 92 200 130 c 2
 200 200 l 2xee80
 200 336 315 344 315 460 c 0
 315 513 281 560 215 560 c 0
 179 560 143 541 125 510 c 1
 137 516 150 520 165 520 c 0
 212 520 250 482 250 435 c 0
 250 388 212 350 165 350 c 0
 105 350 70 400 70 460 c 0
 70 541 126 610 215 610 c 0xf580
 304 610 353 554 366 495 c 1
 403 559 501 650 640 650 c 1
 640 580 l 1xed80
 515 580 419 512 399 466 c 1
165 480 m 0
 140 480 120 460 120 435 c 0
 120 410 140 390 165 390 c 0
 190 390 210 410 210 435 c 0xe580
 210 460 190 480 165 480 c 0
EndSplineSet
EndChar

StartChar: uni0E0B.alt
Encoding: 3682 3682 98
Width: 710
VWidth: 0
Flags: W
HStem: -20 60<327.94 492.06> 320 40<143.065 217.114> 450 40<142.684 217.114> 570 40<140.217 214.559> 580 70<548.983 670>
VStem: 70 45<460 544.758> 225 40<367.886 442.114> 230 70<68.9928 275.922> 520 70<68.9928 398.084>
LayerCount: 2
Fore
SplineSet
438 464 m 1xee80
 500 444 590 409 590 370 c 2
 590 130 l 2
 590 92 571 -20 410 -20 c 0
 249 -20 230 92 230 130 c 2
 230 200 l 2xed80
 230 322 365 345 365 460 c 0
 365 503 355 546 325 568 c 1
 275 500 l 1
 235 500 l 1
 228 532 213 570 180 570 c 0
 135 570 116 519 115 460 c 1
 131 478 154 490 180 490 c 0
 227 490 265 452 265 405 c 0
 265 358 227 320 180 320 c 0
 109 320 70 387 70 465 c 0
 70 522 101 610 180 610 c 0
 226 610 253 577 266 545 c 1
 310 610 l 1
 329 610 l 1xf680
 367 594 400 557 413 509 c 1
 453 572 541 650 670 650 c 1
 670 580 l 1
 542 580 454 509 438 464 c 1xee80
180 450 m 0
 155 450 135 430 135 405 c 0
 135 380 155 360 180 360 c 0
 205 360 225 380 225 405 c 0xe680
 225 430 205 450 180 450 c 0
300 130 m 2xe580
 300 83 332 40 410 40 c 0
 488 40 520 83 520 130 c 2
 520 370 l 2
 520 394 459 417 418 429 c 1
 401 322 300 299 300 200 c 2
 300 130 l 2xe580
EndSplineSet
EndChar

StartChar: uni0E28.alt
Encoding: 3683 3683 99
Width: 680
VWidth: 0
Flags: W
HStem: 0 21G<500 570> 240 40<289.901 369.664> 380 40<289.956 369.664> 560 60<229.778 430.906> 615 55<568.402 650>
VStem: 90 70<261.392 492.584> 100 90<14.1313 137.15> 120 70<-3.5 269.213> 380 40<290.336 369.664> 500 70<0 492.996>
LayerCount: 2
Fore
SplineSet
330 420 m 0xf4c0
 380 420 420 380 420 330 c 0
 420 280 380 240 330 240 c 0
 284 240 246 275 241 319 c 1
 206 268 190 186 190 100 c 2xf2c0
 190 -10 l 1xf1c0
 190 -10 101 -6 100 30 c 1xf2c0
 100 30 120 79 120 140 c 0xf1c0
 120 242 90 265 90 400 c 0
 90 537 194 620 330 620 c 0xf4c0
 395 620 453 601 496 566 c 1
 513 618 565 670 650 670 c 1
 650 615 l 1xecc0
 579 615 542 575 532 526 c 1
 556 492 570 450 570 400 c 2
 570 0 l 1
 500 0 l 1
 500 400 l 2
 500 482 451 560 330 560 c 0
 209 560 160 482 160 400 c 0
 160 341 166 299 173 260 c 1
 197 340 247 420 330 420 c 0xf4c0
330 380 m 0
 302 380 280 358 280 330 c 0
 280 302 302 280 330 280 c 0
 358 280 380 302 380 330 c 0
 380 358 358 380 330 380 c 0
EndSplineSet
EndChar

StartChar: uni0E2A.alt
Encoding: 3684 3684 100
Width: 660
VWidth: 0
Flags: W
HStem: -20 50<177.143 263.357> 130 50<176.65 263.357> 325 55<202.345 379.615> 560 60<219.8 422.056> 615 55<548.766 630>
VStem: 80 70<104.506 273.816> 90 70<420 502.276> 270 50<36.6431 123.357> 475 75<11.7888 238.441 268 510.287>
LayerCount: 2
Fore
SplineSet
550 420 m 2xeb80
 550 30 l 2
 550 -6 475 -10 475 -10 c 1
 475 170 l 2
 475 236 387 325 290 325 c 0
 213 325 150 284 150 180 c 0
 150 171 150 161 151 152 c 1
 169 169 193 180 220 180 c 0
 275 180 320 135 320 80 c 0
 320 25 275 -20 220 -20 c 0
 141 -20 80 52 80 180 c 0xed80
 80 316 173 380 280 380 c 0
 376 380 444 328 480 268 c 1
 480 420 l 2
 480 481 445 560 320 560 c 0
 195 560 160 481 160 420 c 1
 90 420 l 1
 90 535 173 620 320 620 c 0xf380
 386 620 440 603 478 573 c 1
 497 623 549 670 630 670 c 1
 630 615 l 1
 564 615 527 580 515 536 c 1
 538 504 550 464 550 420 c 2xeb80
220 130 m 0
 192 130 170 108 170 80 c 0
 170 52 192 30 220 30 c 0
 248 30 270 52 270 80 c 0
 270 108 248 130 220 130 c 0
EndSplineSet
EndChar

StartChar: uni0E2E.alt
Encoding: 3686 3686 101
Width: 660
VWidth: 0
Flags: W
HStem: -20 65<213.481 431.452> 180 50<170.656 243.357> 330 50<156.643 243.357> 560 60<210.985 417.988> 615 55<550.617 630>
VStem: 80 70<420 499.531> 100 70<88.1104 185> 100 50<236.541 323.255> 250 50<236.643 323.357> 480 70<92.2284 499.531>
LayerCount: 2
Fore
SplineSet
200 380 m 0xe9c0
 255 380 300 335 300 280 c 0
 300 225 255 180 200 180 c 0
 190 180 179 182 170 185 c 1
 170 160 l 2xeac0
 170 95 207 45 325 45 c 0
 443 45 480 105 480 170 c 2
 480 420 l 2
 480 481 440 560 315 560 c 0
 190 560 150 481 150 420 c 1
 80 420 l 1
 80 535 168 620 315 620 c 0xf4c0
 383 620 438 602 478 571 c 1
 496 622 548 670 630 670 c 1
 630 615 l 1
 563 615 526 579 514 534 c 1
 538 502 550 463 550 420 c 2
 550 170 l 2
 550 34 447 -20 325 -20 c 0
 203 -20 100 24 100 160 c 2xeac0
 100 280 l 2
 100 335 145 380 200 380 c 0xe9c0
200 330 m 0
 172 330 150 308 150 280 c 0xe1c0
 150 252 172 230 200 230 c 0
 228 230 250 252 250 280 c 0
 250 308 228 330 200 330 c 0
EndSplineSet
EndChar

StartChar: B
Encoding: 66 66 102
Width: 780
VWidth: 0
Flags: W
HStem: 0 60<180 547.828> 385 60<180 509.909> 740 60<180 506.523>
VStem: 110 70<60 385 445 740> 580 70<512.19 677.069> 620 70<132.863 306.442>
AnchorPoint: "diac_top" 360 850 basechar 0
AnchorPoint: "cedilla" 377.004 40 basechar 0
AnchorPoint: "ogonek" 377.004 40 basechar 0
AnchorPoint: "diac_bottom" 338.744 -50 basechar 0
LayerCount: 2
Fore
SplineSet
390 740 m 2xf8
 180 740 l 1
 180 445 l 1
 420 445 l 2
 524 445 580 526 580 590 c 0
 580 679 522 740 390 740 c 2xf8
450 0 m 2
 110 0 l 1
 110 800 l 1
 390 800 l 2
 585 800 650 698 650 590 c 0xf8
 650 515 608 451 536 418 c 1
 626 390 690 325 690 220 c 0xf4
 690 73 593 0 450 0 c 2
450 60 m 2
 560 60 620 134 620 220 c 0xf4
 620 320 541 385 420 385 c 2
 180 385 l 1
 180 60 l 1
 450 60 l 2
EndSplineSet
EndChar

StartChar: period
Encoding: 46 46 103
Width: 320
VWidth: 0
Flags: W
HStem: 0 120<111.108 208.892>
VStem: 100 120<11.1079 108.892>
LayerCount: 2
Fore
SplineSet
220 60 m 0
 220 27 193 0 160 0 c 0
 127 0 100 27 100 60 c 0
 100 93 127 120 160 120 c 0
 193 120 220 93 220 60 c 0
EndSplineSet
EndChar

StartChar: x
Encoding: 120 120 104
Width: 650
VWidth: 0
Flags: W
HStem: 0 21G<30 125.985 524.015 620> 580 20G<60 156.017 493.983 590>
AnchorPoint: "diac_top" 325 650 basechar 0
AnchorPoint: "cedilla" 100 40 basechar 0
AnchorPoint: "diac_bottom" 325 -50 basechar 0
LayerCount: 2
Fore
SplineSet
60 600 m 1
 140 600 l 1
 325 369 l 1
 510 600 l 1
 590 600 l 1
 365 319 l 1
 620 0 l 1
 540 0 l 1
 325 269 l 1
 110 0 l 1
 30 0 l 1
 285 319 l 1
 60 600 l 1
EndSplineSet
EndChar

StartChar: i
Encoding: 105 105 105
Width: 320
VWidth: 0
Flags: W
HStem: 0 21G<125 195> 580 20G<125 195> 730 120<111.108 208.892>
VStem: 100 120<741.108 838.892> 125 70<0 600>
AnchorPoint: "diac_bottom" 160 -50 basechar 0
AnchorPoint: "ogonek" 170 40 basechar 0
AnchorPoint: "cedilla" 177.004 40 basechar 0
LayerCount: 2
Fore
SplineSet
220 790 m 4xf0
 220 757 193 730 160 730 c 4
 127 730 100 757 100 790 c 4
 100 823 127 850 160 850 c 4
 193 850 220 823 220 790 c 4xf0
125 600 m 1xe8
 195 600 l 1
 195 0 l 1
 125 0 l 1
 125 600 l 1xe8
EndSplineSet
EndChar

StartChar: o
Encoding: 111 111 106
Width: 660
VWidth: 0
Flags: W
HStem: -20 60<226.615 433.385> 560 60<231.918 428.082>
VStem: 80 70<119.447 471.5> 510 70<119.447 471.5>
AnchorPoint: "diac_top" 330 650 basechar 0
AnchorPoint: "ogonek" 350 40 basechar 0
AnchorPoint: "cedilla" 340 40 basechar 0
AnchorPoint: "diac_bottom" 330 -50 basechar 0
LayerCount: 2
Fore
SplineSet
330 560 m 0
 220 560 150 489 150 360 c 2
 150 220 l 2
 150 111 215 40 330 40 c 0
 445 40 510 111 510 220 c 2
 510 360 l 2
 510 489 440 560 330 560 c 0
330 620 m 0
 470 620 580 528 580 360 c 2
 580 220 l 2
 580 57 468 -20 330 -20 c 0
 192 -20 80 57 80 220 c 2
 80 360 l 2
 80 528 190 620 330 620 c 0
EndSplineSet
EndChar

StartChar: O
Encoding: 79 79 107
Width: 800
VWidth: 0
Flags: W
HStem: -20 60<282.256 517.744> 760 60<283.31 516.69>
VStem: 90 70<161.541 637.885> 640 70<161.541 637.885>
AnchorPoint: "ring_above" 400 750 basechar 0
AnchorPoint: "diac_top" 400 850 basechar 0
AnchorPoint: "ogonek" 430 40 basechar 0
AnchorPoint: "cedilla" 420 40 basechar 0
AnchorPoint: "diac_bottom" 400 -50 basechar 0
LayerCount: 2
Fore
SplineSet
640 520 m 2
 640 649 563 760 400 760 c 0
 237 760 160 649 160 520 c 2
 160 270 l 2
 160 150 235 40 400 40 c 0
 565 40 640 150 640 270 c 2
 640 520 l 2
710 520 m 2
 710 270 l 2
 710 88 580 -20 400 -20 c 0
 220 -20 90 88 90 270 c 2
 90 520 l 2
 90 706 223 820 400 820 c 0
 577 820 710 707 710 520 c 2
EndSplineSet
EndChar

StartChar: I
Encoding: 73 73 108
Width: 320
VWidth: 0
Flags: W
HStem: 0 21G<125 195> 780 20G<125 195>
VStem: 125 70<0 800>
AnchorPoint: "diac_top" 160 850 basechar 0
AnchorPoint: "hook_above" 160 850 basechar 0
AnchorPoint: "ogonek" 170 40 basechar 0
AnchorPoint: "cedilla" 177.004 40 basechar 0
AnchorPoint: "diac_bottom" 160 -50 basechar 0
LayerCount: 2
Fore
SplineSet
125 800 m 1
 195 800 l 1
 195 0 l 1
 125 0 l 1
 125 800 l 1
EndSplineSet
EndChar

StartChar: X
Encoding: 88 88 109
Width: 770
VWidth: 0
Flags: W
HStem: 0 21G<25 129.754 640.246 745> 780 20G<65 169.744 600.256 705>
AnchorPoint: "diac_top" 385 850 basechar 0
AnchorPoint: "ring_above" 385 750 basechar 0
AnchorPoint: "cedilla" 90 40 basechar 0
AnchorPoint: "diac_bottom" 385 -50 basechar 0
LayerCount: 2
Fore
SplineSet
65 800 m 1
 155 800 l 1
 385 488 l 1
 615 800 l 1
 705 800 l 1
 430 427 l 1
 745 0 l 1
 655 0 l 1
 385 366 l 1
 115 0 l 1
 25 0 l 1
 340 427 l 1
 65 800 l 1
EndSplineSet
EndChar

StartChar: H
Encoding: 72 72 110
Width: 800
VWidth: 0
Flags: W
HStem: 0 21G<110 180 620 690> 370 60<180 620> 780 20G<110 180 620 690>
VStem: 110 70<0 370 430 800> 620 70<0 370 430 800>
AnchorPoint: "diac_bottom" 400 -50 basechar 0
AnchorPoint: "diac_top" 400 850 basechar 0
AnchorPoint: "cedilla" 140 40 basechar 0
LayerCount: 2
Fore
SplineSet
690 0 m 1
 620 0 l 1
 620 370 l 1
 180 370 l 1
 180 0 l 1
 110 0 l 1
 110 800 l 1
 180 800 l 1
 180 430 l 1
 620 430 l 1
 620 800 l 1
 690 800 l 1
 690 0 l 1
EndSplineSet
EndChar

StartChar: P
Encoding: 80 80 111
Width: 740
VWidth: 0
Flags: W
HStem: 0 21G<110 180> 320 60<180 515.603> 740 60<180 515.603>
VStem: 110 70<0 320 380 740> 600 70<461.692 658.307>
AnchorPoint: "diac_bottom" 338.744 -50 basechar 0
AnchorPoint: "diac_top" 360 850 basechar 0
LayerCount: 2
Fore
SplineSet
410 800 m 2
 611 800 670 668 670 560 c 0
 670 452 611 320 410 320 c 2
 180 320 l 1
 180 0 l 1
 110 0 l 1
 110 800 l 1
 410 800 l 2
410 740 m 2
 180 740 l 1
 180 380 l 1
 410 380 l 2
 533 380 600 458 600 560 c 0
 600 662 533 740 410 740 c 2
EndSplineSet
EndChar

StartChar: p
Encoding: 112 112 112
Width: 710
VWidth: 0
Flags: W
HStem: -20 60<266.109 462.643> 560 60<269.683 466.076> 580 20G<110 180>
VStem: 110 70<-270 78 125.219 480.688 516 600> 550 70<133.71 473.62>
AnchorPoint: "diac_bottom" 420 -50 basechar 0
AnchorPoint: "diac_top" 360 650 basechar 0
LayerCount: 2
Fore
SplineSet
180 436 m 1xd8
 180 181 l 1
 204 101 269 40 360 40 c 0
 477 40 550 111 550 260 c 2
 550 360 l 2
 550 489 482 560 360 560 c 0
 270 560 204 496 180 436 c 1xd8
180 -270 m 1
 110 -270 l 1
 110 600 l 1
 180 600 l 1xb8
 180 516 l 1
 222 576 293 620 380 620 c 0
 536 620 620 519 620 360 c 2
 620 260 l 2
 620 72 524 -20 380 -20 c 0
 286 -20 220 20 180 78 c 1
 180 -270 l 1
EndSplineSet
EndChar

StartChar: K
Encoding: 75 75 113
Width: 730
VWidth: 0
Flags: W
HStem: 0 21G<110 180 585.436 690> 390 60<180 298> 780 20G<110 180 545.029 640>
VStem: 110 70<0 390 450 800>
AnchorPoint: "diac_top" 370 850 basechar 0
AnchorPoint: "diac_bottom" 370 -50 basechar 0
LayerCount: 2
Fore
SplineSet
560 800 m 1
 640 800 l 1
 365 440 l 1
 690 0 l 1
 600 0 l 1
 316 390 l 1
 180 390 l 1
 180 0 l 1
 110 0 l 1
 110 800 l 1
 180 800 l 1
 180 450 l 1
 298 450 l 1
 560 800 l 1
EndSplineSet
EndChar

StartChar: j
Encoding: 106 106 114
Width: 340
VWidth: 0
Flags: WO
HStem: -290 60<20 111.497> 580 20G<150 220> 730 120<131.108 228.892>
VStem: 120 120<741.108 838.892> 150 70<-191.811 600>
AnchorPoint: "diac_bottom" 358.744 -50 basechar 0
LayerCount: 2
Fore
SplineSet
240 790 m 4xf0
 240 757 213 730 180 730 c 4
 147 730 120 757 120 790 c 4
 120 823 147 850 180 850 c 4
 213 850 240 823 240 790 c 4xf0
220 -100 m 2xe8
 220 -217 167 -290 20 -290 c 1
 20 -230 l 1
 113 -230 150 -187 150 -100 c 2
 150 600 l 1
 220 600 l 1
 220 -100 l 2xe8
EndSplineSet
EndChar

StartChar: D
Encoding: 68 68 115
Width: 780
VWidth: 0
Flags: W
HStem: 0 60<180 498.408> 740 60<180 469.135>
VStem: 110 70<60 740> 630 70<188.082 586.644>
AnchorPoint: "diac_top" 350 850 basechar 0
AnchorPoint: "ogonek" 370 40 basechar 0
AnchorPoint: "cedilla" 370 40 basechar 0
AnchorPoint: "diac_bottom" 338.744 -50 basechar 0
LayerCount: 2
Fore
SplineSet
350 0 m 2
 110 0 l 1
 110 800 l 1
 320 800 l 2
 576 800 700 684 700 450 c 2
 700 330 l 2
 700 97 592 0 350 0 c 2
320 740 m 1
 180 740 l 1
 180 60 l 1
 350 60 l 2
 568 60 630 162 630 330 c 2
 630 450 l 2
 630 638 529 739 320 740 c 1
EndSplineSet
EndChar

StartChar: E
Encoding: 69 69 116
Width: 670
VWidth: 0
Flags: W
HStem: 0 60<180 590> 370 60<180 550> 740 60<180 580>
VStem: 110 70<60 370 430 740>
CounterMasks: 1 e0
AnchorPoint: "hook_above" 335 850 basechar 0
AnchorPoint: "diac_top" 335 850 basechar 0
AnchorPoint: "cedilla" 360 40 basechar 0
AnchorPoint: "ogonek" 540 40 basechar 0
AnchorPoint: "diac_bottom" 328.744 -50 basechar 0
LayerCount: 2
Fore
SplineSet
180 60 m 1
 590 60 l 1
 590 0 l 1
 180 0 l 1
 110 0 l 1
 110 90 l 1
 110 355 l 1
 110 445 l 1
 110 710 l 1
 110 800 l 1
 180 800 l 1
 580 800 l 1
 580 740 l 1
 180 740 l 1
 180 430 l 1
 550 430 l 1
 550 370 l 1
 180 370 l 1
 180 60 l 1
EndSplineSet
EndChar

StartChar: L
Encoding: 76 76 117
Width: 590
VWidth: 0
Flags: W
HStem: 0 60<180 570> 780 20G<110 180>
VStem: 110 70<60 800>
AnchorPoint: "diac_top" 150 850 basechar 0
AnchorPoint: "diac_bottom" 300 -50 basechar 0
LayerCount: 2
Fore
SplineSet
180 60 m 1
 570 60 l 1
 570 0 l 1
 180 0 l 1
 110 0 l 1
 110 60 l 1
 110 800 l 1
 180 800 l 1
 180 60 l 1
EndSplineSet
EndChar

StartChar: F
Encoding: 70 70 118
Width: 650
VWidth: 0
Flags: W
HStem: 0 21G<110 180> 370 60<180 550> 740 60<180 580>
VStem: 110 70<0 370 430 740>
AnchorPoint: "diac_bottom" 328.744 -50 basechar 0
AnchorPoint: "diac_top" 335 850 basechar 0
LayerCount: 2
Fore
SplineSet
180 0 m 1
 110 0 l 1
 110 355 l 1
 110 445 l 1
 110 710 l 1
 110 800 l 1
 180 800 l 1
 580 800 l 1
 580 740 l 1
 180 740 l 1
 180 430 l 1
 550 430 l 1
 550 370 l 1
 180 370 l 1
 180 0 l 1
EndSplineSet
EndChar

StartChar: J
Encoding: 74 74 119
Width: 540
VWidth: 0
Flags: W
HStem: -20 60<157.745 322.255> 780 20G<360 430>
VStem: 50 70<78.7015 150> 360 70<78.7015 800>
AnchorPoint: "diac_top" 390 850 basechar 0
AnchorPoint: "diac_bottom" 240 -50 basechar 0
LayerCount: 2
Fore
SplineSet
240 -20 m 0
 126 -20 50 53 50 150 c 1
 120 150 l 1
 120 99 149 40 240 40 c 0
 330 40 360 99 360 150 c 2
 360 800 l 1
 430 800 l 1
 430 150 l 2
 430 53 355 -20 240 -20 c 0
EndSplineSet
EndChar

StartChar: T
Encoding: 84 84 120
Width: 580
VWidth: 0
Flags: W
HStem: 0 21G<255 325> 740 60<60 255 325 520>
VStem: 255 70<0 740>
AnchorPoint: "diac_top" 290 850 basechar 0
AnchorPoint: "cedilla" 280 40 basechar 0
AnchorPoint: "diac_bottom" 290 -50 basechar 0
LayerCount: 2
Fore
SplineSet
60 740 m 1
 60 800 l 1
 255 800 l 1
 325 800 l 1
 520 800 l 1
 520 740 l 1
 325 740 l 1
 325 0 l 1
 255 0 l 1
 255 740 l 1
 60 740 l 1
EndSplineSet
EndChar

StartChar: N
Encoding: 78 78 121
Width: 800
VWidth: 0
Flags: W
HStem: 0 21G<110 180 607.246 690> 780 20G<110 192.754 620 690>
VStem: 110 70<0 690> 620 70<110 800>
AnchorPoint: "diac_top" 400 850 basechar 0
AnchorPoint: "cedilla" 130 40 basechar 0
AnchorPoint: "diac_bottom" 400 -50 basechar 0
LayerCount: 2
Fore
SplineSet
180 0 m 1
 110 0 l 1
 110 800 l 1
 180 800 l 1
 620 110 l 1
 620 800 l 1
 690 800 l 1
 690 0 l 1
 620 0 l 1
 180 690 l 1
 180 0 l 1
EndSplineSet
EndChar

StartChar: M
Encoding: 77 77 122
Width: 960
VWidth: 0
Flags: W
HStem: 0 21G<110 180 451.515 508.485 780 850> 780 20G<110 198.286 761.714 850>
VStem: 110 70<0 660> 780 70<0 660>
AnchorPoint: "diac_bottom" 480 -50 basechar 0
AnchorPoint: "diac_top" 480 850 basechar 0
AnchorPoint: "cedilla" 470 40 basechar 0
LayerCount: 2
Fore
SplineSet
850 0 m 1
 780 0 l 1
 780 660 l 1
 500 0 l 1
 480 0 l 1
 460 0 l 1
 180 660 l 1
 180 0 l 1
 110 0 l 1
 110 800 l 1
 180 800 l 1
 190 800 l 1
 480 100 l 1
 770 800 l 1
 780 800 l 1
 850 800 l 1
 850 0 l 1
EndSplineSet
EndChar

StartChar: U
Encoding: 85 85 123
Width: 800
VWidth: 0
Flags: W
HStem: -20 60<283.929 516.071> 780 20G<100 170 630 700>
VStem: 100 70<149.499 800> 630 70<149.499 800>
AnchorPoint: "hook_above" 400 850 basechar 0
AnchorPoint: "ring_above" 400 750 basechar 0
AnchorPoint: "diac_top" 400 850 basechar 0
AnchorPoint: "ogonek" 430 40 basechar 0
AnchorPoint: "cedilla" 417.004 40 basechar 0
AnchorPoint: "diac_bottom" 400 -50 basechar 0
LayerCount: 2
Fore
SplineSet
700 260 m 2
 700 85 577 -20 400 -20 c 0
 223 -20 100 85 100 260 c 2
 100 800 l 1
 170 800 l 1
 170 260 l 2
 170 115 277 40 400 40 c 0
 523 40 630 115 630 260 c 2
 630 800 l 1
 700 800 l 1
 700 260 l 2
EndSplineSet
EndChar

StartChar: b
Encoding: 98 98 124
Width: 710
VWidth: 0
Flags: W
HStem: -20 60<269.683 466.076> 0 21G<110 180> 560 60<266.109 462.643> 880 20G<110 180>
VStem: 110 70<0 84 119.312 474.781 522 900> 550 70<126.38 466.29>
AnchorPoint: "diac_top" 410 650 basechar 0
AnchorPoint: "diac_bottom" 360 -50 basechar 0
LayerCount: 2
Fore
SplineSet
180 84 m 1xbc
 180 0 l 1
 110 0 l 1x7c
 110 900 l 1
 180 900 l 1
 180 522 l 1
 220 580 286 620 380 620 c 0
 524 620 620 528 620 340 c 2
 620 240 l 2
 620 81 536 -20 380 -20 c 0
 293 -20 222 24 180 84 c 1xbc
180 164 m 1
 204 104 270 40 360 40 c 0xbc
 482 40 550 111 550 240 c 2
 550 340 l 2
 550 489 477 560 360 560 c 0
 269 560 204 499 180 419 c 1
 180 164 l 1
EndSplineSet
EndChar

StartChar: R
Encoding: 82 82 125
Width: 780
VWidth: 0
Flags: W
HStem: 0 21G<110 180 637.578 730> 320 60<180 449.391> 740 60<180 515.603>
VStem: 110 70<0 320 380 740> 600 70<462.104 658.307>
AnchorPoint: "diac_top" 360 850 basechar 0
AnchorPoint: "diac_bottom" 380 -50 basechar 0
LayerCount: 2
Fore
SplineSet
410 800 m 2
 611 800 670 668 670 560 c 0
 670 475 633 376 521 337 c 1
 730 0 l 1
 650 0 l 1
 450 322 l 1
 437 321 424 320 410 320 c 2
 180 320 l 1
 180 0 l 1
 110 0 l 1
 110 800 l 1
 410 800 l 2
410 740 m 2
 180 740 l 1
 180 380 l 1
 410 380 l 2
 533 380 600 458 600 560 c 0
 600 662 533 740 410 740 c 2
EndSplineSet
EndChar

StartChar: V
Encoding: 86 86 126
Width: 800
VWidth: 0
Flags: W
HStem: 0 21G<356.875 443.125> 780 20G<40 127.876 672.124 760>
AnchorPoint: "diac_top" 400 850 basechar 0
AnchorPoint: "diac_bottom" 400 -50 basechar 0
LayerCount: 2
Fore
SplineSet
365 0 m 1
 40 800 l 1
 120 800 l 1
 400 89 l 1
 680 800 l 1
 760 800 l 1
 435 0 l 1
 365 0 l 1
EndSplineSet
EndChar

StartChar: Y
Encoding: 89 89 127
Width: 700
VWidth: 0
Flags: W
HStem: 0 21G<315 385> 780 20G<40 131.22 568.781 660>
VStem: 315 70<0 320>
AnchorPoint: "hook_above" 350 850 basechar 0
AnchorPoint: "diac_bottom" 350 -50 basechar 0
AnchorPoint: "ring_above" 350 750 basechar 0
AnchorPoint: "diac_top" 350 850 basechar 0
LayerCount: 2
Fore
SplineSet
40 800 m 1
 120 800 l 1
 350 390 l 1
 580 800 l 1
 660 800 l 1
 385 320 l 1
 385 0 l 1
 315 0 l 1
 315 320 l 1
 40 800 l 1
EndSplineSet
EndChar

StartChar: A
Encoding: 65 65 128
Width: 800
VWidth: 0
Flags: W
HStem: 0 21G<40 127.889 672.111 760> 180 60<214 586> 780 20G<356.875 443.125>
AnchorPoint: "diac_top" 400 850 basechar 0
AnchorPoint: "hook_above" 400 850 basechar 0
AnchorPoint: "ring_above" 400 750 basechar 0
AnchorPoint: "diac_bottom" 400 -50 basechar 0
AnchorPoint: "ogonek" 700 40 basechar 0
AnchorPoint: "cedilla" 707.004 40 basechar 0
LayerCount: 2
Fore
SplineSet
586 240 m 1
 400 711 l 1
 214 240 l 1
 586 240 l 1
760 0 m 1
 680 0 l 1
 609 180 l 1
 191 180 l 1
 120 0 l 1
 40 0 l 1
 365 800 l 1
 435 800 l 1
 760 0 l 1
EndSplineSet
EndChar

StartChar: Q
Encoding: 81 81 129
Width: 800
VWidth: 0
Flags: W
HStem: -20 60<282.256 522.295> 760 60<283.31 516.69>
VStem: 90 70<161.541 637.885> 640 70<156.516 637.885>
AnchorPoint: "diac_bottom" 400 -50 basechar 0
AnchorPoint: "diac_top" 400 850 basechar 0
AnchorPoint: "ring_above" 400 750 basechar 0
LayerCount: 2
Fore
SplineSet
710 520 m 2
 710 270 l 2
 710 190 685 125 642 76 c 1
 755 -38 l 1
 713 -80 l 1
 597 36 l 1
 544 0 477 -20 400 -20 c 0
 220 -20 90 88 90 270 c 2
 90 520 l 2
 90 706 223 820 400 820 c 0
 577 820 710 707 710 520 c 2
430 203 m 1
 472 245 l 1
 594 124 l 1
 625 165 640 216 640 270 c 2
 640 520 l 2
 640 649 563 760 400 760 c 0
 237 760 160 649 160 520 c 2
 160 270 l 2
 160 150 235 40 400 40 c 0
 463 40 513 56 550 82 c 1
 430 203 l 1
EndSplineSet
EndChar

StartChar: Z
Encoding: 90 90 130
Width: 740
VWidth: 0
Flags: W
HStem: 0 60<150 670> 740 60<100 570>
AnchorPoint: "diac_top" 370 850 basechar 0
AnchorPoint: "cedilla" 380 40 basechar 0
AnchorPoint: "diac_bottom" 370 -50 basechar 0
LayerCount: 2
Fore
SplineSet
100 800 m 1
 650 800 l 1
 650 740 l 1
 150 60 l 1
 670 60 l 1
 670 0 l 1
 70 0 l 1
 70 60 l 1
 570 740 l 1
 100 740 l 1
 100 800 l 1
EndSplineSet
EndChar

StartChar: W
Encoding: 87 87 131
Width: 1100
VWidth: 0
Flags: W
HStem: 0 21G<274 365.621 734.379 826> 780 20G<40 125.755 509.388 590.612 974.245 1060>
AnchorPoint: "diac_top" 550 850 basechar 0
AnchorPoint: "diac_bottom" 550 -50 basechar 0
AnchorPoint: "ring_above" 550 750 basechar 0
LayerCount: 2
Fore
SplineSet
1060 800 m 1
 820 0 l 1
 810 0 l 1
 750 0 l 1
 740 0 l 1
 550 676 l 1
 360 0 l 1
 350 0 l 1
 290 0 l 1
 280 0 l 1
 40 800 l 1
 120 800 l 1
 320 105 l 1
 515 800 l 1
 585 800 l 1
 780 105 l 1
 980 800 l 1
 1060 800 l 1
EndSplineSet
EndChar

StartChar: S
Encoding: 83 83 132
Width: 790
VWidth: 0
Flags: W
HStem: -20 60<266.27 521.763> 760 60<274.379 505.621>
VStem: 90 70<146.1 250> 110 70<520.382 675.753> 600 70<590 674.758> 630 70<136.318 304.408>
AnchorPoint: "diac_bottom" 395 -50 basechar 0
AnchorPoint: "diac_top" 395 850 basechar 0
AnchorPoint: "cedilla" 420 40 basechar 0
LayerCount: 2
Fore
SplineSet
700 230 m 0xd4
 700 76 572 -20 390 -20 c 0
 208 -20 90 89 90 250 c 1
 160 250 l 1
 160 127 242 40 390 40 c 0
 538 40 630 115 630 230 c 0xe4
 630 347 502 376 390 390 c 0
 292 402 110 423 110 590 c 0
 110 694 205 820 390 820 c 0
 575 820 670 694 670 590 c 1
 600 590 l 1xd8
 600 665 542 760 390 760 c 0
 238 760 180 665 180 590 c 0
 180 488 291 468 390 455 c 0
 517 439 700 407 700 230 c 0xd4
EndSplineSet
EndChar

StartChar: u
Encoding: 117 117 133
Width: 660
VWidth: 0
Flags: W
HStem: -20 60<233.216 426.784> 580 20G<100 170 490 560>
VStem: 100 70<105.719 600> 490 70<105.719 600>
AnchorPoint: "diac_top" 330 650 basechar 0
AnchorPoint: "hook_above" 330 680 basechar 0
AnchorPoint: "ring_above" 330 650 basechar 0
AnchorPoint: "ogonek" 350 40 basechar 0
AnchorPoint: "cedilla" 347.004 40 basechar 0
AnchorPoint: "diac_bottom" 308.744 -50 basechar 0
LayerCount: 2
Fore
SplineSet
170 200 m 2
 170 103 224 40 330 40 c 0
 436 40 490 103 490 200 c 2
 490 600 l 1
 560 600 l 1
 560 200 l 2
 560 58 461 -20 330 -20 c 0
 199 -20 100 58 100 200 c 2
 100 600 l 1
 170 600 l 1
 170 200 l 2
EndSplineSet
EndChar

StartChar: C
Encoding: 67 67 134
Width: 810
VWidth: 0
Flags: W
HStem: -20 60<282.136 537.865> 760 60<288.019 531.981>
VStem: 100 70<146.397 650.852> 650 70<146.397 250 540 650.852>
AnchorPoint: "diac_top" 405 850 basechar 0
AnchorPoint: "ogonek" 427.004 40 basechar 0
AnchorPoint: "diac_bottom" 388.744 -50 basechar 0
AnchorPoint: "cedilla" 425 40 basechar 0
LayerCount: 2
Fore
SplineSet
410 820 m 0
 580 820 720 716 720 540 c 1
 650 540 l 1
 650 697 530 760 410 760 c 0
 290 760 170 697 170 540 c 2
 170 250 l 2
 170 93 290 40 410 40 c 0
 530 40 650 93 650 250 c 1
 720 250 l 1
 720 74 580 -20 410 -20 c 0
 240 -20 100 74 100 250 c 2
 100 540 l 2
 100 716 240 820 410 820 c 0
EndSplineSet
EndChar

StartChar: d
Encoding: 100 100 135
Width: 710
VWidth: 0
Flags: W
HStem: -20 60<243.924 440.317> 0 21G<530 600> 560 60<247.357 443.891> 880 20G<530 600>
VStem: 90 70<126.38 466.29> 530 70<0 84 119.312 474.781 522 900>
AnchorPoint: "cedilla" 360 40 basechar 0
AnchorPoint: "diac_bottom" 350 -50 basechar 0
AnchorPoint: "diac_top" 300 650 basechar 0
LayerCount: 2
Fore
SplineSet
530 164 m 1xbc
 530 419 l 1
 506 499 441 560 350 560 c 0
 233 560 160 489 160 340 c 2
 160 240 l 2
 160 111 228 40 350 40 c 0
 440 40 506 104 530 164 c 1xbc
530 84 m 1
 488 24 417 -20 330 -20 c 0xbc
 174 -20 90 81 90 240 c 2
 90 340 l 2
 90 528 186 620 330 620 c 0
 424 620 490 580 530 522 c 1
 530 900 l 1
 600 900 l 1
 600 0 l 1
 530 0 l 1x7c
 530 84 l 1
EndSplineSet
EndChar

StartChar: G
Encoding: 71 71 136
Width: 820
VWidth: 0
Flags: W
HStem: -20 60<290.154 547.112> 350 60<445 660> 760 60<284.721 535.501>
VStem: 100 70<154.548 649.824> 650 70<540 649.824> 660 60<130.039 350>
AnchorPoint: "diac_bottom" 410 -50 basechar 0
AnchorPoint: "diac_top" 410 850 basechar 0
LayerCount: 2
Fore
SplineSet
410 40 m 0xf8
 542 40 615 93 660 160 c 1
 660 350 l 1
 445 350 l 1
 445 410 l 1
 720 410 l 1
 720 140 l 1xf4
 666 32 542 -20 410 -20 c 0
 243 -20 100 78 100 250 c 2
 100 540 l 2
 100 712 233 820 410 820 c 0
 587 820 720 712 720 540 c 1
 650 540 l 1
 650 665 573 760 410 760 c 0
 248 760 170 665 170 540 c 2
 170 250 l 2
 170 135 263 40 410 40 c 0xf8
EndSplineSet
EndChar

StartChar: g
Encoding: 103 103 137
Width: 710
VWidth: 0
Flags: W
HStem: -290 60<238.564 461.436> -20 60<247.357 443.891> 560 60<243.924 440.317> 580 20G<530 600>
VStem: 90 70<133.71 473.62> 100 70<-166.133 -80> 530 70<-166.133 78 125.219 480.688 516 600>
AnchorPoint: "diac_top" 350 650 basechar 0
LayerCount: 2
Fore
SplineSet
530 436 m 1xea
 506 496 440 560 350 560 c 0
 228 560 160 489 160 360 c 2
 160 260 l 2
 160 111 233 40 350 40 c 0
 441 40 506 101 530 181 c 1
 530 436 l 1xea
600 -80 m 2
 600 -207 507 -290 350 -290 c 0
 193 -290 100 -207 100 -80 c 1
 170 -80 l 1xd6
 170 -168 233 -230 350 -230 c 0
 467 -230 530 -168 530 -80 c 2
 530 78 l 1
 490 20 424 -20 330 -20 c 0
 186 -20 90 72 90 260 c 2
 90 360 l 2
 90 519 174 620 330 620 c 0xea
 417 620 488 576 530 516 c 1
 530 600 l 1
 600 600 l 1xda
 600 -80 l 2
EndSplineSet
EndChar

StartChar: l
Encoding: 108 108 138
Width: 350
VWidth: 0
Flags: W
HStem: -10 60<205.547 250> 880 20G<130 200>
VStem: 130 70<54.2052 900>
AnchorPoint: "diac_top" 160 950 basechar 0
AnchorPoint: "diac_bottom" 190 -50 basechar 0
LayerCount: 2
Fore
SplineSet
250 -10 m 1
 168 -10 130 26 130 100 c 2
 130 900 l 1
 200 900 l 1
 200 120 l 2
 200 66 213 50 250 50 c 1
 250 -10 l 1
EndSplineSet
EndChar

StartChar: n
Encoding: 110 110 139
Width: 670
VWidth: 0
Flags: W
HStem: 0 21G<100 170 510 580> 560 60<275.434 461.579> 580 20G<100 170>
VStem: 100 70<0 461.676 490 600> 510 70<0 510.676>
AnchorPoint: "diac_bottom" 340 -50 basechar 0
AnchorPoint: "diac_top" 350 650 basechar 0
AnchorPoint: "cedilla" 120 40 basechar 0
LayerCount: 2
Fore
SplineSet
100 600 m 1xb8
 170 600 l 1xb8
 170 490 l 1
 201 543 265 620 380 620 c 0
 502 620 580 542 580 420 c 2
 580 0 l 1
 510 0 l 1
 510 420 l 2
 510 495 475 560 370 560 c 0xd8
 265 560 201 480 170 421 c 1
 170 0 l 1
 100 0 l 1
 100 600 l 1xb8
EndSplineSet
EndChar

StartChar: m
Encoding: 109 109 140
Width: 970
VWidth: 0
Flags: W
HStem: 0 21G<100 170 455 525 810 880> 560 60<260.985 415.012 605.54 770.872> 580 20G<100 170>
VStem: 100 70<0 461.281 495 600> 455 70<0 479> 810 70<0 519.348>
CounterMasks: 1 1c
AnchorPoint: "diac_top" 490 650 basechar 0
AnchorPoint: "diac_bottom" 490 -50 basechar 0
AnchorPoint: "cedilla" 480 40 basechar 0
LayerCount: 2
Fore
SplineSet
100 600 m 1xbc
 170 600 l 1xbc
 170 495 l 1
 198 549 257 620 355 620 c 0
 431 620 487 571 512 501 c 1
 537 542 598 620 700 620 c 0
 819 620 880 530 880 420 c 2
 880 0 l 1
 810 0 l 1
 810 420 l 2
 810 512 775 560 690 560 c 0
 606 560 553 496 525 432 c 1
 525 428 525 424 525 420 c 2
 525 0 l 1
 455 0 l 1
 455 420 l 2
 455 505 420 560 340 560 c 0xdc
 253 560 197 480 170 406 c 1
 170 0 l 1
 100 0 l 1
 100 600 l 1xbc
EndSplineSet
EndChar

StartChar: q
Encoding: 113 113 141
Width: 710
VWidth: 0
Flags: W
HStem: -20 60<247.357 443.891> 560 60<243.924 440.317> 580 20G<530 600>
VStem: 90 70<133.71 473.62> 530 70<-270 78 125.219 480.688 516 600>
AnchorPoint: "diac_top" 340 650 basechar 0
AnchorPoint: "diac_bottom" 240 -50 basechar 0
LayerCount: 2
Fore
SplineSet
530 436 m 1xd8
 506 496 440 560 350 560 c 0
 228 560 160 489 160 360 c 2
 160 260 l 2
 160 111 233 40 350 40 c 0
 441 40 506 101 530 181 c 1
 530 436 l 1xd8
530 -270 m 1
 530 78 l 1
 490 20 424 -20 330 -20 c 0
 186 -20 90 72 90 260 c 2
 90 360 l 2
 90 519 174 620 330 620 c 0xd8
 417 620 488 576 530 516 c 1
 530 600 l 1
 600 600 l 1xb8
 600 -270 l 1
 530 -270 l 1
EndSplineSet
EndChar

StartChar: a
Encoding: 97 97 142
Width: 700
VWidth: 0
Flags: W
HStem: -20 60<217.276 419.809> -10 60<576.04 620> 290 50<209.701 500> 560 60<236.309 443.691>
VStem: 90 70<93.6285 245.109> 110 70<420 502.719> 500 70<121.073 290 340 502.719>
AnchorPoint: "diac_top" 340 650 basechar 0
AnchorPoint: "hook_above" 340 680 basechar 0
AnchorPoint: "ring_above" 340 650 basechar 0
AnchorPoint: "diac_bottom" 340 -50 basechar 0
AnchorPoint: "ogonek" 590 40 basechar 0
AnchorPoint: "cedilla" 587.004 40 basechar 0
LayerCount: 2
Fore
SplineSet
500 290 m 1xba
 310 290 l 2
 213 290 160 247 160 170 c 0
 160 95 218 40 320 40 c 0
 426 40 500 108 500 220 c 2
 500 290 l 1xba
570 420 m 2
 570 120 l 2
 570 66 583 50 620 50 c 1
 620 -10 l 1x76
 545 -10 507 20 501 81 c 1
 467 22 406 -20 310 -20 c 0
 169 -20 90 60 90 170 c 0xba
 90 282 175 340 300 340 c 2
 500 340 l 1
 500 420 l 2
 500 487 465 560 340 560 c 0
 215 560 180 487 180 420 c 1
 110 420 l 1xb6
 110 542 201 620 340 620 c 0
 479 620 570 542 570 420 c 2
EndSplineSet
EndChar

StartChar: h
Encoding: 104 104 143
Width: 680
VWidth: 0
Flags: W
HStem: 0 21G<110 180 520 590> 560 60<285.434 471.579> 880 20G<110 180>
VStem: 110 70<0 461.676 490 900> 520 70<0 510.676>
AnchorPoint: "diac_bottom" 350 -50 basechar 0
AnchorPoint: "diac_top" 430 650 basechar 0
AnchorPoint: "cedilla" 140 40 basechar 0
LayerCount: 2
Fore
SplineSet
110 900 m 1
 180 900 l 1
 180 600 l 1
 180 490 l 1
 211 543 275 620 390 620 c 0
 512 620 590 542 590 420 c 2
 590 0 l 1
 520 0 l 1
 520 420 l 2
 520 495 485 560 380 560 c 0
 275 560 211 480 180 421 c 1
 180 0 l 1
 110 0 l 1
 110 600 l 1
 110 900 l 1
EndSplineSet
EndChar

StartChar: e
Encoding: 101 101 144
Width: 680
VWidth: 0
Flags: W
HStem: -20 60<232.005 447.995> 290 50<160 520> 560 60<242.129 437.871>
VStem: 90 70<111.741 290 340 471.5> 520 70<111.741 200 340 471.5>
AnchorPoint: "hook_above" 340 680 basechar 0
AnchorPoint: "diac_bottom" 340 -50 basechar 0
AnchorPoint: "diac_top" 340 650 basechar 0
AnchorPoint: "cedilla" 360 40 basechar 0
AnchorPoint: "ogonek" 360 40 basechar 0
LayerCount: 2
Fore
SplineSet
590 360 m 2
 590 290 l 1
 160 290 l 1
 160 200 l 2
 160 101 227 40 340 40 c 0
 453 40 520 101 520 200 c 1
 590 200 l 1
 590 47 468 -20 340 -20 c 0
 212 -20 90 47 90 200 c 2
 90 360 l 2
 90 528 201 620 340 620 c 0
 479 620 590 528 590 360 c 2
520 360 m 2
 520 489 450 560 340 560 c 0
 230 560 160 489 160 360 c 2
 160 340 l 1
 520 340 l 1
 520 360 l 2
EndSplineSet
EndChar

StartChar: c
Encoding: 99 99 145
Width: 640
VWidth: 0
Flags: W
HStem: -20 60<222.892 437.108> 560 60<227.174 432.826>
VStem: 90 70<100.656 490.906> 500 70<100.656 190 400 490.906>
AnchorPoint: "diac_top" 330 650 basechar 0
AnchorPoint: "diac_bottom" 330 -50 basechar 0
AnchorPoint: "cedilla" 340 40 basechar 0
LayerCount: 2
Fore
SplineSet
330 620 m 0
 470 620 570 534 570 400 c 1
 500 400 l 1
 500 500 436 560 330 560 c 0
 224 560 160 500 160 400 c 2
 160 190 l 2
 160 90 224 40 330 40 c 0
 436 40 500 90 500 190 c 1
 570 190 l 1
 570 56 470 -20 330 -20 c 0
 190 -20 90 56 90 190 c 2
 90 400 l 2
 90 534 190 620 330 620 c 0
EndSplineSet
EndChar

StartChar: w
Encoding: 119 119 146
Width: 850
VWidth: 0
Flags: W
HStem: 0 21G<214.333 305.165 544.835 635.667> 580 20G<50 130.331 389.825 460.175 719.669 800>
AnchorPoint: "diac_top" 425 650 basechar 0
AnchorPoint: "diac_bottom" 425 -50 basechar 0
AnchorPoint: "ring_above" 425 650 basechar 0
LayerCount: 2
Fore
SplineSet
725 600 m 1
 800 600 l 1
 630 0 l 1
 610 0 l 1
 565 0 l 1
 550 0 l 1
 425 484 l 1
 300 0 l 1
 285 0 l 1
 240 0 l 1
 220 0 l 1
 50 600 l 1
 125 600 l 1
 262 86 l 1
 395 600 l 1
 455 600 l 1
 588 86 l 1
 725 600 l 1
EndSplineSet
EndChar

StartChar: v
Encoding: 118 118 147
Width: 660
VWidth: 0
Flags: W
HStem: 0 21G<286.833 373.167> 580 20G<50 137.828 522.172 610>
AnchorPoint: "diac_bottom" 330 -50 basechar 0
AnchorPoint: "diac_top" 330 650 basechar 0
LayerCount: 2
Fore
SplineSet
530 600 m 1
 610 600 l 1
 365 0 l 1
 295 0 l 1
 50 600 l 1
 130 600 l 1
 330 89 l 1
 530 600 l 1
EndSplineSet
EndChar

StartChar: z
Encoding: 122 122 148
Width: 620
VWidth: 0
Flags: W
HStem: 0 60<150 550> 540 60<90 460>
AnchorPoint: "diac_bottom" 310 -50 basechar 0
AnchorPoint: "diac_top" 310 650 basechar 0
AnchorPoint: "cedilla" 320 40 basechar 0
LayerCount: 2
Fore
SplineSet
90 600 m 1
 540 600 l 1
 540 540 l 1
 150 60 l 1
 550 60 l 1
 550 0 l 1
 70 0 l 1
 70 60 l 1
 460 540 l 1
 90 540 l 1
 90 600 l 1
EndSplineSet
EndChar

StartChar: y
Encoding: 121 121 149
Width: 660
VWidth: 0
Flags: W
HStem: -290 60<110 209.229> 580 20G<50 137.828 522.172 610>
AnchorPoint: "hook_above" 330 680 basechar 0
AnchorPoint: "diac_top" 330 650 basechar 0
AnchorPoint: "diac_bottom" 508.744 -50 basechar 0
AnchorPoint: "ogonek" 298.744 -50 basechar 0
AnchorPoint: "ring_above" 330 650 basechar 0
LayerCount: 2
Fore
SplineSet
530 600 m 1
 610 600 l 1
 365 0 l 1
 295 -180 l 1
 261 -264 223 -290 110 -290 c 1
 110 -230 l 1
 191 -230 211 -217 230 -170 c 2
 295 0 l 1
 50 600 l 1
 130 600 l 1
 330 89 l 1
 530 600 l 1
EndSplineSet
EndChar

StartChar: r
Encoding: 114 114 150
Width: 410
VWidth: 0
Flags: W
HStem: 0 21G<100 170> 540 70<285.573 380> 580 20G<100 170>
VStem: 100 70<0 431.815 469 600>
AnchorPoint: "diac_top" 210 650 basechar 0
AnchorPoint: "diac_bottom" 140 -50 basechar 0
LayerCount: 2
Fore
SplineSet
100 600 m 1xb0
 170 600 l 1xb0
 170 469 l 1
 196 513 265 610 380 610 c 1
 380 540 l 1xd0
 279 540 197 458 170 382 c 1
 170 0 l 1
 100 0 l 1
 100 600 l 1xb0
EndSplineSet
EndChar

StartChar: numbersign
Encoding: 35 35 151
Width: 910
VWidth: 0
Flags: W
HStem: 0 21G<205 268.75 495 558.75> 240 50<90 250 319 540 609 800> 510 50<110 301 370 591 660 820> 780 20G<351.25 415 641.25 705>
LayerCount: 2
Fore
SplineSet
549 290 m 1
 591 510 l 1
 361 510 l 1
 319 290 l 1
 549 290 l 1
609 290 m 1
 800 290 l 1
 800 240 l 1
 600 240 l 1
 555 0 l 1
 495 0 l 1
 540 240 l 1
 310 240 l 1
 265 0 l 1
 205 0 l 1
 250 240 l 1
 90 240 l 1
 90 290 l 1
 259 290 l 1
 301 510 l 1
 110 510 l 1
 110 560 l 1
 310 560 l 1
 355 800 l 1
 415 800 l 1
 370 560 l 1
 600 560 l 1
 645 800 l 1
 705 800 l 1
 660 560 l 1
 820 560 l 1
 820 510 l 1
 651 510 l 1
 609 290 l 1
EndSplineSet
EndChar

StartChar: asterisk
Encoding: 42 42 152
Width: 540
VWidth: 0
Flags: W
HStem: 550 350
VStem: 245 50<750 900>
LayerCount: 2
Fore
SplineSet
399 580 m 1
 358 550 l 1
 270 673 l 1
 182 550 l 1
 141 580 l 1
 230 702 l 1
 87 749 l 1
 102 796 l 1
 245 750 l 1
 245 900 l 1
 295 900 l 1
 295 750 l 1
 438 796 l 1
 453 749 l 1
 310 702 l 1
 399 580 l 1
EndSplineSet
EndChar

StartChar: s
Encoding: 115 115 153
Width: 680
VWidth: 0
Flags: W
HStem: -20 60<224.892 455.108> 560 60<237.366 442.634>
VStem: 90 70<98.125 170> 110 70<384.21 506.687> 500 70<440 506.594> 520 70<97.9137 230.103>
AnchorPoint: "diac_bottom" 340 -50 basechar 0
AnchorPoint: "diac_top" 340 650 basechar 0
AnchorPoint: "cedilla" 360 40 basechar 0
LayerCount: 2
Fore
SplineSet
90 170 m 1xe4
 160 170 l 1
 160 105 216 40 340 40 c 0
 464 40 520 105 520 170 c 0xe4
 520 252 432 266 340 280 c 0
 241 295 110 328 110 440 c 0
 110 522 192 620 340 620 c 0
 488 620 570 522 570 440 c 1
 500 440 l 1
 500 489 456 560 340 560 c 0
 224 560 180 489 180 440 c 0xd8
 180 368 265 352 340 340 c 0
 450 322 590 303 590 170 c 0
 590 70 507 -20 340 -20 c 0
 173 -20 90 70 90 170 c 1xe4
EndSplineSet
EndChar

StartChar: f
Encoding: 102 102 154
Width: 420
VWidth: 0
Flags: W
HStem: 0 21G<170 240> 540 60<50 170 240 370> 840 60<278.503 370>
VStem: 170 70<0 540 600 801.811>
AnchorPoint: "diac_bottom" 190 -50 basechar 0
AnchorPoint: "diac_top" 290 950 basechar 0
LayerCount: 2
Fore
SplineSet
50 540 m 1
 50 600 l 1
 170 600 l 1
 170 710 l 2
 170 827 223 900 370 900 c 1
 370 840 l 1
 277 840 240 797 240 710 c 2
 240 600 l 1
 370 600 l 1
 370 540 l 1
 240 540 l 1
 240 0 l 1
 170 0 l 1
 170 540 l 1
 50 540 l 1
EndSplineSet
EndChar

StartChar: t
Encoding: 116 116 155
Width: 420
VWidth: 0
Flags: W
HStem: 0 21G<175 245> 540 60<40 175 245 380>
VStem: 175 70<0 540 600 780>
AnchorPoint: "diac_top" 210 890 basechar 0
AnchorPoint: "cedilla" 200 40 basechar 0
AnchorPoint: "diac_bottom" 210 -50 basechar 0
LayerCount: 2
Fore
SplineSet
230 840 m 1
 245 840 l 1
 245 600 l 1
 380 600 l 1
 380 540 l 1
 245 540 l 1
 245 0 l 1
 175 0 l 1
 175 540 l 1
 40 540 l 1
 40 600 l 1
 175 600 l 1
 175 780 l 1
 230 840 l 1
EndSplineSet
EndChar

StartChar: k
Encoding: 107 107 156
Width: 620
VWidth: 0
Flags: W
HStem: 0 21G<110 180 475.695 580> 295 60<180 275> 580 20G<444.898 540> 880 20G<110 180>
VStem: 110 70<0 295 355 900>
AnchorPoint: "diac_top" 390 650 basechar 0
AnchorPoint: "diac_bottom" 320 -50 basechar 0
LayerCount: 2
Fore
SplineSet
460 600 m 1
 540 600 l 1
 335 335 l 1
 580 0 l 1
 490 0 l 1
 279 295 l 1
 180 295 l 1
 180 0 l 1
 110 0 l 1
 110 900 l 1
 180 900 l 1
 180 355 l 1
 275 355 l 1
 460 600 l 1
EndSplineSet
EndChar

StartChar: hyphen
Encoding: 45 45 157
Width: 560
VWidth: 0
Flags: W
HStem: 295 50<90 470>
VStem: 90 380<295 345>
LayerCount: 2
Fore
SplineSet
90 345 m 1
 470 345 l 1
 470 295 l 1
 90 295 l 1
 90 345 l 1
EndSplineSet
EndChar

StartChar: bar
Encoding: 124 124 158
Width: 320
VWidth: 0
Flags: W
HStem: 880 20G<130 190>
VStem: 130 60<-180 900>
LayerCount: 2
Fore
SplineSet
130 900 m 1
 190 900 l 1
 190 -180 l 1
 130 -180 l 1
 130 900 l 1
EndSplineSet
EndChar

StartChar: slash
Encoding: 47 47 159
Width: 480
VWidth: 0
Flags: W
HStem: 880 20G<344.815 410>
VStem: 70 340
LayerCount: 2
Fore
SplineSet
350 900 m 1
 410 900 l 1
 130 -180 l 1
 70 -180 l 1
 350 900 l 1
EndSplineSet
EndChar

StartChar: colon
Encoding: 58 58 160
Width: 320
VWidth: 0
Flags: W
HStem: 0 120<111.108 208.892> 420 120<111.108 208.892>
VStem: 100 120<11.1079 108.892 431.108 528.892>
LayerCount: 2
Fore
SplineSet
220 480 m 0
 220 447 193 420 160 420 c 0
 127 420 100 447 100 480 c 0
 100 513 127 540 160 540 c 0
 193 540 220 513 220 480 c 0
220 60 m 0
 220 27 193 0 160 0 c 0
 127 0 100 27 100 60 c 0
 100 93 127 120 160 120 c 0
 193 120 220 93 220 60 c 0
EndSplineSet
EndChar

StartChar: backslash
Encoding: 92 92 161
Width: 480
VWidth: 0
Flags: W
HStem: 880 20G<70 135.185>
VStem: 70 340
LayerCount: 2
Fore
SplineSet
130 900 m 1
 410 -180 l 1
 350 -180 l 1
 70 900 l 1
 130 900 l 1
EndSplineSet
EndChar

StartChar: seven
Encoding: 55 55 162
Width: 660
Flags: W
HStem: 0 21G<260 330> 740 60<100 480>
VStem: 260 70<0 400.667>
LayerCount: 2
Fore
SplineSet
100 740 m 1
 100 800 l 1
 560 800 l 1
 560 740 l 1
 560 740 330 536 330 230 c 2
 330 0 l 1
 260 0 l 1
 260 230 l 2
 260 530 480 740 480 740 c 1
 100 740 l 1
EndSplineSet
EndChar

StartChar: exclam
Encoding: 33 33 163
Width: 320
VWidth: 0
Flags: W
HStem: 0 120<111.108 208.892> 880 20G<125 195>
VStem: 100 120<11.1079 108.892> 125 70<292.8 900>
LayerCount: 2
Fore
SplineSet
125 900 m 1xd0
 195 900 l 1
 195 360 l 1
 180 240 l 1
 140 240 l 1
 125 360 l 1
 125 900 l 1xd0
220 60 m 0xe0
 220 27 193 0 160 0 c 0
 127 0 100 27 100 60 c 0
 100 93 127 120 160 120 c 0
 193 120 220 93 220 60 c 0xe0
EndSplineSet
EndChar

StartChar: quotedbl
Encoding: 34 34 164
Width: 440
VWidth: 0
Flags: W
HStem: 560 240<105 155 285 335>
VStem: 105 50<560 694.4> 285 50<560 694.4>
LayerCount: 2
Fore
SplineSet
270 800 m 1
 350 800 l 1
 335 560 l 1
 285 560 l 1
 270 800 l 1
90 800 m 1
 170 800 l 1
 155 560 l 1
 105 560 l 1
 90 800 l 1
EndSplineSet
EndChar

StartChar: dollar
Encoding: 36 36 165
Width: 790
VWidth: 0
Flags: W
HStem: -20 61<267.174 370 420 520.824> 392 66<261.448 370 420 510.041> 759 60<269.383 370 420 510.603>
VStem: 90 70<143.547 250> 110 70<520.081 676.346> 370 50<-150 -20 41 386 458 759 819 950> 600 70<590 674.33> 630 70<136.903 305.441>
LayerCount: 2
Fore
SplineSet
370 950 m 1xec
 420 950 l 1
 420 819 l 1
 585 806 670 688 670 590 c 1
 600 590 l 1xee
 600 660 550 747 420 759 c 1
 420 451 l 1
 544 433 700 393 700 230 c 0
 700 85 586 -9 420 -19 c 1
 420 -150 l 1
 370 -150 l 1
 370 -20 l 1
 199 -12 90 95 90 250 c 1
 160 250 l 1xf5
 160 133 235 48 370 41 c 1
 370 392 l 1
 269 405 110 434 110 590 c 0
 110 690 198 811 370 819 c 1
 370 950 l 1xec
370 458 m 1
 370 759 l 1
 233 751 180 662 180 590 c 0
 180 495 277 471 370 458 c 1
420 386 m 1
 420 41 l 1
 550 51 630 123 630 230 c 0xe5
 630 337 524 370 420 386 c 1
EndSplineSet
EndChar

StartChar: percent
Encoding: 37 37 166
Width: 840
VWidth: 0
Flags: W
HStem: -10 50<555.118 664.882> 0 21G<100 184.25> 300 50<555.118 664.882> 450 50<175.118 284.882> 760 50<175.118 284.882> 780 20G<655.75 740>
VStem: 80 60<535.924 724.076> 320 60<535.924 724.076> 460 60<75.9236 264.076> 700 60<75.9236 264.076>
LayerCount: 2
Fore
SplineSet
670 800 m 1x77c0
 740 800 l 1
 170 0 l 1
 100 0 l 1
 670 800 l 1x77c0
230 810 m 0x3bc0
 319 810 380 729 380 630 c 0
 380 531 319 450 230 450 c 0
 141 450 80 531 80 630 c 0
 80 729 141 810 230 810 c 0x3bc0
230 760 m 0
 168 760 140 692 140 630 c 0
 140 568 168 500 230 500 c 0
 292 500 320 568 320 630 c 0
 320 692 292 760 230 760 c 0
610 350 m 0
 699 350 760 269 760 170 c 0
 760 71 699 -10 610 -10 c 0xb3c0
 521 -10 460 71 460 170 c 0
 460 269 521 350 610 350 c 0
610 300 m 0
 548 300 520 232 520 170 c 0
 520 108 548 40 610 40 c 0
 672 40 700 108 700 170 c 0
 700 232 672 300 610 300 c 0
EndSplineSet
EndChar

StartChar: quotesingle
Encoding: 39 39 167
Width: 240
VWidth: 0
Flags: W
HStem: 560 240<95 145>
VStem: 95 50<560 694.4>
LayerCount: 2
Fore
SplineSet
80 800 m 1
 160 800 l 1
 145 560 l 1
 95 560 l 1
 80 800 l 1
EndSplineSet
EndChar

StartChar: parenleft
Encoding: 40 40 168
Width: 400
VWidth: 0
Flags: W
VStem: 100 60<73.2715 646.729>
LayerCount: 2
Fore
SplineSet
100 360 m 1
 100 390 l 2
 100 706 150 848 350 920 c 1
 350 880 l 1
 198 804 160 667 160 390 c 2
 160 360 l 1
 160 330 l 2
 160 53 198 -84 350 -160 c 1
 350 -200 l 1
 150 -128 100 14 100 330 c 2
 100 360 l 1
EndSplineSet
EndChar

StartChar: parenright
Encoding: 41 41 169
Width: 400
VWidth: 0
Flags: W
VStem: 240 60<73.2715 646.729>
LayerCount: 2
Fore
SplineSet
300 360 m 1
 300 330 l 2
 300 14 250 -128 50 -200 c 1
 50 -160 l 1
 202 -84 240 53 240 330 c 2
 240 360 l 1
 240 390 l 2
 240 667 202 804 50 880 c 1
 50 920 l 1
 250 848 300 706 300 390 c 2
 300 360 l 1
EndSplineSet
EndChar

StartChar: plus
Encoding: 43 43 170
Width: 560
VWidth: 0
Flags: W
HStem: 295 50<90 250 310 470>
VStem: 250 60<140 295 345 500>
LayerCount: 2
Fore
SplineSet
310 140 m 1
 250 140 l 1
 250 295 l 1
 90 295 l 1
 90 345 l 1
 250 345 l 1
 250 500 l 1
 310 500 l 1
 310 345 l 1
 470 345 l 1
 470 295 l 1
 310 295 l 1
 310 140 l 1
EndSplineSet
EndChar

StartChar: comma
Encoding: 44 44 171
Width: 320
VWidth: 0
Flags: W
HStem: 0 120<111.108 164.631>
VStem: 100 125<12.967 106.96>
LayerCount: 2
Fore
SplineSet
165 0 m 1
 163 0 162 0 160 0 c 0
 127 0 100 27 100 60 c 0
 100 93 127 120 160 120 c 0
 193 120 225 96 225 45 c 0
 225 -33 181 -96 120 -150 c 1
 85 -150 l 1
 144 -93 162 -49 165 0 c 1
EndSplineSet
EndChar

StartChar: zero
Encoding: 48 48 172
Width: 660
Flags: W
HStem: -20 60<237.269 422.731> 760 60<237.269 422.731>
VStem: 90 70<125.259 674.741> 500 70<125.259 674.741>
LayerCount: 2
Fore
SplineSet
90 240 m 2
 90 560 l 2
 90 715 182 820 330 820 c 0
 478 820 570 715 570 560 c 2
 570 240 l 2
 570 85 478 -20 330 -20 c 0
 182 -20 90 85 90 240 c 2
160 240 m 2
 160 141 205 40 330 40 c 0
 455 40 500 141 500 240 c 2
 500 560 l 2
 500 659 455 760 330 760 c 0
 205 760 160 659 160 560 c 2
 160 240 l 2
EndSplineSet
EndChar

StartChar: one
Encoding: 49 49 173
Width: 660
Flags: W
HStem: 0 21G<390 460> 550 60<120 233.176> 780 20G<390 460>
VStem: 390 70<0 660 730.656 800>
LayerCount: 2
Fore
SplineSet
390 660 m 1
 349 597 219 550 120 550 c 1
 120 610 l 1
 236 610 390 706 390 800 c 1
 460 800 l 1
 460 0 l 1
 390 0 l 1
 390 660 l 1
EndSplineSet
EndChar

StartChar: two
Encoding: 50 50 174
Width: 660
Flags: W
HStem: 0 60<170 570> 760 60<239.182 420.818>
VStem: 90 80<60 170.945> 100 70<595 687.482> 490 70<518.415 688.765>
LayerCount: 2
Fore
SplineSet
490 595 m 0xe8
 490 670 447 760 330 760 c 0
 213 760 170 670 170 595 c 1
 100 595 l 1xd8
 100 719 191 820 330 820 c 0
 469 820 560 719 560 595 c 0
 560 488 462 402 370 340 c 0
 262 267 170 197 170 60 c 1
 570 60 l 1
 570 0 l 1
 90 0 l 1
 90 60 l 2
 90 212 183 291 290 365 c 0
 372 422 490 498 490 595 c 0xe8
EndSplineSet
EndChar

StartChar: three
Encoding: 51 51 175
Width: 660
Flags: W
HStem: -20 60<221 419> 385 60<250 418.908> 760 60<229.182 410.818>
VStem: 70 70<124.281 220> 90 70<595 687.482> 480 70<505.45 688.765> 500 70<123.612 313.003>
LayerCount: 2
Fore
SplineSet
70 220 m 1xf2
 140 220 l 1
 140 137 190 40 320 40 c 0
 450 40 500 137 500 220 c 0xf2
 500 303 450 385 320 385 c 2
 250 385 l 1
 250 445 l 1
 320 445 l 2
 437 445 480 520 480 595 c 0
 480 670 437 760 320 760 c 0
 203 760 160 670 160 595 c 1
 90 595 l 1
 90 719 181 820 320 820 c 0
 459 820 550 719 550 595 c 0xec
 550 517 514 454 452 418 c 1
 527 382 570 313 570 220 c 0
 570 82 475 -20 320 -20 c 0
 165 -20 70 82 70 220 c 1xf2
EndSplineSet
EndChar

StartChar: four
Encoding: 52 52 176
Width: 660
Flags: W
HStem: 0 21G<430 500> 165 60<150 430 500 580> 780 20G<417.826 500>
VStem: 430 70<0 165 225 680>
LayerCount: 2
Fore
SplineSet
80 225 m 1
 430 800 l 1
 500 800 l 1
 500 225 l 1
 580 225 l 1
 580 165 l 1
 500 165 l 1
 500 0 l 1
 430 0 l 1
 430 165 l 1
 80 165 l 1
 80 225 l 1
150 225 m 1
 430 225 l 1
 430 680 l 1
 150 225 l 1
EndSplineSet
EndChar

StartChar: five
Encoding: 53 53 177
Width: 660
Flags: W
HStem: -20 60<237.269 422.731> 440 60<238.035 422.731> 740 60<222 530>
VStem: 90 70<125.259 240> 500 70<123.783 356.217>
LayerCount: 2
Fore
SplineSet
330 -20 m 0
 182 -20 90 85 90 240 c 1
 160 240 l 1
 160 141 205 40 330 40 c 0
 455 40 500 141 500 240 c 0
 500 339 455 440 330 440 c 0
 241 440 197 387 180 350 c 1
 110 360 l 1
 160 800 l 1
 190 800 l 1
 228 800 l 1
 530 800 l 1
 530 740 l 1
 222 740 l 1
 189 437 l 1
 222 469 270 500 330 500 c 0
 478 500 570 395 570 240 c 0
 570 85 478 -20 330 -20 c 0
EndSplineSet
EndChar

StartChar: six
Encoding: 54 54 178
Width: 660
Flags: W
HStem: -20 60<237.269 422.731> 440 60<238.101 422.731> 760 60<233.204 416.796>
VStem: 90 70<125.259 354.741 400 686.793> 490 70<595 686.793> 500 70<123.783 356.217>
LayerCount: 2
Fore
SplineSet
500 240 m 0xf4
 500 339 455 440 330 440 c 0
 205 440 160 339 160 240 c 0
 160 141 205 40 330 40 c 0
 455 40 500 141 500 240 c 0xf4
325 820 m 0
 464 820 560 719 560 595 c 1
 490 595 l 1xf8
 490 670 442 760 325 760 c 0
 208 760 160 670 160 595 c 2
 160 400 l 1
 198 459 257 500 330 500 c 0
 478 500 570 395 570 240 c 0
 570 85 478 -20 330 -20 c 0
 182 -20 90 85 90 240 c 2
 90 595 l 2
 90 719 186 820 325 820 c 0
EndSplineSet
EndChar

StartChar: eight
Encoding: 56 56 179
Width: 660
Flags: W
HStem: -20 60<231 429> 385 60<231.092 428.908> 760 60<239.182 420.818>
VStem: 80 70<123.612 313.003> 100 70<505.45 688.765> 490 70<505.45 688.765> 510 70<123.612 313.003>
LayerCount: 2
Fore
SplineSet
330 445 m 0xec
 447 445 490 520 490 595 c 0
 490 670 447 760 330 760 c 0
 213 760 170 670 170 595 c 0
 170 520 213 445 330 445 c 0xec
462 418 m 1
 537 382 580 313 580 220 c 0
 580 82 485 -20 330 -20 c 0
 175 -20 80 82 80 220 c 0xf2
 80 313 123 382 198 418 c 1
 136 454 100 517 100 595 c 0
 100 719 191 820 330 820 c 0
 469 820 560 719 560 595 c 0
 560 517 524 454 462 418 c 1
330 385 m 0
 200 385 150 303 150 220 c 0
 150 137 200 40 330 40 c 0
 460 40 510 137 510 220 c 0
 510 303 460 385 330 385 c 0
EndSplineSet
EndChar

StartChar: nine
Encoding: 57 57 180
Width: 660
Flags: W
HStem: -20 60<243.204 426.796> 300 60<237.269 421.899> 760 60<237.269 422.731>
VStem: 90 70<443.783 676.216> 100 70<113.207 205> 500 70<113.207 400 445.259 674.741>
LayerCount: 2
Fore
SplineSet
160 560 m 0xf4
 160 461 205 360 330 360 c 0
 455 360 500 461 500 560 c 0
 500 659 455 760 330 760 c 0
 205 760 160 659 160 560 c 0xf4
335 -20 m 0
 196 -20 100 81 100 205 c 1
 170 205 l 1xec
 170 130 218 40 335 40 c 0
 452 40 500 130 500 205 c 2
 500 400 l 1
 462 341 403 300 330 300 c 0
 182 300 90 405 90 560 c 0
 90 715 182 820 330 820 c 0
 478 820 570 715 570 560 c 2
 570 205 l 2
 570 81 474 -20 335 -20 c 0
EndSplineSet
EndChar

StartChar: semicolon
Encoding: 59 59 181
Width: 320
VWidth: 0
Flags: W
HStem: 0 120<111.108 164.631> 420 120<111.108 208.892>
VStem: 100 125<12.967 106.96 434.677 525.323>
LayerCount: 2
Fore
SplineSet
220 480 m 0
 220 447 193 420 160 420 c 0
 127 420 100 447 100 480 c 0
 100 513 127 540 160 540 c 0
 193 540 220 513 220 480 c 0
165 0 m 1
 163 0 162 0 160 0 c 0
 127 0 100 27 100 60 c 0
 100 93 127 120 160 120 c 0
 193 120 225 96 225 45 c 0
 225 -33 181 -96 120 -150 c 1
 85 -150 l 1
 144 -93 162 -49 165 0 c 1
EndSplineSet
EndChar

StartChar: less
Encoding: 60 60 182
Width: 600
VWidth: 0
Flags: W
VStem: 110 380
LayerCount: 2
Fore
SplineSet
110 305 m 1
 110 335 l 1
 490 540 l 1
 490 475 l 1
 190 320 l 1
 490 165 l 1
 490 100 l 1
 110 305 l 1
EndSplineSet
EndChar

StartChar: equal
Encoding: 61 61 183
Width: 560
VWidth: 0
Flags: W
HStem: 190 50<90 470> 400 50<90 470>
VStem: 90 380<190 240 400 450>
LayerCount: 2
Fore
SplineSet
90 450 m 1
 470 450 l 1
 470 400 l 1
 90 400 l 1
 90 450 l 1
90 240 m 1
 470 240 l 1
 470 190 l 1
 90 190 l 1
 90 240 l 1
EndSplineSet
EndChar

StartChar: greater
Encoding: 62 62 184
Width: 600
VWidth: 0
Flags: W
VStem: 110 380
LayerCount: 2
Fore
SplineSet
490 305 m 1
 110 100 l 1
 110 165 l 1
 410 320 l 1
 110 475 l 1
 110 540 l 1
 490 335 l 1
 490 305 l 1
EndSplineSet
EndChar

StartChar: question
Encoding: 63 63 185
Width: 640
VWidth: 0
Flags: W
HStem: 0 120<261.108 358.892> 760 60<228.453 411.547>
VStem: 90 70<527.958 691.474> 250 120<11.1079 108.892> 275 70<240 366.25> 480 70<519.489 691.474>
LayerCount: 2
Fore
SplineSet
175 535 m 1xec
 110 510 l 1
 98 536 90 567 90 600 c 0
 90 733 192 820 320 820 c 0
 448 820 550 733 550 600 c 0
 550 489 475 446 395 390 c 0
 346 356 345 313 345 240 c 1
 275 240 l 1
 275 343 282 386 380 455 c 0
 441 498 480 527 480 600 c 0
 480 688 424 760 320 760 c 0
 216 760 160 688 160 600 c 0
 160 574 165 555 175 535 c 1xec
370 60 m 0xf4
 370 27 343 0 310 0 c 0
 277 0 250 27 250 60 c 0
 250 93 277 120 310 120 c 0
 343 120 370 93 370 60 c 0xf4
EndSplineSet
EndChar

StartChar: at
Encoding: 64 64 186
Width: 1140
VWidth: 0
Flags: W
HStem: -180 45<447.085 725.102> 70 60<467.129 638.502 794.461 917.953> 530 60<465.627 645.243> 795 45<443.446 696.554>
VStem: 90 50<173.63 472.921> 340 70<188.835 469.777> 700 70<190.297 481.917 517 570> 1000 50<219.707 480.19>
LayerCount: 2
Fore
SplineSet
700 229 m 1
 700 230 l 1
 700 452 l 1
 674 490 625 530 560 530 c 0
 454 530 410 464 410 370 c 2
 410 290 l 2
 410 196 455 130 560 130 c 0
 630 130 677 184 700 229 c 1
700 570 m 1
 770 570 l 1
 770 230 l 2
 770 154 813 130 850 130 c 1
 850 132 l 1
 895 132 1000 176 1000 330 c 0
 1000 554 838 795 570 795 c 0
 302 795 140 548 140 330 c 0
 140 58 345 -135 570 -135 c 0
 681 -135 769 -107 842 -58 c 1
 861 -101 l 1
 775 -159 671 -180 570 -180 c 0
 297 -180 90 32 90 330 c 0
 90 617 291 840 570 840 c 0
 849 840 1050 617 1050 330 c 0
 1050 133 937 70 850 70 c 0
 771 70 728 106 710 161 c 1
 679 111 626 70 545 70 c 0
 427 70 340 141 340 290 c 2
 340 370 l 2
 340 513 432 590 545 590 c 0
 615 590 667 558 700 517 c 1
 700 570 l 1
EndSplineSet
EndChar

StartChar: bracketleft
Encoding: 91 91 187
Width: 400
VWidth: 0
Flags: W
HStem: -180 50<160 320> 850 50<160 320>
VStem: 100 60<-130 850>
LayerCount: 2
Fore
SplineSet
100 360 m 1
 100 900 l 1
 320 900 l 1
 320 850 l 1
 160 850 l 1
 160 360 l 1
 160 -130 l 1
 320 -130 l 1
 320 -180 l 1
 100 -180 l 1
 100 360 l 1
EndSplineSet
EndChar

StartChar: bracketright
Encoding: 93 93 188
Width: 400
VWidth: 0
Flags: W
HStem: -180 50<80 240> 850 50<80 240>
VStem: 240 60<-130 850>
LayerCount: 2
Fore
SplineSet
300 360 m 1
 300 -180 l 1
 80 -180 l 1
 80 -130 l 1
 240 -130 l 1
 240 360 l 1
 240 850 l 1
 80 850 l 1
 80 900 l 1
 300 900 l 1
 300 360 l 1
EndSplineSet
EndChar

StartChar: asciicircum
Encoding: 94 94 189
Width: 540
VWidth: 0
Flags: W
HStem: 560 240
VStem: 80 380
LayerCount: 2
Fore
SplineSet
270 746 m 1
 150 560 l 1
 80 560 l 1
 240 800 l 1
 300 800 l 1
 460 560 l 1
 390 560 l 1
 270 746 l 1
EndSplineSet
EndChar

StartChar: underscore
Encoding: 95 95 190
Width: 720
VWidth: 0
Flags: W
HStem: -50 50<100 620>
LayerCount: 2
Fore
SplineSet
100 0 m 1
 620 0 l 1
 620 -50 l 1
 100 -50 l 1
 100 0 l 1
EndSplineSet
EndChar

StartChar: grave
Encoding: 96 96 191
Width: 420
VWidth: 0
Flags: W
HStem: 620 180
VStem: 70 280
LayerCount: 2
Fore
SplineSet
70 800 m 1
 180 800 l 1
 350 620 l 1
 305 620 l 1
 70 800 l 1
EndSplineSet
EndChar

StartChar: braceleft
Encoding: 123 123 192
Width: 400
VWidth: 0
Flags: W
HStem: -180 50<222.602 340> 850 50<222.602 340>
VStem: 160 60<-127.688 282.449 437.551 847.688>
LayerCount: 2
Fore
SplineSet
50 360 m 1
 50 365 l 1
 89 385 160 432 160 520 c 2
 160 810 l 2
 160 866 203 900 260 900 c 2
 340 900 l 1
 340 850 l 1
 260 850 l 2
 232 850 220 839 220 810 c 2
 220 520 l 2
 220 393 130 360 130 360 c 1
 130 360 220 327 220 200 c 2
 220 -90 l 2
 220 -119 232 -130 260 -130 c 2
 340 -130 l 1
 340 -180 l 1
 260 -180 l 2
 203 -180 160 -146 160 -90 c 2
 160 200 l 2
 160 288 89 335 50 355 c 1
 50 360 l 1
EndSplineSet
EndChar

StartChar: braceright
Encoding: 125 125 193
Width: 400
VWidth: 0
Flags: W
HStem: -180 50<60 177.398> 850 50<60 177.398>
VStem: 180 60<-127.688 282.449 437.551 847.688>
LayerCount: 2
Fore
SplineSet
350 360 m 1
 350 355 l 1
 311 335 240 288 240 200 c 2
 240 -90 l 2
 240 -146 197 -180 140 -180 c 2
 60 -180 l 1
 60 -130 l 1
 140 -130 l 2
 168 -130 180 -119 180 -90 c 2
 180 200 l 2
 180 327 270 360 270 360 c 1
 270 360 180 393 180 520 c 2
 180 810 l 2
 180 839 168 850 140 850 c 2
 60 850 l 1
 60 900 l 1
 140 900 l 2
 197 900 240 866 240 810 c 2
 240 520 l 2
 240 432 311 385 350 365 c 1
 350 360 l 1
EndSplineSet
EndChar

StartChar: asciitilde
Encoding: 126 126 194
Width: 640
VWidth: 0
Flags: W
HStem: 250 55<351.527 480.752> 335 55<159.248 288.503>
VStem: 90 40<271.85 297.742> 510 40<342.258 368.15>
LayerCount: 2
Fore
SplineSet
220 390 m 0
 261 390 285 379 325 350 c 0
 360 325 379 305 420 305 c 0
 464 305 499 339 510 380 c 1
 550 365 l 1
 540 303 480 250 420 250 c 0
 379 250 354 262 315 290 c 0
 278 316 261 335 220 335 c 0
 176 335 141 301 130 260 c 1
 90 275 l 1
 100 337 160 390 220 390 c 0
EndSplineSet
EndChar

StartChar: quotedblleft
Encoding: 8220 8220 195
Width: 520
VWidth: 0
Flags: W
HStem: 550 120<155.369 208.892 355.369 408.892> 800 20G<169.5 235 369.5 435>
VStem: 95 125<563.04 657.033> 295 125<563.04 657.033>
LayerCount: 2
Fore
SplineSet
155 670 m 1
 157 670 158 670 160 670 c 0
 193 670 220 643 220 610 c 0
 220 577 193 550 160 550 c 0
 127 550 95 574 95 625 c 0
 95 703 139 766 200 820 c 1
 235 820 l 1
 176 763 158 719 155 670 c 1
355 670 m 1
 357 670 358 670 360 670 c 0
 393 670 420 643 420 610 c 0
 420 577 393 550 360 550 c 0
 327 550 295 574 295 625 c 0
 295 703 339 766 400 820 c 1
 435 820 l 1
 376 763 358 719 355 670 c 1
EndSplineSet
EndChar

StartChar: quotedblright
Encoding: 8221 8221 196
Width: 520
VWidth: 0
Flags: W
HStem: 700 120<111.108 164.631 311.108 364.631>
VStem: 100 125<712.967 806.96> 300 125<712.967 806.96>
LayerCount: 2
Fore
SplineSet
165 700 m 1
 163 700 162 700 160 700 c 0
 127 700 100 727 100 760 c 0
 100 793 127 820 160 820 c 0
 193 820 225 796 225 745 c 0
 225 667 181 604 120 550 c 1
 85 550 l 1
 144 607 162 651 165 700 c 1
365 700 m 1
 363 700 362 700 360 700 c 0
 327 700 300 727 300 760 c 0
 300 793 327 820 360 820 c 0
 393 820 425 796 425 745 c 0
 425 667 381 604 320 550 c 1
 285 550 l 1
 344 607 362 651 365 700 c 1
EndSplineSet
EndChar

StartChar: quoteleft
Encoding: 8216 8216 197
Width: 320
VWidth: 0
Flags: W
HStem: 550 120<155.369 208.892> 800 20G<169.5 235>
VStem: 95 125<563.04 657.033>
LayerCount: 2
Fore
SplineSet
155 670 m 1
 157 670 158 670 160 670 c 0
 193 670 220 643 220 610 c 0
 220 577 193 550 160 550 c 0
 127 550 95 574 95 625 c 0
 95 703 139 766 200 820 c 1
 235 820 l 1
 176 763 158 719 155 670 c 1
EndSplineSet
EndChar

StartChar: quoteright
Encoding: 8217 8217 198
Width: 320
VWidth: 0
Flags: W
HStem: 700 120<111.108 164.631>
VStem: 100 125<712.967 806.96>
LayerCount: 2
Fore
SplineSet
165 700 m 1
 163 700 162 700 160 700 c 0
 127 700 100 727 100 760 c 0
 100 793 127 820 160 820 c 0
 193 820 225 796 225 745 c 0
 225 667 181 604 120 550 c 1
 85 550 l 1
 144 607 162 651 165 700 c 1
EndSplineSet
EndChar

StartChar: afii57929
Encoding: 700 700 199
Width: 280
VWidth: 0
Flags: W
HStem: 460 290
VStem: 130 80<556.795 610>
LayerCount: 2
Fore
SplineSet
130 750 m 0
 181 750 210 711 210 660 c 0
 210 582 164 503 105 460 c 1
 50 460 l 1
 100 503 130 555 130 610 c 1
 91 610 60 641 60 680 c 0
 60 719 91 750 130 750 c 0
EndSplineSet
EndChar

StartChar: Euro
Encoding: 8364 8364 200
Width: 750
Flags: W
HStem: -20 60<363.915 610.105> 280 50<80 180 250 550> 470 50<80 180 250 550> 760 60<364.969 602.392>
VStem: 180 70<154.664 280 330 470 520 642.873>
LayerCount: 2
Fore
SplineSet
480 -20 m 0
 300 -20 180 88 180 270 c 2
 180 280 l 1
 80 280 l 1
 80 330 l 1
 180 330 l 1
 180 470 l 1
 80 470 l 1
 80 520 l 1
 180 520 l 1
 180 706 303 820 480 820 c 1
 576 819 620 791 670 755 c 1
 640 710 l 1
 597 741 559 760 480 760 c 0
 317 760 250 649 250 520 c 1
 550 520 l 1
 550 470 l 1
 250 470 l 1
 250 330 l 1
 550 330 l 1
 550 280 l 1
 250 280 l 1
 250 270 l 2
 250 150 315 40 480 40 c 0
 565 40 598 55 640 85 c 1
 670 35 l 1
 613 -3 581 -20 480 -20 c 0
EndSplineSet
EndChar

StartChar: yen
Encoding: 165 165 201
Width: 700
VWidth: 0
Flags: W
HStem: 0 21G<315 385> 180 50<70 315 385 630> 380 50<70 252 448 630> 780 20G<40 131.243 568.757 660>
VStem: 315 70<0 180 230 320>
LayerCount: 2
Fore
SplineSet
40 800 m 1
 120 800 l 1
 328 430 l 1
 372 430 l 1
 580 800 l 1
 660 800 l 1
 448 430 l 1
 630 430 l 1
 630 380 l 1
 419 380 l 1
 385 320 l 1
 385 230 l 1
 630 230 l 1
 630 180 l 1
 385 180 l 1
 385 0 l 1
 315 0 l 1
 315 180 l 1
 70 180 l 1
 70 230 l 1
 315 230 l 1
 315 320 l 1
 281 380 l 1
 70 380 l 1
 70 430 l 1
 252 430 l 1
 40 800 l 1
EndSplineSet
EndChar

StartChar: sterling
Encoding: 163 163 202
Width: 700
Flags: W
HStem: 0 60<170 630> 370 50<90 194 264 470> 600 21G<490 560> 760 60<308.134 451.866>
VStem: 194 67<201.715 370> 197 67<420 709.88> 490 70<600 719.628>
LayerCount: 2
Fore
SplineSet
380 820 m 0xf6
 495 820 560 734 560 600 c 1
 490 600 l 1
 490 672 478 760 380 760 c 0
 282 760 270 672 270 600 c 0
 270 540 268 479 264 420 c 1xf6
 470 420 l 1
 470 370 l 1
 261 370 l 1
 247 211 218 81 170 60 c 1
 630 60 l 1
 630 0 l 1
 90 0 l 1
 90 60 l 1
 157 112 183 227 194 370 c 1xfa
 90 370 l 1
 90 420 l 1
 197 420 l 1
 199 477 200 538 200 600 c 0
 200 734 265 820 380 820 c 0xf6
EndSplineSet
EndChar

StartChar: cent
Encoding: 162 162 203
Width: 640
VWidth: 0
Flags: W
HStem: 81 60<221.23 310 360 440.184> 659 60<227.264 310 360 430.457>
VStem: 90 70<200.759 591.638> 310 50<-150 82.8331 141 658 716.848 950> 500 70<201.859 290 500 592.771>
LayerCount: 2
Fore
SplineSet
310 950 m 1
 360 950 l 1
 360 719 l 1
 484 707 570 624 570 500 c 1
 500 500 l 1
 500 590 448 648 360 658 c 1
 360 141 l 1
 448 150 500 200 500 290 c 1
 570 290 l 1
 570 166 484 91 360 81 c 1
 360 -150 l 1
 310 -150 l 1
 310 81 l 1
 181 88 90 163 90 290 c 2
 90 500 l 2
 90 627 181 712 310 719 c 1
 310 950 l 1
310 141 m 1
 310 659 l 1
 216 652 160 593 160 500 c 2
 160 290 l 2
 160 197 216 147 310 141 c 1
EndSplineSet
EndChar

StartChar: copyright
Encoding: 169 169 204
Width: 940
Flags: W
HStem: -20 50<344.005 595.995> 190 51<401.717 548.065> 557 53<397.304 552.696> 770 50<344.005 595.995>
VStem: 50 50<274.005 525.995> 310 60<270.412 529.678> 580 60<270.412 340 460 529.678> 840 50<274.005 525.995>
LayerCount: 2
Fore
SplineSet
470 770 m 0
 266 770 100 604 100 400 c 0
 100 196 266 30 470 30 c 0
 674 30 840 196 840 400 c 0
 840 604 674 770 470 770 c 0
470 820 m 0
 702 820 890 632 890 400 c 0
 890 168 702 -20 470 -20 c 0
 238 -20 50 168 50 400 c 0
 50 632 238 820 470 820 c 0
475 610 m 0
 573 610 640 546 640 460 c 1
 580 460 l 1
 580 523 541 557 475 557 c 0
 409 557 370 523 370 460 c 2
 370 340 l 2
 370 282 409 241 475 241 c 0
 541 241 580 282 580 340 c 1
 640 340 l 1
 640 254 568 190 475 190 c 0
 381 190 310 254 310 340 c 2
 310 460 l 2
 310 546 377 610 475 610 c 0
EndSplineSet
EndChar

StartChar: registered
Encoding: 174 174 205
Width: 940
Flags: W
HStem: -20 50<344.005 595.995> 350 50<390 505> 550 50<390 552.009> 770 50<344.005 595.995>
VStem: 50 50<274.005 525.995> 330 60<200 350 400 550> 570 60<415.743 533.755> 840 50<274.005 525.995>
LayerCount: 2
Fore
SplineSet
495 600 m 2
 596 600 630 529 630 475 c 0
 630 436 612 388 565 365 c 1
 660 200 l 1
 590 200 l 1
 505 350 l 1
 390 350 l 1
 390 200 l 1
 330 200 l 1
 330 600 l 1
 495 600 l 2
490 550 m 2
 390 550 l 1
 390 400 l 1
 490 400 l 2
 551 400 570 440 570 475 c 0
 570 510 551 550 490 550 c 2
470 820 m 0
 702 820 890 632 890 400 c 0
 890 168 702 -20 470 -20 c 0
 238 -20 50 168 50 400 c 0
 50 632 238 820 470 820 c 0
470 770 m 0
 266 770 100 604 100 400 c 0
 100 196 266 30 470 30 c 0
 674 30 840 196 840 400 c 0
 840 604 674 770 470 770 c 0
EndSplineSet
EndChar

StartChar: guillemotleft
Encoding: 171 171 206
Width: 600
Flags: W
LayerCount: 2
Fore
SplineSet
370 320 m 1
 520 90 l 1
 470 90 l 1
 300 320 l 1
 470 550 l 1
 520 550 l 1
 370 320 l 1
160 320 m 1
 310 90 l 1
 260 90 l 1
 90 320 l 1
 260 550 l 1
 310 550 l 1
 160 320 l 1
EndSplineSet
EndChar

StartChar: guillemotright
Encoding: 187 187 207
Width: 600
Flags: W
LayerCount: 2
Fore
SplineSet
230 320 m 1
 80 550 l 1
 130 550 l 1
 300 320 l 1
 130 90 l 1
 80 90 l 1
 230 320 l 1
440 320 m 1
 290 550 l 1
 340 550 l 1
 510 320 l 1
 340 90 l 1
 290 90 l 1
 440 320 l 1
EndSplineSet
EndChar

StartChar: acute
Encoding: 180 180 208
Width: 420
VWidth: 0
Flags: W
HStem: 620 180
VStem: 70 280
LayerCount: 2
Fore
SplineSet
350 800 m 1
 115 620 l 1
 70 620 l 1
 240 800 l 1
 350 800 l 1
EndSplineSet
EndChar

StartChar: exclamdown
Encoding: 161 161 209
Width: 310
VWidth: 0
Flags: W
HStem: 510 120<111.108 208.892>
VStem: 100 120<521.108 618.892> 125 70<-270 337.2>
LayerCount: 2
Fore
SplineSet
125 -270 m 1xa0
 125 270 l 1
 140 390 l 1
 180 390 l 1
 195 270 l 1
 195 -270 l 1
 125 -270 l 1xa0
220 570 m 0xc0
 220 537 193 510 160 510 c 0
 127 510 100 537 100 570 c 0
 100 603 127 630 160 630 c 0
 193 630 220 603 220 570 c 0xc0
EndSplineSet
EndChar

StartChar: brokenbar
Encoding: 166 166 210
Width: 320
Flags: W
HStem: 880 20G<130 190>
VStem: 130 60<-180 280 440 900>
LayerCount: 2
Fore
SplineSet
130 280 m 1
 190 280 l 1
 190 -180 l 1
 130 -180 l 1
 130 280 l 1
130 900 m 1
 190 900 l 1
 190 440 l 1
 130 440 l 1
 130 900 l 1
EndSplineSet
EndChar

StartChar: section
Encoding: 167 167 211
Width: 680
Flags: W
HStem: -20 60<224.892 455.108> 760 60<237.366 442.634>
VStem: 90 70<98.125 170> 110 70<384.21 507.583 584.146 706.687> 500 70<640 706.594> 520 70<97.9137 231.467 302.994 430.103>
LayerCount: 2
Fore
SplineSet
497 302 m 1xd4
 513 323 520 346 520 370 c 0
 520 452 432 466 340 480 c 0
 299 486 252 496 211 513 c 1
 189 490 180 463 180 440 c 0
 180 368 265 352 340 340 c 0
 392 331 450 323 497 302 c 1xd4
155 546 m 1
 128 569 110 599 110 640 c 0
 110 722 192 820 340 820 c 0
 488 820 570 722 570 640 c 1
 500 640 l 1
 500 689 456 760 340 760 c 0
 224 760 180 689 180 640 c 0xd8
 180 568 265 552 340 540 c 0
 450 522 590 503 590 370 c 0
 590 332 578 295 554 265 c 1
 576 242 590 212 590 170 c 0
 590 70 507 -20 340 -20 c 0
 173 -20 90 70 90 170 c 1
 160 170 l 1xe4
 160 105 216 40 340 40 c 0
 464 40 520 105 520 170 c 0
 520 252 432 266 340 280 c 0
 241 295 110 328 110 440 c 0
 110 475 125 514 155 546 c 1
EndSplineSet
EndChar

StartChar: endash
Encoding: 8211 8211 213
Width: 670
VWidth: 0
Flags: W
HStem: 295 50<100 580>
LayerCount: 2
Fore
SplineSet
100 345 m 1
 580 345 l 1
 580 295 l 1
 100 295 l 1
 100 345 l 1
EndSplineSet
EndChar

StartChar: guilsinglleft
Encoding: 8249 8249 214
Width: 390
Flags: W
VStem: 90 220
LayerCount: 2
Fore
SplineSet
160 320 m 1
 310 90 l 1
 260 90 l 1
 90 320 l 1
 260 550 l 1
 310 550 l 1
 160 320 l 1
EndSplineSet
EndChar

StartChar: guilsinglright
Encoding: 8250 8250 215
Width: 390
Flags: W
VStem: 80 220
LayerCount: 2
Fore
SplineSet
230 320 m 1
 80 550 l 1
 130 550 l 1
 300 320 l 1
 130 90 l 1
 80 90 l 1
 230 320 l 1
EndSplineSet
EndChar

StartChar: ellipsis
Encoding: 8230 8230 216
Width: 860
VWidth: 0
Flags: W
HStem: 0 120<131.108 228.892 381.108 478.892 631.108 728.892>
VStem: 120 120<11.1079 108.892> 370 120<11.1079 108.892> 620 120<11.1079 108.892>
CounterMasks: 1 70
LayerCount: 2
Fore
SplineSet
490 60 m 0
 490 27 463 0 430 0 c 0
 397 0 370 27 370 60 c 0
 370 93 397 120 430 120 c 0
 463 120 490 93 490 60 c 0
740 60 m 0
 740 27 713 0 680 0 c 0
 647 0 620 27 620 60 c 0
 620 93 647 120 680 120 c 0
 713 120 740 93 740 60 c 0
240 60 m 0
 240 27 213 0 180 0 c 0
 147 0 120 27 120 60 c 0
 120 93 147 120 180 120 c 0
 213 120 240 93 240 60 c 0
EndSplineSet
LCarets2: 2 0 0 
Ligature2: "'liga' Latin Standard Ligatures-1" period period period
EndChar

StartChar: trademark
Encoding: 8482 8482 217
Width: 830
VWidth: 0
Flags: W
HStem: 930 30<65 162 198 295>
VStem: 162 36<560 930> 390 35<560 890> 725 35<560 890>
LayerCount: 2
Fore
SplineSet
760 560 m 1
 725 560 l 1
 725 890 l 1
 585 560 l 1
 575 560 l 1
 565 560 l 1
 425 890 l 1
 425 560 l 1
 390 560 l 1
 390 960 l 1
 425 960 l 1
 430 960 l 1
 575 610 l 1
 720 960 l 1
 725 960 l 1
 760 960 l 1
 760 560 l 1
65 930 m 1
 65 960 l 1
 162 960 l 1
 198 960 l 1
 295 960 l 1
 295 930 l 1
 198 930 l 1
 198 560 l 1
 162 560 l 1
 162 930 l 1
 65 930 l 1
EndSplineSet
EndChar

StartChar: emdash
Encoding: 8212 8212 218
Width: 970
VWidth: 0
Flags: W
HStem: 295 50<100 880>
LayerCount: 2
Fore
SplineSet
100 345 m 1
 880 345 l 1
 880 295 l 1
 100 295 l 1
 100 345 l 1
EndSplineSet
EndChar

StartChar: afii00208
Encoding: 8213 8213 219
Width: 970
VWidth: 0
Flags: W
HStem: 295 50<100 880>
LayerCount: 2
Fore
SplineSet
100 345 m 1
 880 345 l 1
 880 295 l 1
 100 295 l 1
 100 345 l 1
EndSplineSet
EndChar

StartChar: ordfeminine
Encoding: 170 170 220
Width: 360
VWidth: 0
Flags: W
HStem: 550 30<116.574 222.612 299.17 320> 705 25<114.461 260> 840 30<124.896 234.168>
VStem: 54 36<602.362 688.173> 64 36<770 818.066> 260 34<615.161 705 730 815.87>
LayerCount: 2
Fore
SplineSet
260 705 m 1xf4
 164 705 l 2
 116 705 90 684 90 645 c 0
 90 608 118 580 170 580 c 0
 222 580 260 614 260 670 c 2
 260 705 l 1xf4
294 770 m 2
 294 620 l 2
 294 593 301 585 320 585 c 1
 320 555 l 1
 282 555 263 570 260 600 c 1
 243 571 212 550 164 550 c 0
 94 550 54 590 54 645 c 0xf4
 54 701 97 730 160 730 c 2
 260 730 l 1
 260 770 l 2
 260 804 242 840 179.5 840 c 0
 117 840 100 804 100 770 c 1
 64 770 l 1xec
 64 831 110 870 179.5 870 c 0
 249 870 294 831 294 770 c 2
EndSplineSet
EndChar

StartChar: uni00AD
Encoding: 173 173 221
Width: 560
VWidth: 0
Flags: W
HStem: 295 50<90 470>
VStem: 90 380<295 345>
LayerCount: 2
Fore
SplineSet
90 345 m 1
 470 345 l 1
 470 295 l 1
 90 295 l 1
 90 345 l 1
EndSplineSet
EndChar

StartChar: degree
Encoding: 176 176 222
Width: 380
VWidth: 0
Flags: W
HStem: 670 50<121.387 258.613> 940 50<121.387 258.613>
VStem: 30 50<761.387 898.613> 300 50<761.387 898.613>
LayerCount: 2
Fore
SplineSet
190 940 m 0
 129 940 80 891 80 830 c 0
 80 769 129 720 190 720 c 0
 251 720 300 769 300 830 c 0
 300 891 251 940 190 940 c 0
190 990 m 0
 278 990 350 918 350 830 c 0
 350 742 278 670 190 670 c 0
 102 670 30 742 30 830 c 0
 30 918 102 990 190 990 c 0
EndSplineSet
EndChar

StartChar: plusminus
Encoding: 177 177 223
Width: 560
VWidth: 0
Flags: W
HStem: 85 50<90 470> 380 50<90 250 310 470>
VStem: 250 60<230 380 430 580>
LayerCount: 2
Fore
SplineSet
310 230 m 1
 250 230 l 1
 250 380 l 1
 90 380 l 1
 90 430 l 1
 250 430 l 1
 250 580 l 1
 310 580 l 1
 310 430 l 1
 470 430 l 1
 470 380 l 1
 310 380 l 1
 310 230 l 1
90 135 m 1
 470 135 l 1
 470 85 l 1
 90 85 l 1
 90 135 l 1
EndSplineSet
EndChar

StartChar: uni00B2
Encoding: 178 178 224
Width: 360
Flags: W
HStem: 560 30<100 300> 940 30<131.634 228.366>
VStem: 60 40<590 656.913 858 913.813> 260 35<813.044 911.411>
LayerCount: 2
Fore
SplineSet
260 858 m 0
 260 895 238 940 180 940 c 0
 122 940 100 895 100 858 c 1
 65 858 l 1
 65 920 110 970 180 970 c 0
 250 970 295 920 295 858 c 0
 295 804 246 761 200 730 c 0
 146 694 100 658 100 590 c 1
 300 590 l 1
 300 560 l 1
 60 560 l 1
 60 590 l 2
 60 666 106 706 160 742 c 0
 201 771 260 809 260 858 c 0
EndSplineSet
EndChar

StartChar: uni00B3
Encoding: 179 179 225
Width: 360
Flags: W
HStem: 550 30<132.262 237.738> 752 30<150 236.24> 940 30<135.32 233.377>
VStem: 60 35<614.234 670> 70 35<858 911.373> 265 35<806.848 911.377> 275 35<614.202 722.111>
LayerCount: 2
Fore
SplineSet
60 670 m 1xf2
 95 670 l 1
 95 628 120 580 185 580 c 0
 250 580 275 628 275 670 c 0xf2
 275 712 250 752 185 752 c 2
 150 752 l 1
 150 782 l 1
 185 782 l 2
 244 782 265 820 265 857.5 c 0
 265 895 244 940 185 940 c 0
 126 940 105 895 105 858 c 1
 70 858 l 1
 70 920 116 970 185 970 c 0
 254 970 300 920 300 858 c 0xec
 300 818 282 787 251 769 c 1
 288 751 310 716 310 670 c 0
 310 601 262 550 185 550 c 0
 108 550 60 601 60 670 c 1xf2
EndSplineSet
EndChar

StartChar: periodcentered
Encoding: 183 183 226
Width: 320
VWidth: 0
Flags: W
HStem: 250 120<111.108 208.892>
VStem: 100 120<261.108 358.892>
LayerCount: 2
Fore
SplineSet
220 310 m 0
 220 277 193 250 160 250 c 0
 127 250 100 277 100 310 c 0
 100 343 127 370 160 370 c 0
 193 370 220 343 220 310 c 0
EndSplineSet
EndChar

StartChar: uni00B9
Encoding: 185 185 227
Width: 290
Flags: W
HStem: 835 30<50 109.839>
VStem: 185 35<560 890 921.197 960>
LayerCount: 2
Fore
SplineSet
185 890 m 1
 164 858 100 835 50 835 c 1
 50 865 l 1
 108 865 185 913 185 960 c 1
 220 960 l 1
 220 560 l 1
 185 560 l 1
 185 890 l 1
EndSplineSet
EndChar

StartChar: ordmasculine
Encoding: 186 186 228
Width: 360
VWidth: 0
Flags: W
HStem: 550 30<121.149 228.851> 840 30<122.748 227.252>
VStem: 50 35<613.857 803.6> 265 35<613.857 803.6>
LayerCount: 2
Fore
SplineSet
175 840 m 0
 120 840 85 804 85 740 c 2
 85 670 l 2
 85 616 118 580 175 580 c 0
 232 580 265 616 265 670 c 2
 265 740 l 2
 265 804 230 840 175 840 c 0
175 870 m 0
 245 870 300 824 300 740 c 2
 300 670 l 2
 300 588 244 550 175 550 c 0
 106 550 50 588 50 670 c 2
 50 740 l 2
 50 824 105 870 175 870 c 0
EndSplineSet
EndChar

StartChar: questiondown
Encoding: 191 191 229
Width: 600
VWidth: 0
Flags: W
HStem: -20 60<188.453 371.547> 680 120<241.108 338.892>
VStem: 50 70<108.526 280.511> 230 120<691.108 788.892> 255 70<433.75 560> 440 70<108.526 272.042>
LayerCount: 2
Fore
SplineSet
425 265 m 1xec
 490 290 l 1
 502 264 510 233 510 200 c 0
 510 67 408 -20 280 -20 c 0
 152 -20 50 67 50 200 c 0
 50 311 125 354 205 410 c 0
 254 444 255 487 255 560 c 1
 325 560 l 1
 325 457 318 414 220 345 c 0
 159 302 120 273 120 200 c 0
 120 112 176 40 280 40 c 0
 384 40 440 112 440 200 c 0
 440 226 435 245 425 265 c 1xec
230 740 m 0xf4
 230 773 257 800 290 800 c 0
 323 800 350 773 350 740 c 0
 350 707 323 680 290 680 c 0
 257 680 230 707 230 740 c 0xf4
EndSplineSet
EndChar

StartChar: dagger
Encoding: 8224 8224 230
Width: 580
VWidth: 0
Flags: W
HStem: 570 30<70 270 310 510> 880 20G<270 310>
VStem: 270 40<-270 570 600 900>
LayerCount: 2
Fore
SplineSet
310 900 m 1
 310 600 l 1
 510 600 l 1
 510 570 l 1
 310 570 l 1
 310 -270 l 1
 270 -270 l 1
 270 570 l 1
 70 570 l 1
 70 600 l 1
 270 600 l 1
 270 900 l 1
 310 900 l 1
EndSplineSet
EndChar

StartChar: bullet
Encoding: 8226 8226 231
Width: 440
VWidth: 0
Flags: W
HStem: 200 220<149.927 290.073>
VStem: 110 220<239.927 380.073>
LayerCount: 2
Fore
SplineSet
330 310 m 0
 330 249 281 200 220 200 c 0
 159 200 110 249 110 310 c 0
 110 371 159 420 220 420 c 0
 281 420 330 371 330 310 c 0
EndSplineSet
EndChar

StartChar: uni2010
Encoding: 8208 8208 232
Width: 560
VWidth: 0
Flags: W
HStem: 295 50<90 470>
VStem: 90 380<295 345>
LayerCount: 2
Fore
SplineSet
90 345 m 1
 470 345 l 1
 470 295 l 1
 90 295 l 1
 90 345 l 1
EndSplineSet
EndChar

StartChar: uni2011
Encoding: 8209 8209 233
Width: 560
VWidth: 0
Flags: W
HStem: 295 50<90 470>
VStem: 90 380<295 345>
LayerCount: 2
Fore
SplineSet
90 345 m 1
 470 345 l 1
 470 295 l 1
 90 295 l 1
 90 345 l 1
EndSplineSet
EndChar

StartChar: perthousand
Encoding: 8240 8240 234
Width: 1170
VWidth: 0
Flags: W
HStem: -10 50<539.01 640.99 889.01 990.99> 0 21G<100 184.25> 300 50<539.01 640.99 889.01 990.99> 450 50<175.118 284.882> 760 50<175.118 284.882> 780 20G<655.75 740>
VStem: 80 60<535.924 724.076> 320 60<535.924 724.076> 450 60<68.1291 271.871> 670 60<68.1291 271.871> 800 60<68.1291 271.871> 1020 60<68.1291 271.871>
LayerCount: 2
Fore
SplineSet
670 800 m 1x77f0
 740 800 l 1
 170 0 l 1
 100 0 l 1
 670 800 l 1x77f0
230 810 m 0x3bf0
 319 810 380 729 380 630 c 0
 380 531 319 450 230 450 c 0
 141 450 80 531 80 630 c 0
 80 729 141 810 230 810 c 0x3bf0
230 760 m 0
 168 760 140 692 140 630 c 0
 140 568 168 500 230 500 c 0
 292 500 320 568 320 630 c 0
 320 692 292 760 230 760 c 0
590 350 m 0
 679 350 730 269 730 170 c 0
 730 71 679 -10 590 -10 c 0xb3f0
 501 -10 450 71 450 170 c 0
 450 269 501 350 590 350 c 0
590 300 m 0
 528 300 510 232 510 170 c 0
 510 108 528 40 590 40 c 0
 652 40 670 108 670 170 c 0
 670 232 652 300 590 300 c 0
940 350 m 0
 1029 350 1080 269 1080 170 c 0
 1080 71 1029 -10 940 -10 c 0
 851 -10 800 71 800 170 c 0
 800 269 851 350 940 350 c 0
940 300 m 0
 878 300 860 232 860 170 c 0
 860 108 878 40 940 40 c 0
 1002 40 1020 108 1020 170 c 0
 1020 232 1002 300 940 300 c 0
EndSplineSet
EndChar

StartChar: dotlessi
Encoding: 305 305 235
Width: 320
VWidth: 0
Flags: W
HStem: 0 21G<125 195> 580 20G<125 195>
VStem: 125 70<0 600>
AnchorPoint: "hook_above" 160 680 basechar 0
AnchorPoint: "diac_top" 160 650 basechar 0
AnchorPoint: "ogonek" 170 40 basechar 0
AnchorPoint: "diac_bottom" 160 -50 basechar 0
LayerCount: 2
Fore
SplineSet
125 600 m 1
 195 600 l 1
 195 0 l 1
 125 0 l 1
 125 600 l 1
EndSplineSet
EndChar

StartChar: uni0237
Encoding: 567 567 236
Width: 340
VWidth: 0
Flags: W
HStem: -290 60<20 111.497> 580 20G<150 220>
VStem: 150 70<-191.811 600>
AnchorPoint: "diac_top" 180 650 basechar 0
AnchorPoint: "diac_bottom" 358.744 -50 basechar 0
LayerCount: 2
Fore
SplineSet
220 -100 m 2
 220 -217 167 -290 20 -290 c 1
 20 -230 l 1
 113 -230 150 -187 150 -100 c 2
 150 600 l 1
 220 600 l 1
 220 -100 l 2
EndSplineSet
EndChar

StartChar: ae
Encoding: 230 230 237
Width: 1060
VWidth: 0
Flags: W
HStem: -20 60<216.104 413.05 625.101 832.757> 290 50<205.74 490 560 900> 560 60<235.048 436.458 633.454 825.724>
VStem: 90 70<92.3745 248.184> 110 70<420 507.268> 490 70<117.412 290 340 479.971> 900 70<106.35 200 340 477.488>
AnchorPoint: "diac_top" 530 650 basechar 0
AnchorPoint: "diac_bottom" 530 -50 basechar 0
LayerCount: 2
Fore
SplineSet
160 170 m 0xf6
 160 95 213 40 315 40 c 0
 421 40 490 108 490 220 c 2
 490 290 l 1
 305 290 l 2
 208 290 160 247 160 170 c 0xf6
900 360 m 2
 900 489 840 560 730 560 c 0
 620 560 560 489 560 360 c 2
 560 340 l 1
 900 340 l 1
 900 360 l 2
490 420 m 2
 490 487 460 560 335 560 c 0
 210 560 180 487 180 420 c 1
 110 420 l 1xee
 110 542 196 620 335 620 c 0
 429 620 499 584 534 524 c 1
 576 587 646 620 730 620 c 0
 869 620 970 528 970 360 c 2
 970 290 l 1
 560 290 l 1
 560 200 l 2
 560 101 617 40 730 40 c 0
 843 40 900 101 900 200 c 1
 970 200 l 1
 970 47 858 -20 730 -20 c 0
 641 -20 559 13 518 84 c 1
 480 23 411 -20 305 -20 c 0
 164 -20 90 60 90 170 c 0
 90 282 170 340 295 340 c 2
 490 340 l 1
 490 360 l 1
 490 420 l 2
EndSplineSet
EndChar

StartChar: AE
Encoding: 198 198 238
Width: 1000
VWidth: 0
Flags: W
HStem: 0 60<550 920> 180 60<237 480> 375 60<550 880> 740 60<550 910>
VStem: 480 70<60 180 240 375 435 738>
AnchorPoint: "diac_top" 640 850 basechar 0
AnchorPoint: "diac_bottom" 640 -50 basechar 0
LayerCount: 2
Fore
SplineSet
480 435 m 1
 480 738 l 1
 237 240 l 1
 480 240 l 1
 480 375 l 1
 480 435 l 1
120 0 m 1
 40 0 l 1
 440 800 l 1
 480 800 l 1
 510 800 l 1
 550 800 l 1
 910 800 l 1
 910 740 l 1
 550 740 l 1
 550 435 l 1
 880 435 l 1
 880 375 l 1
 550 375 l 1
 550 60 l 1
 920 60 l 1
 920 0 l 1
 550 0 l 1
 480 0 l 1
 480 60 l 1
 480 180 l 1
 208 180 l 1
 120 0 l 1
EndSplineSet
EndChar

StartChar: Aring
Encoding: 197 197 239
Width: 800
VWidth: 0
HStem: 0 21G<40 127.889 672.111 760> 180 60<214 586> 960 50<347.911 452.862>
VStem: 280 50<837.146 942.475> 470 50<836.386 943.015>
AnchorPoint: "diac_top" 400 1030 basechar 0
LayerCount: 2
Fore
SplineSet
400 960 m 0
 362 960 330 929 330 890 c 0
 330 851 362 820 400 820 c 0
 440 820 470 851 470 890 c 0
 470 929 440 960 400 960 c 0
400 1010 m 0
 467 1010 520 956 520 890 c 0
 520 839 489 796 444 778 c 1
 760 0 l 1
 680 0 l 1
 609 180 l 1
 191 180 l 1
 120 0 l 1
 40 0 l 1
 356 778 l 1
 312 796 280 840 280 890 c 0
 280 956 335 1010 400 1010 c 0
586 240 m 1
 400 711 l 1
 214 240 l 1
 586 240 l 1
EndSplineSet
EndChar

StartChar: multiply
Encoding: 215 215 240
Width: 560
VWidth: 0
Flags: W
HStem: 140 361
VStem: 100 361
LayerCount: 2
Fore
SplineSet
135 140 m 1
 100 176 l 1
 245 321 l 1
 100 466 l 1
 135 501 l 1
 280 356 l 1
 425 501 l 1
 461 466 l 1
 316 321 l 1
 461 176 l 1
 425 140 l 1
 280 285 l 1
 135 140 l 1
EndSplineSet
EndChar

StartChar: divide
Encoding: 247 247 241
Width: 560
VWidth: 0
Flags: W
HStem: 90 120<231.108 328.892> 295 50<80 480> 430 120<231.108 328.892>
VStem: 220 120<101.108 198.892 441.108 538.892>
CounterMasks: 1 e0
LayerCount: 2
Fore
SplineSet
340 150 m 0
 340 117 313 90 280 90 c 0
 247 90 220 117 220 150 c 0
 220 183 247 210 280 210 c 0
 313 210 340 183 340 150 c 0
340 490 m 0
 340 457 313 430 280 430 c 0
 247 430 220 457 220 490 c 0
 220 523 247 550 280 550 c 0
 313 550 340 523 340 490 c 0
80 345 m 1
 480 345 l 1
 480 295 l 1
 80 295 l 1
 80 345 l 1
EndSplineSet
EndChar

StartChar: thorn
Encoding: 254 254 242
Width: 710
VWidth: 0
Flags: W
HStem: -20 60<266.109 462.643> 560 60<269.683 466.076> 880 20G<110 180>
VStem: 110 70<-270 78 125.219 480.688 516 900> 550 70<133.71 473.62>
LayerCount: 2
Fore
SplineSet
110 900 m 1
 180 900 l 1
 180 600 l 1
 180 516 l 1
 222 576 293 620 380 620 c 0
 536 620 620 519 620 360 c 2
 620 260 l 2
 620 72 524 -20 380 -20 c 0
 286 -20 220 20 180 78 c 1
 180 -270 l 1
 110 -270 l 1
 110 600 l 1
 110 900 l 1
180 436 m 1
 180 181 l 1
 204 101 269 40 360 40 c 0
 477 40 550 111 550 260 c 2
 550 360 l 2
 550 489 482 560 360 560 c 0
 270 560 204 496 180 436 c 1
EndSplineSet
EndChar

StartChar: germandbls
Encoding: 223 223 243
Width: 850
VWidth: 0
Flags: W
HStem: -270 60<310 592.307> 0 21G<170 240> 210 60<490 592.405> 540 60<50 170 240 630> 840 60<278.503 370>
VStem: 170 70<0 540 600 801.811> 700 70<-110.037 108.042>
LayerCount: 2
Fore
SplineSet
50 540 m 1
 50 600 l 1
 170 600 l 1
 170 710 l 2
 170 827 223 900 370 900 c 1
 370 840 l 1
 277 840 240 797 240 710 c 2
 240 600 l 1
 310 600 l 1
 370 600 l 1
 710 600 l 1
 710 540 l 1
 490 270 l 1
 644 263 770 186 770 0 c 0
 770 -194 633 -270 470 -270 c 2
 310 -270 l 1
 310 -210 l 1
 470 -210 l 2
 597 -210 700 -147 700 0 c 0
 700 147 597 210 470 210 c 2
 410 210 l 1
 410 220 l 1
 410 270 l 1
 630 540 l 1
 370 540 l 1
 310 540 l 1
 240 540 l 1
 240 0 l 1
 170 0 l 1
 170 540 l 1
 50 540 l 1
EndSplineSet
EndChar

StartChar: Oslash
Encoding: 216 216 244
Width: 800
VWidth: 0
Flags: W
HStem: -20 60<276.768 517.744> 0 21G<90 154.182> 760 60<283.31 518.82> 780 20G<645.862 710>
VStem: 90 70<156.384 637.885> 640 70<161.541 638.751>
AnchorPoint: "diac_top" 400 850 basechar 0
AnchorPoint: "diac_bottom" 400 -50 basechar 0
LayerCount: 2
Fore
SplineSet
660 800 m 1x1c
 710 800 l 1
 647 712 l 1
 687 663 710 598 710 520 c 2
 710 270 l 2
 710 88 580 -20 400 -20 c 0x9c
 311 -20 234 6 179 55 c 1
 140 0 l 1
 90 0 l 1
 151 85 l 1
 112 133 90 195 90 270 c 2
 90 520 l 2
 90 706 223 820 400 820 c 0x6c
 487 820 564 793 619 742 c 1
 660 800 l 1x1c
218 110 m 1
 258 67 318 40 400 40 c 0
 565 40 640 150 640 270 c 2
 640 520 l 2
 640 569 629 615 606 654 c 1
 218 110 l 1
193 144 m 1
 581 689 l 1
 541 732 481 760 400 760 c 0x2c
 237 760 160 649 160 520 c 2
 160 270 l 2
 160 225 171 181 193 144 c 1
EndSplineSet
EndChar

StartChar: Thorn
Encoding: 222 222 245
Width: 740
VWidth: 0
Flags: W
HStem: 0 21G<110 180> 220 60<180 515.603> 640 60<180 515.603> 780 20G<110 180>
VStem: 110 70<0 220 280 640 700 800> 600 70<361.692 558.307>
LayerCount: 2
Fore
SplineSet
410 700 m 2
 611 700 670 568 670 460 c 0
 670 352 611 220 410 220 c 2
 180 220 l 1
 180 0 l 1
 110 0 l 1
 110 800 l 1
 180 800 l 1
 180 700 l 1
 410 700 l 2
410 640 m 2
 180 640 l 1
 180 280 l 1
 410 280 l 2
 533 280 600 358 600 460 c 0
 600 562 533 640 410 640 c 2
EndSplineSet
EndChar

StartChar: oslash
Encoding: 248 248 246
Width: 660
VWidth: 0
Flags: W
HStem: -20 60<227.427 433.385> 0 21G<80 140.263> 560 60<231.918 430.286> 580 20G<520.116 580>
VStem: 80 70<123.27 471.5> 510 70<119.447 473.542>
AnchorPoint: "diac_top" 340 650 basechar 0
AnchorPoint: "diac_bottom" 318.744 -50 basechar 0
AnchorPoint: "cedilla" 357.004 40 basechar 0
AnchorPoint: "ogonek" 357.004 40 basechar 0
LayerCount: 2
Fore
SplineSet
535 600 m 1x1c
 580 600 l 1
 527 531 l 1
 560 488 580 431 580 360 c 2
 580 220 l 2
 580 57 468 -20 330 -20 c 0x9c
 261 -20 199 -1 154 38 c 1
 125 0 l 1
 80 0 l 1
 129 64 l 1
 98 103 80 154 80 220 c 2
 80 360 l 2
 80 528 190 620 330 620 c 0x6c
 398 620 458 599 503 557 c 1
 535 600 l 1x1c
330 560 m 0x2c
 220 560 150 489 150 360 c 2
 150 220 l 2
 150 182 158 149 173 122 c 1
 464 506 l 1
 432 541 386 560 330 560 c 0x2c
485 475 m 1
 194 92 l 1
 225 59 271 40 330 40 c 0x8c
 445 40 510 111 510 220 c 2
 510 360 l 2
 510 406 501 444 485 475 c 1
EndSplineSet
EndChar

StartChar: cedilla
Encoding: 184 184 247
Width: 560
VWidth: 0
Flags: W
HStem: -360 50<177.563 382.437> -150 50<194 381.229>
VStem: 90 60<-283.219 -230> 410 60<-284.155 -175.845>
LayerCount: 2
Fore
SplineSet
240 20 m 1
 290 20 l 1
 194 -100 l 1
 280 -100 l 2
 409 -100 470 -152 470 -230 c 0
 470 -308 409 -360 280 -360 c 0
 151 -360 90 -308 90 -230 c 1
 150 -230 l 1
 150 -291 210 -310 280 -310 c 0
 350 -310 410 -291 410 -230 c 0
 410 -169 350 -150 280 -150 c 2
 160 -150 l 1
 140 -100 l 1
 240 20 l 1
EndSplineSet
EndChar

StartChar: ampersand
Encoding: 38 38 248
Width: 800
VWidth: 0
Flags: W
HStem: -20 60<239.733 464.94> 0 21G<653.368 750> 760 60<303.376 446.882>
VStem: 90 70<118.089 292.148> 190 70<546.745 716.214> 490 70<551.254 714.152> 610 70<214.667 380>
LayerCount: 2
Fore
SplineSet
336 399 m 1xbe
 237 351 160 302 160 210 c 0
 160 107 231 40 350 40 c 0
 436 40 505 76 550 143 c 1
 336 399 l 1xbe
380 760 m 0
 298 760 260 698 260 630 c 0
 260 556 321 500 353 471 c 1
 424 504 490 545 490 630 c 0
 490 698 448 760 380 760 c 0
380 820 m 0
 492 820 560 735 560 630 c 0
 560 530 485 473 394 427 c 1
 581 203 l 1
 600 252 610 311 610 380 c 1
 680 380 l 1
 680 294 661 214 626 148 c 1
 750 0 l 1
 670 0 l 1x7e
 591 95 l 1
 534 24 453 -20 350 -20 c 0
 195 -20 90 78 90 210 c 0
 90 327 187 392 296 444 c 1
 262 475 190 541 190 630 c 0
 190 735 268 820 380 820 c 0
EndSplineSet
EndChar

StartChar: currency
Encoding: 164 164 249
Width: 1040
VWidth: 0
Flags: W
HStem: -20 70<391.183 648.817> 750 70<391.183 648.817>
VStem: 100 70<271.183 528.817> 870 70<271.183 528.817>
LayerCount: 2
Fore
SplineSet
520 750 m 0
 327 750 170 593 170 400 c 0
 170 207 327 50 520 50 c 0
 713 50 870 207 870 400 c 0
 870 593 713 750 520 750 c 0
520 820 m 0
 623 820 718 783 791 721 c 1
 884 814 l 1
 934 764 l 1
 841 671 l 1
 903 598 940 503 940 400 c 0
 940 297 903 202 841 129 c 1
 934 36 l 1
 884 -14 l 1
 791 79 l 1
 718 17 623 -20 520 -20 c 0
 417 -20 322 17 249 79 c 1
 156 -14 l 1
 106 36 l 1
 199 129 l 1
 137 202 100 297 100 400 c 0
 100 503 137 598 199 671 c 1
 106 764 l 1
 156 814 l 1
 249 721 l 1
 322 783 417 820 520 820 c 0
EndSplineSet
EndChar

StartChar: uni00B5
Encoding: 181 181 250
Width: 680
VWidth: 0
Flags: W
HStem: -20 60<285.434 471.579> 580 20G<110 180 520 590>
VStem: 110 70<-270 110 138.324 600> 520 70<89.3236 600>
LayerCount: 2
Fore
SplineSet
110 0 m 1
 110 600 l 1
 180 600 l 1
 180 179 l 1
 211 120 275 40 380 40 c 0
 485 40 520 105 520 180 c 2
 520 600 l 1
 590 600 l 1
 590 180 l 2
 590 58 512 -20 390 -20 c 0
 275 -20 211 57 180 110 c 1
 180 0 l 1
 180 -270 l 1
 110 -270 l 1
 110 0 l 1
EndSplineSet
EndChar

StartChar: paragraph
Encoding: 182 182 251
Width: 740
VWidth: 0
Flags: W
HStem: 0 21G<320 390 560 630> 320 60<225.26 320> 740 60<224.397 320 390 560>
VStem: 70 70<461.664 658.928> 320 70<0 320 380 740> 560 70<0 740>
LayerCount: 2
Fore
SplineSet
320 380 m 1
 320 740 l 1
 203 736 140 659 140 560 c 0
 140 461 203 384 320 380 c 1
390 740 m 1
 390 0 l 1
 320 0 l 1
 320 320 l 1
 127 324 70 453 70 560 c 0
 70 668 129 800 330 800 c 2
 630 800 l 1
 630 0 l 1
 560 0 l 1
 560 740 l 1
 390 740 l 1
EndSplineSet
EndChar

StartChar: macron
Encoding: 175 175 252
Width: 560
VWidth: 0
Flags: W
HStem: 750 50<90 470>
VStem: 90 380<750 800>
LayerCount: 2
Fore
SplineSet
90 800 m 1
 470 800 l 1
 470 750 l 1
 90 750 l 1
 90 800 l 1
EndSplineSet
EndChar

StartChar: logicalnot
Encoding: 172 172 253
Width: 600
VWidth: 0
Flags: W
HStem: 550 50<80 440>
VStem: 440 70<410 550>
LayerCount: 2
Fore
SplineSet
80 600 m 1
 510 600 l 1
 510 410 l 1
 440 410 l 1
 440 550 l 1
 80 550 l 1
 80 600 l 1
EndSplineSet
EndChar

StartChar: onequarter
Encoding: 188 188 254
Width: 780
VWidth: 0
Flags: W
HStem: 0 21G<80 144.25 645 680> 82 30<505 645 680 720> 674 30<60 119.839> 780 20G<195 230 635.75 700>
VStem: 195 35<399 729 760.197 799> 645 35<0 82 112 340>
LayerCount: 2
Fore
SplineSet
650 800 m 1
 700 800 l 1
 130 0 l 1
 80 0 l 1
 650 800 l 1
470 112 m 1
 645 400 l 1
 680 400 l 1
 680 112 l 1
 720 112 l 1
 720 82 l 1
 680 82 l 1
 680 0 l 1
 645 0 l 1
 645 82 l 1
 470 82 l 1
 470 112 l 1
505 112 m 1
 645 112 l 1
 645 340 l 1
 505 112 l 1
195 729 m 1
 174 698 110 674 60 674 c 1
 60 704 l 1
 118 704 195 752 195 799 c 1
 230 799 l 1
 230 399 l 1
 195 399 l 1
 195 729 l 1
EndSplineSet
EndChar

StartChar: onehalf
Encoding: 189 189 255
Width: 780
VWidth: 0
Flags: W
HStem: 0 30<520 720> 380 30<551.634 648.366> 674 30<60 119.839> 780 20G<195 230 635.75 700>
VStem: 195 35<399 729 760.197 799> 480 40<30 96.9131 298 353.813> 680 35<253.044 351.412>
LayerCount: 2
Fore
SplineSet
650 800 m 1
 700 800 l 1
 130 0 l 1
 80 0 l 1
 650 800 l 1
680 298 m 0
 680 335 658 380 600 380 c 0
 542 380 520 335 520 298 c 1
 485 298 l 1
 485 360 530 410 600 410 c 0
 670 410 715 360 715 298 c 0
 715 244 666 201 620 170 c 0
 566 134 520 98 520 30 c 1
 720 30 l 1
 720 0 l 1
 480 0 l 1
 480 30 l 2
 480 106 526 146 580 182 c 0
 621 211 680 249 680 298 c 0
195 729 m 1
 174 698 110 674 60 674 c 1
 60 704 l 1
 118 704 195 752 195 799 c 1
 230 799 l 1
 230 399 l 1
 195 399 l 1
 195 729 l 1
EndSplineSet
EndChar

StartChar: threequarters
Encoding: 190 190 256
Width: 780
VWidth: 0
Flags: W
HStem: 0 21G<80 144.25 645 680> 82 30<505 645 680 720> 390 30<132.262 237.738> 592 30<150 236.24> 780 30<135.32 233.377> 780 20G<635.75 700>
VStem: 60 35<454.234 510> 70 35<698 751.373> 265 35<646.848 751.377> 275 35<454.202 562.111> 645 35<0 82 112 340>
LayerCount: 2
Fore
SplineSet
650 800 m 1xf420
 700 800 l 1
 130 0 l 1
 80 0 l 1
 650 800 l 1xf420
470 112 m 1
 645 400 l 1
 680 400 l 1
 680 112 l 1
 720 112 l 1
 720 82 l 1
 680 82 l 1
 680 0 l 1
 645 0 l 1
 645 82 l 1
 470 82 l 1
 470 112 l 1
505 112 m 1
 645 112 l 1
 645 340 l 1
 505 112 l 1
60 510 m 1xfa60
 95 510 l 1
 95 468 120 420 185 420 c 0
 250 420 275 468 275 510 c 0xfa60
 275 552 250 592 185 592 c 2
 150 592 l 1
 150 622 l 1
 185 622 l 2
 244 622 265 660 265 697.5 c 0
 265 735 244 780 185 780 c 0
 126 780 105 735 105 698 c 1
 70 698 l 1
 70 760 116 810 185 810 c 0
 254 810 300 760 300 698 c 0xf9a0
 300 658 282 627 251 609 c 1
 288 591 310 556 310 510 c 0
 310 441 262 390 185 390 c 0
 108 390 60 441 60 510 c 1xfa60
EndSplineSet
EndChar

StartChar: uni20A9
Encoding: 8361 8361 257
Width: 1160
VWidth: 0
Flags: W
HStem: 0 21G<304 395.61 764.39 856> 410 50<40 172 262 436 519 641 724 898 988 1120> 630 50<40 106 199 497 663 961 1054 1120> 780 20G<70 155.833 539.333 620.667 1004.17 1090>
LayerCount: 2
Fore
SplineSet
975 680 m 1
 1010 800 l 1
 1090 800 l 1
 1054 680 l 1
 1120 680 l 1
 1120 630 l 1
 1039 630 l 1
 988 460 l 1
 1120 460 l 1
 1120 410 l 1
 973 410 l 1
 850 0 l 1
 840 0 l 1
 780 0 l 1
 770 0 l 1
 655 410 l 1
 505 410 l 1
 390 0 l 1
 380 0 l 1
 320 0 l 1
 310 0 l 1
 187 410 l 1
 40 410 l 1
 40 460 l 1
 172 460 l 1
 121 630 l 1
 40 630 l 1
 40 680 l 1
 106 680 l 1
 70 800 l 1
 150 800 l 1
 185 680 l 1
 511 680 l 1
 545 800 l 1
 615 800 l 1
 649 680 l 1
 975 680 l 1
961 630 m 1
 663 630 l 1
 710 460 l 1
 912 460 l 1
 961 630 l 1
898 410 m 1
 724 410 l 1
 810 105 l 1
 898 410 l 1
497 630 m 1
 199 630 l 1
 248 460 l 1
 450 460 l 1
 497 630 l 1
436 410 m 1
 262 410 l 1
 350 105 l 1
 436 410 l 1
567 630 m 1
 519 460 l 1
 641 460 l 1
 593 630 l 1
 567 630 l 1
EndSplineSet
EndChar

StartChar: uni20B9
Encoding: 8377 8377 258
Width: 720
VWidth: 0
Flags: W
HStem: 0 21G<449.459 560> 320 50<231 345.25> 535 50<90 429 496.209 630> 750 50<90 347.525 414 630>
VStem: 429 70<449.761 535 585 670.239>
LayerCount: 2
Fore
SplineSet
90 535 m 1
 90 585 l 1
 429 585 l 1
 420 691 354 750 240 750 c 2
 90 750 l 1
 90 800 l 1
 240 800 l 1
 630 800 l 1
 630 750 l 1
 414 750 l 1
 470 708 494 645 499 585 c 1
 630 585 l 1
 630 535 l 1
 499 535 l 1
 490 432 426 320 240 320 c 2
 231 320 l 1
 560 0 l 1
 470 0 l 1
 90 370 l 1
 180 370 l 1
 240 370 l 2
 354 370 420 429 429 535 c 1
 90 535 l 1
EndSplineSet
EndChar

StartChar: odieresis
Encoding: 246 246 259
Width: 660
VWidth: 0
Flags: W
HStem: -20 60<226.615 433.385> 560 60<231.918 428.082> 720 120<151.108 248.892 411.108 508.892>
VStem: 80 70<119.447 471.5> 140 120<731.108 828.892> 400 120<731.108 828.892> 510 70<119.447 471.5>
AnchorPoint: "diac_top" 340 830 basechar 0
AnchorPoint: "diac_bottom" 318.744 -50 basechar 0
LayerCount: 2
Fore
SplineSet
260 780 m 0xe8
 260 747 233 720 200 720 c 0
 167 720 140 747 140 780 c 0
 140 813 167 840 200 840 c 0
 233 840 260 813 260 780 c 0xe8
520 780 m 0xe4
 520 747 493 720 460 720 c 0
 427 720 400 747 400 780 c 0
 400 813 427 840 460 840 c 0
 493 840 520 813 520 780 c 0xe4
330 560 m 0
 220 560 150 489 150 360 c 2
 150 220 l 2
 150 111 215 40 330 40 c 0
 445 40 510 111 510 220 c 2
 510 360 l 2xf2
 510 489 440 560 330 560 c 0
330 620 m 0
 470 620 580 528 580 360 c 2
 580 220 l 2
 580 57 468 -20 330 -20 c 0
 192 -20 80 57 80 220 c 2
 80 360 l 2
 80 528 190 620 330 620 c 0
EndSplineSet
EndChar

StartChar: uni0337
Encoding: 823 823 260
Width: 0
VWidth: 0
Flags: W
HStem: 0 21G<-590 -529.833> 580 20G<-150.167 -90>
LayerCount: 2
Fore
SplineSet
-135 600 m 1
 -90 600 l 1
 -545 0 l 1
 -590 0 l 1
 -135 600 l 1
EndSplineSet
EndChar

StartChar: uni0338
Encoding: 824 824 261
Width: 0
VWidth: 0
Flags: W
HStem: 0 21G<-720 -655.75> 780 20G<-164.25 -100>
LayerCount: 2
Fore
SplineSet
-150 800 m 1
 -100 800 l 1
 -670 0 l 1
 -720 0 l 1
 -150 800 l 1
EndSplineSet
EndChar

StartChar: dieresis
Encoding: 168 168 262
Width: 680
VWidth: 0
Flags: W
HStem: 650 140<155.875 264.125 415.875 524.125>
VStem: 140 140<665.875 774.125> 400 140<665.875 774.125>
LayerCount: 2
Fore
SplineSet
540 720 m 0
 540 681 509 650 470 650 c 0
 431 650 400 681 400 720 c 0
 400 759 431 790 470 790 c 0
 509 790 540 759 540 720 c 0
280 720 m 0
 280 681 249 650 210 650 c 0
 171 650 140 681 140 720 c 0
 140 759 171 790 210 790 c 0
 249 790 280 759 280 720 c 0
EndSplineSet
EndChar

StartChar: idieresis
Encoding: 239 239 263
Width: 320
VWidth: 0
HStem: 0 21G<125 195> 580 20G<125 195> 720 120<-18.8921 78.8921 241.108 338.892>
VStem: -30 120<731.108 828.892> 125 70<0 600> 230 120<731.108 828.892>
CounterMasks: 1 1c
AnchorPoint: "diac_top" 160 830 basechar 0
LayerCount: 2
Fore
SplineSet
90 780 m 0
 90 747 63 720 30 720 c 0
 -3 720 -30 747 -30 780 c 0
 -30 813 -3 840 30 840 c 0
 63 840 90 813 90 780 c 0
350 780 m 0
 350 747 323 720 290 720 c 0
 257 720 230 747 230 780 c 0
 230 813 257 840 290 840 c 0
 323 840 350 813 350 780 c 0
125 600 m 1
 195 600 l 1
 195 0 l 1
 125 0 l 1
 125 600 l 1
EndSplineSet
EndChar

StartChar: Adieresis
Encoding: 196 196 264
Width: 800
VWidth: 0
HStem: 0 21G<40 127.889 672.111 760> 180 60<214 586> 780 20G<356.875 443.125> 920 120<221.108 318.892 481.108 578.892>
VStem: 210 120<931.108 1028.89> 470 120<931.108 1028.89>
AnchorPoint: "diac_top" 400 1030 basechar 0
LayerCount: 2
Fore
SplineSet
330 980 m 0
 330 947 303 920 270 920 c 0
 237 920 210 947 210 980 c 0
 210 1013 237 1040 270 1040 c 0
 303 1040 330 1013 330 980 c 0
590 980 m 0
 590 947 563 920 530 920 c 0
 497 920 470 947 470 980 c 0
 470 1013 497 1040 530 1040 c 0
 563 1040 590 1013 590 980 c 0
586 240 m 1
 400 711 l 1
 214 240 l 1
 586 240 l 1
760 0 m 1
 680 0 l 1
 609 180 l 1
 191 180 l 1
 120 0 l 1
 40 0 l 1
 365 800 l 1
 435 800 l 1
 760 0 l 1
EndSplineSet
EndChar

StartChar: Edieresis
Encoding: 203 203 265
Width: 670
VWidth: 0
HStem: 0 60<180 590> 370 60<180 550> 740 60<180 580> 920 120<171.108 268.892 431.108 528.892>
VStem: 110 70<60 370 430 740> 160 120<931.108 1028.89> 420 120<931.108 1028.89>
AnchorPoint: "diac_bottom" 328.744 -50 basechar 0
LayerCount: 2
Fore
SplineSet
280 980 m 0xf6
 280 947 253 920 220 920 c 0
 187 920 160 947 160 980 c 0
 160 1013 187 1040 220 1040 c 0
 253 1040 280 1013 280 980 c 0xf6
540 980 m 0
 540 947 513 920 480 920 c 0
 447 920 420 947 420 980 c 0
 420 1013 447 1040 480 1040 c 0
 513 1040 540 1013 540 980 c 0
180 60 m 1xfa
 590 60 l 1
 590 0 l 1
 180 0 l 1
 110 0 l 1
 110 90 l 1
 110 355 l 1
 110 445 l 1
 110 710 l 1
 110 800 l 1
 180 800 l 1
 580 800 l 1
 580 740 l 1
 180 740 l 1
 180 430 l 1
 550 430 l 1
 550 370 l 1
 180 370 l 1
 180 60 l 1xfa
EndSplineSet
EndChar

StartChar: Odieresis
Encoding: 214 214 266
Width: 800
VWidth: 0
Flags: W
HStem: -20 60<282.256 517.744> 760 60<283.31 516.69> 920 120<221.108 318.892 481.108 578.892>
VStem: 90 70<161.541 637.885> 210 120<931.108 1028.89> 470 120<931.108 1028.89> 640 70<161.541 637.885>
AnchorPoint: "diac_top" 400 1030 basechar 0
LayerCount: 2
Fore
SplineSet
330 980 m 0
 330 947 303 920 270 920 c 0
 237 920 210 947 210 980 c 0
 210 1013 237 1040 270 1040 c 0
 303 1040 330 1013 330 980 c 0
590 980 m 0
 590 947 563 920 530 920 c 0
 497 920 470 947 470 980 c 0
 470 1013 497 1040 530 1040 c 0
 563 1040 590 1013 590 980 c 0
640 520 m 2
 640 649 563 760 400 760 c 0
 237 760 160 649 160 520 c 2
 160 270 l 2
 160 150 235 40 400 40 c 0
 565 40 640 150 640 270 c 2
 640 520 l 2
710 520 m 2
 710 270 l 2
 710 88 580 -20 400 -20 c 0
 220 -20 90 88 90 270 c 2
 90 520 l 2
 90 706 223 820 400 820 c 0
 577 820 710 707 710 520 c 2
EndSplineSet
EndChar

StartChar: Udieresis
Encoding: 220 220 267
Width: 800
VWidth: 0
HStem: -20 60<283.929 516.071> 780 20G<100 170 630 700> 920 120<221.108 318.892 481.108 578.892>
VStem: 100 70<149.499 800> 210 120<931.108 1028.89> 470 120<931.108 1028.89> 630 70<149.499 800>
AnchorPoint: "diac_top" 400 1030 basechar 0
LayerCount: 2
Fore
SplineSet
330 980 m 0
 330 947 303 920 270 920 c 0
 237 920 210 947 210 980 c 0
 210 1013 237 1040 270 1040 c 0
 303 1040 330 1013 330 980 c 0
590 980 m 0
 590 947 563 920 530 920 c 0
 497 920 470 947 470 980 c 0
 470 1013 497 1040 530 1040 c 0
 563 1040 590 1013 590 980 c 0
700 260 m 2
 700 85 577 -20 400 -20 c 0
 223 -20 100 85 100 260 c 2
 100 800 l 1
 170 800 l 1
 170 260 l 2
 170 115 277 40 400 40 c 0
 523 40 630 115 630 260 c 2
 630 800 l 1
 700 800 l 1
 700 260 l 2
EndSplineSet
EndChar

StartChar: adieresis
Encoding: 228 228 268
Width: 700
VWidth: 0
HStem: -20 60<217.276 419.809> -10 60<576.04 620> 290 50<209.701 500> 560 60<236.309 443.691> 720 120<161.108 258.892 421.108 518.892>
VStem: 90 70<93.6285 245.109> 110 70<420 502.719> 150 120<731.108 828.892> 410 120<731.108 828.892> 500 70<121.073 290 340 502.719>
AnchorPoint: "diac_top" 340 830 basechar 0
AnchorPoint: "diac_bottom" 328.744 -50 basechar 0
LayerCount: 2
Fore
SplineSet
270 780 m 0x39
 270 747 243 720 210 720 c 0
 177 720 150 747 150 780 c 0
 150 813 177 840 210 840 c 0
 243 840 270 813 270 780 c 0x39
530 780 m 0x3880
 530 747 503 720 470 720 c 0
 437 720 410 747 410 780 c 0
 410 813 437 840 470 840 c 0
 503 840 530 813 530 780 c 0x3880
500 290 m 1xbc40
 310 290 l 2
 213 290 160 247 160 170 c 0
 160 95 218 40 320 40 c 0
 426 40 500 108 500 220 c 2
 500 290 l 1xbc40
570 420 m 2
 570 120 l 2
 570 66 583 50 620 50 c 1
 620 -10 l 1x7a40
 545 -10 507 20 501 81 c 1
 467 22 406 -20 310 -20 c 0
 169 -20 90 60 90 170 c 0xbc40
 90 282 175 340 300 340 c 2
 500 340 l 1
 500 420 l 2
 500 487 465 560 340 560 c 0
 215 560 180 487 180 420 c 1
 110 420 l 1xba40
 110 542 201 620 340 620 c 0
 479 620 570 542 570 420 c 2
EndSplineSet
EndChar

StartChar: edieresis
Encoding: 235 235 269
Width: 680
VWidth: 0
HStem: -20 60<232.005 447.995> 290 50<160 520> 560 60<242.129 437.871> 720 120<161.108 258.892 421.108 518.892>
VStem: 90 70<111.741 290 340 471.5> 150 120<731.108 828.892> 410 120<731.108 828.892> 520 70<111.741 200 340 471.5>
AnchorPoint: "diac_top" 340 830 basechar 0
LayerCount: 2
Fore
SplineSet
270 780 m 0xf4
 270 747 243 720 210 720 c 0
 177 720 150 747 150 780 c 0
 150 813 177 840 210 840 c 0
 243 840 270 813 270 780 c 0xf4
530 780 m 0xf2
 530 747 503 720 470 720 c 0
 437 720 410 747 410 780 c 0
 410 813 437 840 470 840 c 0
 503 840 530 813 530 780 c 0xf2
590 360 m 2xf9
 590 290 l 1
 160 290 l 1
 160 200 l 2
 160 101 227 40 340 40 c 0
 453 40 520 101 520 200 c 1
 590 200 l 1
 590 47 468 -20 340 -20 c 0
 212 -20 90 47 90 200 c 2
 90 360 l 2
 90 528 201 620 340 620 c 0
 479 620 590 528 590 360 c 2xf9
520 360 m 2
 520 489 450 560 340 560 c 0
 230 560 160 489 160 360 c 2
 160 340 l 1
 520 340 l 1
 520 360 l 2
EndSplineSet
EndChar

StartChar: udieresis
Encoding: 252 252 270
Width: 660
VWidth: 0
HStem: -20 60<233.216 426.784> 580 20G<100 170 490 560> 720 120<151.108 248.892 411.108 508.892>
VStem: 100 70<105.719 600> 140 120<731.108 828.892> 400 120<731.108 828.892> 490 70<105.719 600>
AnchorPoint: "diac_top" 330 830 basechar 0
LayerCount: 2
Fore
SplineSet
260 780 m 0xe8
 260 747 233 720 200 720 c 0
 167 720 140 747 140 780 c 0
 140 813 167 840 200 840 c 0
 233 840 260 813 260 780 c 0xe8
520 780 m 0xe4
 520 747 493 720 460 720 c 0
 427 720 400 747 400 780 c 0
 400 813 427 840 460 840 c 0
 493 840 520 813 520 780 c 0xe4
170 200 m 2xf2
 170 103 224 40 330 40 c 0
 436 40 490 103 490 200 c 2
 490 600 l 1
 560 600 l 1
 560 200 l 2
 560 58 461 -20 330 -20 c 0
 199 -20 100 58 100 200 c 2
 100 600 l 1
 170 600 l 1
 170 200 l 2xf2
EndSplineSet
EndChar

StartChar: ydieresis
Encoding: 255 255 271
Width: 660
VWidth: 0
HStem: -290 60<110 209.229> 580 20G<50 137.828 522.172 610> 720 120<151.108 248.892 411.108 508.892>
VStem: 140 120<731.108 828.892> 400 120<731.108 828.892>
LayerCount: 2
Fore
SplineSet
260 780 m 0
 260 747 233 720 200 720 c 0
 167 720 140 747 140 780 c 0
 140 813 167 840 200 840 c 0
 233 840 260 813 260 780 c 0
520 780 m 0
 520 747 493 720 460 720 c 0
 427 720 400 747 400 780 c 0
 400 813 427 840 460 840 c 0
 493 840 520 813 520 780 c 0
530 600 m 1
 610 600 l 1
 365 0 l 1
 295 -180 l 1
 261 -264 223 -290 110 -290 c 1
 110 -230 l 1
 191 -230 211 -217 230 -170 c 2
 295 0 l 1
 50 600 l 1
 130 600 l 1
 330 89 l 1
 530 600 l 1
EndSplineSet
EndChar

StartChar: iacute
Encoding: 237 237 272
Width: 320
VWidth: 0
HStem: 0 21G<125 195> 580 20G<125 195>
VStem: 125 70<0 600>
AnchorPoint: "diac_top" 160 830 basechar 0
LayerCount: 2
Fore
SplineSet
350 830 m 1
 95 710 l 1
 30 710 l 1
 210 830 l 1
 350 830 l 1
125 600 m 1
 195 600 l 1
 195 0 l 1
 125 0 l 1
 125 600 l 1
EndSplineSet
EndChar

StartChar: igrave
Encoding: 236 236 273
Width: 320
VWidth: 0
HStem: 0 21G<125 195> 580 20G<125 195>
VStem: 125 70<0 600>
AnchorPoint: "diac_top" 160 830 basechar 0
LayerCount: 2
Fore
SplineSet
-50 830 m 1
 90 830 l 1
 270 710 l 1
 205 710 l 1
 -50 830 l 1
125 600 m 1
 195 600 l 1
 195 0 l 1
 125 0 l 1
 125 600 l 1
EndSplineSet
EndChar

StartChar: Agrave
Encoding: 192 192 274
Width: 800
VWidth: 0
HStem: 0 21G<40 127.889 672.111 760> 180 60<214 586> 780 20G<356.875 443.125>
AnchorPoint: "diac_top" 400 1030 basechar 0
LayerCount: 2
Fore
SplineSet
190 1030 m 1
 330 1030 l 1
 510 910 l 1
 445 910 l 1
 190 1030 l 1
586 240 m 1
 400 711 l 1
 214 240 l 1
 586 240 l 1
760 0 m 1
 680 0 l 1
 609 180 l 1
 191 180 l 1
 120 0 l 1
 40 0 l 1
 365 800 l 1
 435 800 l 1
 760 0 l 1
EndSplineSet
EndChar

StartChar: Aacute
Encoding: 193 193 275
Width: 800
VWidth: 0
HStem: 0 21G<40 127.889 672.111 760> 180 60<214 586> 780 20G<356.875 443.125>
AnchorPoint: "diac_top" 400 1030 basechar 0
LayerCount: 2
Fore
SplineSet
590 1030 m 1
 335 910 l 1
 270 910 l 1
 450 1030 l 1
 590 1030 l 1
586 240 m 1
 400 711 l 1
 214 240 l 1
 586 240 l 1
760 0 m 1
 680 0 l 1
 609 180 l 1
 191 180 l 1
 120 0 l 1
 40 0 l 1
 365 800 l 1
 435 800 l 1
 760 0 l 1
EndSplineSet
EndChar

StartChar: Acircumflex
Encoding: 194 194 276
Width: 800
VWidth: 0
HStem: 0 21G<40 127.889 672.111 760> 180 60<214 586> 780 20G<356.875 443.125>
AnchorPoint: "diac_top" 400 1030 basechar 0
AnchorPoint: "hook_above" 400 1030 basechar 0
LayerCount: 2
Fore
SplineSet
290 890 m 1
 210 890 l 1
 375 1050 l 1
 425 1050 l 1
 590 890 l 1
 510 890 l 1
 400 1009 l 1
 290 890 l 1
586 240 m 1
 400 711 l 1
 214 240 l 1
 586 240 l 1
760 0 m 1
 680 0 l 1
 609 180 l 1
 191 180 l 1
 120 0 l 1
 40 0 l 1
 365 800 l 1
 435 800 l 1
 760 0 l 1
EndSplineSet
EndChar

StartChar: Atilde
Encoding: 195 195 277
Width: 800
VWidth: 0
HStem: 0 21G<40 127.889 672.111 760> 180 60<214 586> 780 20G<356.875 443.125> 900 50<426.843 526.384> 980 50<273.616 373.157>
VStem: 210 40<916.85 947.907> 550 40<982.093 1013.15>
AnchorPoint: "diac_top" 400 1030 basechar 0
LayerCount: 2
Fore
SplineSet
325 1030 m 0
 364 1030 378 1017 405 995 c 0
 427 977 443 950 475 950 c 0
 517 950 539 984 550 1025 c 1
 590 1010 l 1
 580 948 546 900 475 900 c 0
 436 900 422 913 395 935 c 0
 373 953 357 980 325 980 c 0
 283 980 261 946 250 905 c 1
 210 920 l 1
 220 982 254 1030 325 1030 c 0
586 240 m 1
 400 711 l 1
 214 240 l 1
 586 240 l 1
760 0 m 1
 680 0 l 1
 609 180 l 1
 191 180 l 1
 120 0 l 1
 40 0 l 1
 365 800 l 1
 435 800 l 1
 760 0 l 1
EndSplineSet
EndChar

StartChar: Igrave
Encoding: 204 204 278
Width: 320
VWidth: 0
HStem: 0 21G<125 195> 780 20G<125 195>
VStem: 125 70<0 800>
AnchorPoint: "diac_top" 160 1030 basechar 0
AnchorPoint: "diac_bottom" 160 -50 basechar 0
LayerCount: 2
Fore
SplineSet
-50 1030 m 1
 90 1030 l 1
 270 910 l 1
 205 910 l 1
 -50 1030 l 1
125 800 m 1
 195 800 l 1
 195 0 l 1
 125 0 l 1
 125 800 l 1
EndSplineSet
EndChar

StartChar: Iacute
Encoding: 205 205 279
Width: 320
VWidth: 0
HStem: 0 21G<125 195> 780 20G<125 195>
VStem: 125 70<0 800>
AnchorPoint: "diac_bottom" 160 -50 basechar 0
AnchorPoint: "diac_top" 160 1030 basechar 0
LayerCount: 2
Fore
SplineSet
350 1030 m 1
 95 910 l 1
 30 910 l 1
 210 1030 l 1
 350 1030 l 1
125 800 m 1
 195 800 l 1
 195 0 l 1
 125 0 l 1
 125 800 l 1
EndSplineSet
EndChar

StartChar: Icircumflex
Encoding: 206 206 280
Width: 320
VWidth: 0
HStem: 0 21G<125 195> 780 20G<125 195>
VStem: 125 70<0 800>
AnchorPoint: "diac_bottom" 160 -50 basechar 0
AnchorPoint: "diac_top" 160 1030 basechar 0
LayerCount: 2
Fore
SplineSet
50 890 m 1
 -30 890 l 1
 135 1050 l 1
 185 1050 l 1
 350 890 l 1
 270 890 l 1
 160 1009 l 1
 50 890 l 1
125 800 m 1
 195 800 l 1
 195 0 l 1
 125 0 l 1
 125 800 l 1
EndSplineSet
EndChar

StartChar: Idieresis
Encoding: 207 207 281
Width: 320
VWidth: 0
HStem: 0 21G<125 195> 780 20G<125 195> 920 120<-18.8921 78.8921 241.108 338.892>
VStem: -30 120<931.108 1028.89> 125 70<0 800> 230 120<931.108 1028.89>
CounterMasks: 1 1c
AnchorPoint: "diac_top" 160 1030 basechar 0
AnchorPoint: "diac_bottom" 160 -50 basechar 0
LayerCount: 2
Fore
SplineSet
90 980 m 0
 90 947 63 920 30 920 c 0
 -3 920 -30 947 -30 980 c 0
 -30 1013 -3 1040 30 1040 c 0
 63 1040 90 1013 90 980 c 0
350 980 m 0
 350 947 323 920 290 920 c 0
 257 920 230 947 230 980 c 0
 230 1013 257 1040 290 1040 c 0
 323 1040 350 1013 350 980 c 0
125 800 m 1
 195 800 l 1
 195 0 l 1
 125 0 l 1
 125 800 l 1
EndSplineSet
EndChar

StartChar: Ntilde
Encoding: 209 209 282
Width: 800
VWidth: 0
HStem: 0 21G<110 180 607.246 690> 780 20G<110 192.754 620 690> 900 50<436.843 536.384> 980 50<283.616 383.157>
VStem: 110 70<0 690> 220 40<916.85 947.907> 560 40<982.093 1013.15> 620 70<110 800>
LayerCount: 2
Fore
SplineSet
335 1030 m 0
 374 1030 388 1017 415 995 c 0
 437 977 453 950 485 950 c 0
 527 950 549 984 560 1025 c 1
 600 1010 l 1
 590 948 556 900 485 900 c 0
 446 900 432 913 405 935 c 0
 383 953 367 980 335 980 c 0
 293 980 271 946 260 905 c 1
 220 920 l 1
 230 982 264 1030 335 1030 c 0
180 0 m 1
 110 0 l 1
 110 800 l 1
 180 800 l 1
 620 110 l 1
 620 800 l 1
 690 800 l 1
 690 0 l 1
 620 0 l 1
 180 690 l 1
 180 0 l 1
EndSplineSet
EndChar

StartChar: Ograve
Encoding: 210 210 283
Width: 800
VWidth: 0
Flags: W
HStem: -20 60<282.256 517.744> 760 60<283.31 516.69>
VStem: 90 70<161.541 637.885> 640 70<161.541 637.885>
AnchorPoint: "diac_top" 400 1030 basechar 0
LayerCount: 2
Fore
SplineSet
200 1030 m 1
 340 1030 l 1
 520 910 l 1
 455 910 l 1
 200 1030 l 1
640 520 m 2
 640 649 563 760 400 760 c 0
 237 760 160 649 160 520 c 2
 160 270 l 2
 160 150 235 40 400 40 c 0
 565 40 640 150 640 270 c 2
 640 520 l 2
710 520 m 2
 710 270 l 2
 710 88 580 -20 400 -20 c 0
 220 -20 90 88 90 270 c 2
 90 520 l 2
 90 706 223 820 400 820 c 0
 577 820 710 707 710 520 c 2
EndSplineSet
EndChar

